SplineFontDB: 3.0
FontName: Khottabun
FullName: Khottabun
FamilyName: Khottabun
Weight: Medium
Copyright: Created by Theppitak Karoonboonyanan, with FontForge 2.0 (http://fontforge.sf.net).\n\nTham glyphs are based on UbwManut font by Sanit Pokhaphun, Ubon Ratchathani Rajabhat University, Thailand, 8 September 2004.\n\nThai Noi glyphs are based on TNManut font by Sanit Pokhaphun, Ubon Ratchathani Rajabhat University, Thailand, September 2004.
UComments: "2010-12-9: Created." 
Version: 001.000
ItalicAngle: 0
UnderlinePosition: -174
UnderlineWidth: 184
Ascent: 1556
Descent: 492
LayerCount: 2
Layer: 0 0 "Back"  1
Layer: 1 0 "Fore"  0
NeedsXUIDChange: 1
XUID: [1021 373 914837695 14756271]
FSType: 8
OS2Version: 0
OS2_WeightWidthSlopeOnly: 0
OS2_UseTypoMetrics: 1
CreationTime: 1291888288
ModificationTime: 1295172072
PfmFamily: 33
TTFWeight: 500
TTFWidth: 5
LineGap: 377
VLineGap: 0
OS2TypoAscent: 0
OS2TypoAOffset: 1
OS2TypoDescent: 0
OS2TypoDOffset: 1
OS2TypoLinegap: 377
OS2WinAscent: 0
OS2WinAOffset: 1
OS2WinDescent: 0
OS2WinDOffset: 1
HheadAscent: 0
HheadAOffset: 1
HheadDescent: 0
HheadDOffset: 1
OS2Vendor: 'PfEd'
Lookup: 4 0 1 "Subjoined consonants"  {"Subjoined consonants lookup"  } ['ccmp' ('DFLT' <'dflt' > ) ]
MarkAttachClasses: 1
DEI: 91125

StartChar: uni1A20
Encoding: 6688 6688 0
Width: 1200
VWidth: 2260
Flags: W
HStem: -20 66<348.789 446.547 848 975.494> 156 66<347.529 446.547> 736 90<225.975 472.899 701.745 938.998>
VStem: -2 90<220.3 574.762> 276 66<91.3619 150.484> 452 66<51.453 150.547> 1051 90<255.608 596.964>
LayerCount: 2
Back
SplineSet
397 70 m 9xbf
 397 -20 l 1xbf
 143 -20 -2 174 -2 403 c 3
 -2 605 147 826 337 826 c 3
 432 826 519 786 587 707 c 1
 662 788 732 826 838 826 c 3
 1018 826 1141 618 1141 403 c 3
 1141 272 1062 136 905 47 c 1
 912 42 920 39 929 39 c 3
 958 39 1002 67 1063 123 c 1
 1017 28 954 -20 873 -20 c 3x7f
 823 -20 798 -1 798 47 c 3
 798 58 804 80 819 85 c 0
 940 129 1051 282 1051 403 c 3
 1051 576 952 736 838 736 c 3
 745 736 664 677 587 590 c 1
 503 687 421 736 337 736 c 3
 202 736 88 559 88 403 c 3
 88 210 205 70 397 70 c 9xbf
342 101 m 3
 342 71 367 46 397 46 c 3
 427 46 452 71 452 101 c 3
 452 131 427 156 397 156 c 3
 367 156 342 131 342 101 c 3
397 222 m 3
 462 222 518 166 518 101 c 3
 518 36 462 -20 397 -20 c 3
 333 -20 276 37 276 101 c 3
 276 166 332 222 397 222 c 3
EndSplineSet
Fore
SplineSet
397 222 m 3
 462 222 518 166 518 101 c 3
 518 36 462 -20 397 -20 c 3
 143 -20 -2 174 -2 403 c 3
 -2 605 147 826 337 826 c 3
 432 826 519 786 587 707 c 1
 662 788 732 826 838 826 c 3
 1018 826 1141 618 1141 403 c 3
 1141 272 1062 136 905 47 c 1
 912 42 920 39 929 39 c 3
 958 39 1002 67 1063 123 c 1
 1017 28 954 -20 873 -20 c 3
 823 -20 798 -1 798 47 c 3
 798 58 804 80 819 85 c 0
 940 129 1051 282 1051 403 c 3
 1051 576 952 736 838 736 c 3
 745 736 664 677 587 590 c 1
 503 687 421 736 337 736 c 3
 202 736 88 559 88 403 c 3
 88 255 157 137 276 91 c 1
 276 163 326 222 397 222 c 3
342 101 m 3
 342 71 367 46 397 46 c 3
 427 46 452 71 452 101 c 3
 452 131 427 156 397 156 c 3
 367 156 342 131 342 101 c 3
EndSplineSet
EndChar

StartChar: uni1A21
Encoding: 6689 6689 1
Width: 1002
VWidth: 2260
Flags: W
HStem: -20 90<198.501 635.727> 294 90<201.969 616.455> 388 66<76.6678 175.547> 736 90<224.622 621.052>
VStem: 5 66<459.668 556.91> 52 90<121.089 240.07> 181 66<459.453 558.004> 806 90<249.945 566.037>
LayerCount: 2
Back
SplineSet
862 72 m 3
 862 38 855 8 840 -15 c 1
 740 170 648 294 416 294 c 3
 286 294 142 252 142 174 c 3xfb
 142 106 313 70 416 70 c 3
 622 70 806 158 806 397 c 3
 806 618 630 736 416 736 c 3
 251 736 95 647 95 509 c 9
 5 509 l 1xfd80
 5 711 219 826 416 826 c 3
 682 826 896 662 896 397 c 3
 896 88 644 -20 416 -20 c 3
 252 -20 52 44 52 173 c 3xfb80
 52 312 222 384 416 384 c 3
 672 384 862 216 862 72 c 3
71.0009765625 509 m 3x3e54
 71.0009765625 478.639648438 95.640625 454 126.000976562 454 c 3
 156.361328125 454 181.000976562 478.639648438 181.000976562 509 c 3
 181.000976562 539.360351562 156.361328125 564 126.000976562 564 c 3
 95.640625 564 71.0009765625 539.360351562 71.0009765625 509 c 3x3e54
126.000976562 630 m 3
 191.000976562 630 247.000976562 574 247.000976562 509 c 3
 247.000976562 444 191.000976562 388 126.000976562 388 c 3
 62.0009765625 388 5.0009765625 445 5.0009765625 509 c 3x3e4c
 5.0009765625 574 61.0009765625 630 126.000976562 630 c 3
EndSplineSet
Fore
SplineSet
71 509 m 3xfb
 71 479 96 454 126 454 c 3
 156 454 181 479 181 509 c 3
 181 539 156 564 126 564 c 3
 96 564 71 539 71 509 c 3xfb
719 169 m 1
 648 247 558 294 416 294 c 3
 286 294 142 252 142 174 c 3xf7
 142 106 313 70 416 70 c 3
 534 70 646 99 719 169 c 1
775 248 m 1
 795 289 806 338 806 397 c 3
 806 618 630 736 416 736 c 3
 306 736 199 696 141 629 c 1
 199 621 247 569 247 509 c 3
 247 444 191 388 126 388 c 3
 62 388 5 445 5 509 c 3xfb
 5 711 219 826 416 826 c 3
 682 826 896 662 896 397 c 3
 896 304 873 229 835 170 c 1
 853 138 862 104 862 72 c 3
 862 38 855 8 840 -15 c 1
 818 26 796 64 773 98 c 1
 679 14 544 -20 416 -20 c 3
 252 -20 52 44 52 173 c 3
 52 312 222 384 416 384 c 3
 567 384 695 326 775 248 c 1
EndSplineSet
EndChar

StartChar: uni1A23
Encoding: 6691 6691 2
Width: 1086
VWidth: 2260
Flags: W
HStem: -20 66<324.261 422.547 743 870.578> 156 66<323.529 422.547> 736 90<310.001 710.642>
VStem: 12 90<183.603 541.305> 252 66<91.3619 150.484> 428 66<51.453 150.547> 918 90<231.372 540.038>
LayerCount: 2
Back
SplineSet
373 70 m 9
 373 -20 l 1
 110 -20 12 172 12 374 c 3
 12 653 236 826 520 826 c 3
 788 826 1008 629 1008 388 c 3
 1008 244 940 125 801 46 c 1
 806 41 819 39 825 39 c 3
 854 39 898 67 958 122 c 1
 911 27 848 -20 768 -20 c 3
 718 -20 694 -1 694 47 c 3
 694 59 704.965685479 81.0877842478 715 85 c 0
 825.24702296 127.983518102 918 260 918 388 c 3
 918 587.010100752 726.009708509 736 520 736 c 3
 286 736 102 598 102 374 c 3
 102 203 176 70 373 70 c 9
318 101 m 3x3e54
 318 70.6396484375 342.639648438 46 373 46 c 3
 403.360351562 46 428 70.6396484375 428 101 c 3
 428 131.360351562 403.360351562 156 373 156 c 3
 342.639648438 156 318 131.360351562 318 101 c 3x3e54
373 222 m 3
 438 222 494 166 494 101 c 3
 494 36 438 -20 373 -20 c 3
 309 -20 252 37 252 101 c 3x3e4c
 252 166 308 222 373 222 c 3
EndSplineSet
Fore
SplineSet
373 222 m 3
 438 222 494 166 494 101 c 3
 494 36 438 -20 373 -20 c 3
 110 -20 12 172 12 374 c 3
 12 653 236 826 520 826 c 3
 788 826 1008 629 1008 388 c 3
 1008 244 940 125 801 46 c 1
 806 41 819 39 825 39 c 3
 854 39 898 67 958 122 c 1
 911 27 848 -20 768 -20 c 3
 718 -20 694 -1 694 47 c 3
 694 59 705 81 715 85 c 0
 825 129 918 260 918 388 c 3
 918 587 726 736 520 736 c 3
 286 736 102 598 102 374 c 3
 102 244 145 135 252 91 c 1
 252 163 302 222 373 222 c 3
318 101 m 3
 318 71 343 46 373 46 c 3
 403 46 428 71 428 101 c 3
 428 131 403 156 373 156 c 3
 343 156 318 131 318 101 c 3
EndSplineSet
EndChar

StartChar: uni1A25
Encoding: 6693 6693 3
Width: 1429
VWidth: 2260
Flags: W
HStem: -20 90<108.869 240.972 515.739 677.254 985.189 1168.61> 92 90<306.028 450.261> 467 66<52.6678 151.547> 643 66<102 151.011> 656 90<234.334 355.737> 736 90<102.327 211.44 378.783 535.664 773 877.011 1123 1226.75>
VStem: -19 66<538.668 635.741> 9 90<75.7751 272.904> 157 66<538.453 637.547> 555 90<537.015 719.031> 843 90<295.378 616.168> 1247 90<160.746 559.713>
DStem2: 152 390 242 331 0.936473 0.350739<-86.163 438.315>
LayerCount: 2
Back
SplineSet
47 588 m 3
 47 558 72 533 102 533 c 3
 132 533 157 558 157 588 c 3
 157 618 132 643 102 643 c 3
 72 643 47 618 47 588 c 3
1246 682 m 0
 1206.99751816 726.002800027 1174 747 1167 747 c 3
 1154 747 1148 744 1148 736 c 3
 1148 729 1164 710 1197 680 c 0
 1277 604 1337 513 1337 375 c 3
 1337 207 1274 -20 1074 -20 c 3
 961 -20 903 43 844 176 c 1
 764 45 679 -20 588 -20 c 3
 497 -20 425 92 378 92 c 3
 331 92 260 -20 169 -20 c 3
 77.9780246314 -20 9 61.6037110047 9 164 c 3
 9 256.005434622 68.8082274354 358.842032747 152 390 c 2
 419 490 l 2
 524.221432174 529.408776095 555 565 555 635 c 3
 555 678.185645763 517 736 464 736 c 3
 389.993243552 736 378 656 300 656 c 3
 223.993421337 656 181.01 736 141 736 c 3
 96 736 71 647 71 588 c 9
 -19 588 l 1
 -19 732 56 826 141 826 c 3
 227 826 261.986844383 746 300 746 c 3
 339 746 345 826 464 826 c 3
 565 826 645 732 645 635 c 3
 645 551 582.478041775 448.02215682 504 421 c 2
 242 331 l 2
 136.406598561 294.727457521 99 236 99 164 c 3
 99 117 121 70 169 70 c 3
 216 70 287 182 378 182 c 3
 469 182 541 70 588 70 c 3
 696 70 843 312 843 439 c 3
 843 534 816 668 693 709 c 1
 717 787 751 826 795 826 c 3
 829 826 866 800 907 748 c 0
 946 698 966 656 966 622 c 3
 966 619 966 616 962 616 c 3
 957 616 935 638 896 682 c 128
 857 726 831 747 817 747 c 3
 804 747 798 744 798 736 c 3
 798 729 813.960115006 709.958738284 847 680 c 0
 889.966666585 641.040205819 933 517.025636813 933 439 c 3
 933 419.97370241 914 328 914 308 c 3
 914 203 977 70 1074 70 c 3
 1196 70 1247 226 1247 375 c 3
 1247 524 1166 668 1043 709 c 1
 1067 787 1101 826 1145 826 c 3
 1179 826 1216 800 1257 748 c 0
 1296 698 1316 656 1316 622 c 3
 1316 619 1316 616 1312 616 c 3
 1307 616 1285 638 1246 682 c 0
102 709 m 131
 167 709 223 653 223 588 c 131
 223 523 167 467 102 467 c 131
 38 467 -19 524 -19 588 c 3
 -19 653 37 709 102 709 c 131
EndSplineSet
Fore
SplineSet
102 709 m 1xf5f0
 167 709 223 653 223 588 c 3
 223 523 167 467 102 467 c 3
 38 467 -19 524 -19 588 c 3
 -19 732 56 826 141 826 c 3xf6f0
 227 826 262 746 300 746 c 3xeaf0
 339 746 345 826 464 826 c 3
 565 826 645 732 645 635 c 3
 645 551 582 448 504 421 c 2
 242 331 l 2
 136 295 99 236 99 164 c 3
 99 117 121 70 169 70 c 3
 216 70 287 182 378 182 c 3
 469 182 541 70 588 70 c 3
 696 70 843 312 843 439 c 3
 843 534 816 668 693 709 c 1
 717 787 751 826 795 826 c 3
 829 826 866 800 907 748 c 0
 946 698 966 656 966 622 c 0
 966 619 966 616 962 616 c 0
 957 616 935 638 896 682 c 0
 857 726 831 747 817 747 c 3
 804 747 798 744 798 736 c 3
 798 729 814 710 847 680 c 0
 890 641 933 517 933 439 c 3
 933 420 914 328 914 308 c 3
 914 203 977 70 1074 70 c 3
 1196 70 1247 226 1247 375 c 3
 1247 524 1166 668 1043 709 c 1
 1067 787 1101 826 1145 826 c 3
 1179 826 1216 800 1257 748 c 0
 1296 698 1316 656 1316 622 c 0
 1316 619 1316 616 1312 616 c 0
 1307 616 1285 638 1246 682 c 0
 1207 726 1174 747 1167 747 c 3
 1154 747 1148 744 1148 736 c 3
 1148 729 1164 710 1197 680 c 0
 1277 604 1337 513 1337 375 c 3
 1337 207 1274 -20 1074 -20 c 3
 961 -20 903 43 844 176 c 1
 764 45 679 -20 588 -20 c 3
 497 -20 425 92 378 92 c 3
 331 92 260 -20 169 -20 c 3
 78 -20 9 62 9 164 c 3
 9 256 69 359 152 390 c 2
 419 490 l 2
 524 529 555 565 555 635 c 3
 555 678 517 736 464 736 c 3xf5f0
 390 736 378 656 300 656 c 3xe9f0
 224 656 181 736 141 736 c 3
 126 736 113 725 102 709 c 1xf5f0
47 588 m 3
 47 558 72 533 102 533 c 3
 132 533 157 558 157 588 c 3
 157 618 132 643 102 643 c 3
 72 643 47 618 47 588 c 3
EndSplineSet
EndChar

StartChar: uni1A26
Encoding: 6694 6694 4
Width: 899
VWidth: 2260
Flags: W
HStem: -20 90<96.8477 240.692> 79 90<283.651 645.535> 736 90<212.157 580.141>
VStem: 0 90<76.1875 218.021 434.905 632.659>
LayerCount: 2
Fore
SplineSet
0 523 m 3
 0 704 188 826 398 826 c 3
 618 826 808 680 808 471 c 3
 808 463 797 402 774 288 c 1
 740 548 659 736 398 736 c 3
 251 736 90 659 90 523 c 3
 90 407 249 402 249 321 c 1
 143 244 90 172 90 139 c 3
 90 97 114 70 161 70 c 1
 189 83 311 169 449 169 c 3
 562 169 744 112 744 13 c 3
 744 4 743 -6 740 -16 c 1
 689 47 592 79 449 79 c 3
 357 79 251 20 174 -20 c 1
 65 -20 0 33 0 155 c 1
 15 190 58 260 117 329 c 1
 42 380 0 453 0 523 c 3
EndSplineSet
EndChar

StartChar: uni1A27
Encoding: 6695 6695 5
Width: 982
VWidth: 2249
Flags: W
HStem: -20 90<274.263 629.836> 736 90<267.73 629.836>
VStem: 198 90<312.741 436.058> 811 90<245.986 560.014>
LayerCount: 2
Back
SplineSet
97 403 m 0
 97 219 257 70 454 70 c 0
 651 70 811 219 811 403 c 0
 811 587 651 736 454 736 c 0
 257 736 97 587 97 403 c 0
7 403 m 0
 7 636 207 826 454 826 c 0
 701 826 901 636 901 403 c 0
 901 170 701 -20 454 -20 c 0
 207 -20 7 170 7 403 c 0
EndSplineSet
Fore
SplineSet
901 403 m 3
 901 169 701 -20 454 -20 c 3
 248 -20 82 120 27 215 c 1
 135 293 198 338 198 391 c 3
 198 443 115 451 -3 453 c 1
 43 664 192 826 454 826 c 3
 701 826 901 637 901 403 c 3
157 198 m 1
 209 148 305 70 454 70 c 3
 651 70 811 219 811 403 c 3
 811 587 651 736 454 736 c 3
 305 736 186 671 119 535 c 1
 241 523 288 460 288 391 c 3
 288 316 246 270 157 198 c 1
EndSplineSet
EndChar

StartChar: uni1A28
Encoding: 6696 6696 6
Width: 998
VWidth: 2260
Flags: W
HStem: -20 90<370.127 663.543> -20 66<114.933 209.525> 146 66<114.933 228.028> 252 66<147.668 247.14> 428 66<147.453 245.287> 602 80<10.635 128.83> 736 90<282.417 635.8>
VStem: 1 95<616.812 720.199> 45 66<49.9329 142.067> 76 66<323.668 422.547> 251 90<194.696 426.792> 815 90<236.848 557.845>
LayerCount: 2
Back
SplineSet
142 373 m 3x3e70
 142 343 167 318 197 318 c 3
 227 318 252 343 252 373 c 3
 252 403 227 428 197 428 c 3
 167 428 142 403 142 373 c 3x3e70
197 494 m 3
 262 494 318 438 318 373 c 3
 318 308 262 252 197 252 c 3
 133 252 76 309 76 373 c 3
 76 438 132 494 197 494 c 3
161 146 m 3
 133 146 111 124 111 96 c 3x7e84
 111 68 133 46 161 46 c 3
 234 46 251 205.311339694 251 253 c 3x3e0c
 251 312.076221951 239.838407948 363.971784199 223 390 c 1
 298 438 l 17
 328 394 341 330 341 253 c 3x3e10
 341 154.016108718 281.910367587 -20 161 -20 c 3
 97 -20 45 32 45 96 c 3
 45 160 97 212 161 212 c 3
 307 212 339 70 532 70 c 3
 691 70 815 251 815 403 c 3
 815 580.025421903 658.042775856 736 471 736 c 3
 419 736 330 712 218 668 c 0
 106 624 39 602 19 602 c 3
 7 602 1 610 1 625 c 3
 1 682 38 729 112 764 c 0
 139 777 200 795 296 820 c 1
 185 756 l 2
 128 723 96 696 96 686 c 3
 96 682 101 682 108 682 c 3
 122 682 155 701 207 738 c 0
 307 811 334 826 471 826 c 3
 706 826 905 634 905 403 c 3
 905 186 729 -20 532 -20 c 3xbf
 286 -20 261 146 161 146 c 3
EndSplineSet
Fore
SplineSet
142 373 m 3x3e70
 142 343 167 318 197 318 c 3
 227 318 252 343 252 373 c 3
 252 403 227 428 197 428 c 3
 167 428 142 403 142 373 c 3x3e70
229 118 m 1
 208 135 187 146 161 146 c 3
 133 146 111 124 111 96 c 3
 111 68 133 46 161 46 c 3x7eb0
 194 46 215 78 229 118 c 1
197 494 m 3
 308 494 341 372 341 253 c 3
 341 222 335 183 323 145 c 1
 375 108 432 70 532 70 c 3
 691 70 815 251 815 403 c 3
 815 580 658 736 471 736 c 3
 419 736 330 712 218 668 c 0
 106 624 39 602 19 602 c 3
 7 602 1 610 1 625 c 3
 1 682 38 729 112 764 c 0
 139 777 200 795 296 820 c 1
 185 756 l 2
 128 723 96 696 96 686 c 3
 96 682 101 682 108 682 c 3
 122 682 155 701 207 738 c 0
 307 811 334 826 471 826 c 3
 706 826 905 634 905 403 c 3
 905 186 729 -20 532 -20 c 3xbf30
 406 -20 339 24 289 66 c 1
 259 17 216 -20 161 -20 c 3
 97 -20 45 32 45 96 c 3x7eb0
 45 160 97 212 161 212 c 3
 194 212 221 204 246 193 c 1
 249 218 251 240 251 253 c 3
 251 257 251 261 251 265 c 1
 235 257 216 252 197 252 c 3
 133 252 76 309 76 373 c 3x7e70
 76 438 132 494 197 494 c 3
EndSplineSet
EndChar

StartChar: uni1A29
Encoding: 6697 6697 7
Width: 949
VWidth: 2260
Flags: W
HStem: -20 90<153.176 320.738 535.262 699.481> 66 90<346.262 509.738> 268 66<707.668 805.281> 444 66<707.023 793.557> 736 90<249.676 645.359>
VStem: 59 90<75.4612 191.162> 186 90<267.439 333.561> 636 66<339.668 438.547> 811 143<285.5 434.022> 934 20<224.208 266.753>
LayerCount: 2
Back
SplineSet
811 405 m 3
 811 422 806.678636567 449.930501462 802 474 c 0
 768.308855686 647.325911781 643 736 438 736 c 3
 220 736 143.694817354 625.26791031 98 446 c 1
 221.623612106 409.146200605 276 372 276 303 c 3
 276 223 149 179.0142828 149 144 c 3
 149 91 169 70 239 70 c 3
 278 70 353 156 428 156 c 3
 503 156 578 70 617 70 c 3
 642 70 714 123 723 136 c 1
 736 121 743 97 743 80 c 3
 743 31 669 -20 617 -20 c 3
 542 -20 467 66 428 66 c 3
 389 66 314 -20 239 -20 c 3
 124 -20 59 35 59 144 c 3
 59 237 186 284 186 303 c 3
 186 322 111 350 0 383 c 1
 28 673 174 826 438 826 c 3
 679 826 888 674 888 465 c 3
 888 360 853 268 757 268 c 3
 693 268 636 325 636 389 c 3x3e4c
 636 454 690 510 757 510 c 3
 825 510 871 472 886 459 c 0
 924 425 954 387 954 304 c 3
 954 267 947 237 934 210 c 1
 929 251 921 282 912 301 c 0
 901 324 889 349 869 379 c 0
 843 419 805 444 757 444 c 3
 727 444 702 419 702 389 c 3x3e54
 702 359 727 334 757 334 c 3
 795 334 811 359 811 405 c 3
EndSplineSet
Fore
SplineSet
876 369 m 1xbf40
 859 310 821 268 757 268 c 3
 693 268 636 325 636 389 c 3
 636 454 690 510 757 510 c 3
 770 510 782 508 794 506 c 1
 752 658 630 736 438 736 c 3
 220 736 144 625 98 446 c 1
 222 409 276 372 276 303 c 3
 276 223 149 179 149 144 c 3
 149 91 169 70 239 70 c 3xbf40
 278 70 353 156 428 156 c 3x7f40
 503 156 578 70 617 70 c 3
 642 70 714 123 723 136 c 1
 736 121 743 97 743 80 c 3
 743 31 669 -20 617 -20 c 3xbf40
 542 -20 467 66 428 66 c 3x7f40
 389 66 314 -20 239 -20 c 3
 124 -20 59 35 59 144 c 3
 59 237 186 284 186 303 c 3
 186 322 111 350 0 383 c 1
 28 673 174 826 438 826 c 3
 684 826 888 672 888 457 c 1
 925 423 954 386 954 304 c 3xbf80
 954 267 947 237 934 210 c 1
 924 291 910 315 876 369 c 1xbf40
809 433 m 1
 793 440 776 444 757 444 c 3
 727 444 702 419 702 389 c 3
 702 359 727 334 757 334 c 3
 795 334 811 359 811 405 c 0x3f80
 811 413 810 422 809 433 c 1
EndSplineSet
EndChar

StartChar: uni1A2A
Encoding: 6698 6698 8
Width: 1105
VWidth: 2260
Flags: W
HStem: -20 90<153.176 320.738 535.262 699.481> 66 90<346.262 509.738> 268 66<707.668 805.281> 444 66<707.023 793.557> 736 90<248.535 645.359> 1361 90<289.566 923.037>
VStem: 17 90<687 1205.81> 59 90<75.4612 191.162> 186 90<267.439 333.561> 636 66<339.668 438.547> 811 143<285.5 434.022> 934 20<224.208 266.753>
LayerCount: 2
Back
SplineSet
811 405 m 3
 811 422 806.678636567 449.930501462 802 474 c 0
 768.308855686 647.325911781 643 736 438 736 c 3
 220 736 143.694817354 625.26791031 98 446 c 1
 221.623612106 409.146200605 276 372 276 303 c 3
 276 223 149 179.0142828 149 144 c 3
 149 91 169 70 239 70 c 3
 278 70 353 156 428 156 c 3
 503 156 578 70 617 70 c 3
 642 70 714 123 723 136 c 1
 736 121 743 97 743 80 c 3
 743 31 669 -20 617 -20 c 3
 542 -20 467 66 428 66 c 3
 389 66 314 -20 239 -20 c 3
 124 -20 59 35 59 144 c 3
 59 237 186 284 186 303 c 3
 186 322 111 350 0 383 c 1
 28 673 174 826 438 826 c 3
 679 826 888 674 888 465 c 3
 888 360 853 268 757 268 c 3
 693 268 636 325 636 389 c 3x3e4c
 636 454 690 510 757 510 c 3
 825 510 871 472 886 459 c 0
 924 425 954 387 954 304 c 3
 954 267 947 237 934 210 c 1
 929 251 921 282 912 301 c 0
 901 324 889 349 869 379 c 0
 843 419 805 444 757 444 c 3
 727 444 702 419 702 389 c 3x3e54
 702 359 727 334 757 334 c 3
 795 334 811 359 811 405 c 3
1190 1211 m 1
 973 1326 939 1361 593 1361 c 3
 271 1361 107 1282 107 1025 c 2
 107 603 l 2
 107 572 102 551 91 538 c 0
 54 494 17 472 17 472 c 1
 17 472 17 503 17 564 c 2
 17 1025 l 2
 17 1346.24316406 239.987252355 1451 593 1451 c 3
 912.06 1451 1107 1362 1190 1211 c 1
EndSplineSet
Fore
SplineSet
1190 1211 m 1xbec0
 973 1326 939 1361 593 1361 c 3
 271 1361 107 1282 107 1025 c 2
 107 687 l 1
 181 779 291 826 438 826 c 3
 684 826 888 672 888 457 c 1
 925 423 954 386 954 304 c 3xbee0
 954 267 947 237 934 210 c 1
 924 291 910 315 876 369 c 1
 859 310 821 268 757 268 c 3
 693 268 636 325 636 389 c 3
 636 454 690 510 757 510 c 3
 770 510 782 508 794 506 c 1
 752 658 630 736 438 736 c 3
 220 736 144 625 98 446 c 1
 222 409 276 372 276 303 c 3
 276 223 149 179 149 144 c 3
 149 91 169 70 239 70 c 3xbdd0
 278 70 353 156 428 156 c 3x7dd0
 503 156 578 70 617 70 c 3
 642 70 714 123 723 136 c 1
 736 121 743 97 743 80 c 3
 743 31 669 -20 617 -20 c 3xbdd0
 542 -20 467 66 428 66 c 3x7dd0
 389 66 314 -20 239 -20 c 3
 124 -20 59 35 59 144 c 3xbdd0
 59 237 186 284 186 303 c 3
 186 322 111 350 0 383 c 1
 4 421 9 457 17 490 c 1
 17 1025 l 2
 17 1346 240 1451 593 1451 c 3
 912 1451 1107 1362 1190 1211 c 1xbec0
809 433 m 1
 793 440 776 444 757 444 c 3
 727 444 702 419 702 389 c 3
 702 359 727 334 757 334 c 3
 795 334 811 359 811 405 c 3
 811 413 810 422 809 433 c 1
EndSplineSet
EndChar

StartChar: uni1A2B
Encoding: 6699 6699 9
Width: 1220
VWidth: 2260
Flags: W
HStem: -251 90<675.163 791.408 887.768 1002.05> -20 90<153.176 320.738> 66 90<346.262 509.665> 268 66<707.668 805.281> 444 66<707.023 793.557> 736 90<249.676 645.359> 894 66<813.985 950.703>
VStem: 59 90<75.4612 191.162> 186 90<267.439 333.561> 584 90<-159.429 -13.7984> 636 66<339.668 438.547> 811 143<285.5 434.022> 934 20<224.208 266.753> 1010 90<-158.566 669.504>
LayerCount: 2
Back
SplineSet
811 405 m 3
 811 422 806.678636567 449.930501462 802 474 c 0
 768.308855686 647.325911781 643 736 438 736 c 3
 220 736 143.694817354 625.26791031 98 446 c 1
 221.623612106 409.146200605 276 372 276 303 c 3
 276 223 149 179.0142828 149 144 c 3
 149 91 169 70 239 70 c 3
 278 70 353 156 428 156 c 3
 503 156 578 70 617 70 c 3
 642 70 714 123 723 136 c 1
 736 121 743 97 743 80 c 3
 743 31 669 -20 617 -20 c 3
 542 -20 467 66 428 66 c 3
 389 66 314 -20 239 -20 c 3
 124 -20 59 35 59 144 c 3
 59 237 186 284 186 303 c 3
 186 322 111 350 0 383 c 1
 28 673 174 826 438 826 c 3
 679 826 888 674 888 465 c 3
 888 360 853 268 757 268 c 3
 693 268 636 325 636 389 c 3x3e4c
 636 454 690 510 757 510 c 3
 825 510 871 472 886 459 c 0
 924 425 954 387 954 304 c 3
 954 267 947 237 934 210 c 1
 929 251 921 282 912 301 c 0
 901 324 889 349 869 379 c 0
 843 419 805 444 757 444 c 3
 727 444 702 419 702 389 c 3x3e54
 702 359 727 334 757 334 c 3
 795 334 811 359 811 405 c 3
730 -251 m 3
 649 -251 584 -210 584 -125 c 3
 584 -59 646 91 704 91 c 0
 708.075195312 91 743 90.150390625 743 80 c 3
 743 14.93080606 674 -69.9636483767 674 -125 c 3
 674 -150 690 -161 730 -161 c 3
 766 -161 794 -92 841 -92 c 3
 888 -92 907 -161 952 -161 c 3
 991 -161 1010 -120 1010 -62 c 2
 1010 541 l 2
 1010 601 987 653 940 698 c 0
 929 709 886 740 811 793 c 0
 764 825 741 855 741 884 c 0
 741 934 773 960 837 960 c 0
 947 960 1056 871 1164 696 c 1
 1090 762 1042 803 1019 820 c 0
 952 869 897 894 852 894 c 0
 836 894 823 890 813 882 c 1
 924 805 l 2
 995 756 1039 721 1060 681 c 0
 1080 642 1100 583 1100 504 c 2
 1100 -62 l 2
 1100 -181 1039.00574694 -251 952 -251 c 3
 906 -251 872 -222 841 -193 c 1
 811 -221 776 -251 730 -251 c 3
EndSplineSet
Fore
SplineSet
730 -251 m 3xdfd4
 649 -251 584 -210 584 -125 c 3
 584 -98 594 -59 610 -20 c 1xdfd4
 537 -15 466 66 428 66 c 3xbfd4
 389 66 314 -20 239 -20 c 3
 124 -20 59 35 59 144 c 3
 59 237 186 284 186 303 c 3
 186 322 111 350 0 383 c 1
 28 673 174 826 438 826 c 3
 684 826 888 672 888 457 c 1
 925 423 954 386 954 304 c 3xdfd4
 954 267 947 237 934 210 c 1
 924 291 910 315 876 369 c 1
 859 310 821 268 757 268 c 3
 693 268 636 325 636 389 c 3
 636 454 690 510 757 510 c 3
 770 510 782 508 794 506 c 1
 752 658 630 736 438 736 c 3
 220 736 144 625 98 446 c 1
 222 409 276 372 276 303 c 3
 276 223 149 179 149 144 c 3
 149 91 169 70 239 70 c 3xdfac
 278 70 353 156 428 156 c 3xbfac
 503 156 578 70 617 70 c 3
 642 70 714 123 723 136 c 1
 736 121 743 97 743 80 c 3
 743 15 674 -70 674 -125 c 3
 674 -150 690 -161 730 -161 c 3
 766 -161 794 -92 841 -92 c 3
 888 -92 907 -161 952 -161 c 3
 991 -161 1010 -120 1010 -62 c 2
 1010 541 l 2
 1010 601 987 653 940 698 c 0
 929 709 886 740 811 793 c 0
 764 825 741 855 741 884 c 3
 741 934 773 960 837 960 c 3
 947 960 1056 871 1164 696 c 1
 1090 762 1042 803 1019 820 c 0
 952 869 897 894 852 894 c 3
 836 894 823 890 813 882 c 1
 924 805 l 2
 995 756 1039 721 1060 681 c 0
 1080 642 1100 583 1100 504 c 2
 1100 -62 l 2
 1100 -181 1039 -251 952 -251 c 3
 906 -251 872 -222 841 -193 c 1
 811 -221 776 -251 730 -251 c 3xdfd4
809 433 m 1
 793 440 776 444 757 444 c 3
 727 444 702 419 702 389 c 3x9fb4
 702 359 727 334 757 334 c 3
 795 334 811 359 811 405 c 3
 811 413 810 422 809 433 c 1
EndSplineSet
EndChar

StartChar: uni1A2C
Encoding: 6700 6700 10
Width: 1305
VWidth: 2260
Flags: W
HStem: -778 90<307.559 875.649> -20 90<728.017 928.433> 421 66<86.6678 185.547> 736 90<197.877 552.848> 770 56<903.249 1003.08>
VStem: -2 90<-519.104 -219.608> 15 66<492.668 591.11> 191 66<492.453 591.499> 700 90<226.234 588.266> 1092 90<237.402 552.989>
LayerCount: 2
Back
SplineSet
799 687 m 1
 817 745 874 826 939 826 c 3
 966 826 998 812 1027 779 c 2
 1097 698 l 1
 1097 687 l 1
 1075 712 951 770 929 770 c 3
 920 770 903 750 903 750 c 1
 1088 685 1182 529 1182 386 c 3
 1182 210 1050 -20 685 -20 c 3
 584 -20 471 -40 376 -73 c 0
 214 -130 88 -189 88 -382 c 3
 88 -597 340 -688 570 -688 c 3
 755 -688 1028 -625 1157 -568 c 1
 1016 -708 821 -778 570 -778 c 3
 279 -778 -2 -649 -2 -382 c 3
 -2 -169 114 -68 346 13 c 0
 540 81 700 174 700 412 c 3
 700 597 584 736 387 736 c 3
 244 736 105 676 105 542 c 1
 15 542 l 1
 15 720 171 826 387 826 c 3
 608 826 790 674 790 412 c 3
 790 375 781 258 757 183 c 2
 757 183 728 98 728 91 c 0
 728 77 751 70 796 70 c 3
 943 70 1092 226 1092 386 c 3
 1092 534 994 688 830 688 c 3
 820 688 810 688 799 687 c 1
81 542 m 3x3e54
 81 512 106 487 136 487 c 3
 166 487 191 512 191 542 c 3
 191 572 166 597 136 597 c 3
 106 597 81 572 81 542 c 3x3e54
136 663 m 3
 201 663 257 607 257 542 c 3
 257 477 201 421 136 421 c 3
 72 421 15 478 15 542 c 3x3e4c
 15 607 71 663 136 663 c 3
EndSplineSet
Fore
SplineSet
81 542 m 3xe3c0
 81 512 106 487 136 487 c 3
 166 487 191 512 191 542 c 3
 191 572 166 597 136 597 c 3
 106 597 81 572 81 542 c 3xe3c0
156 661 m 1
 212 651 257 600 257 542 c 3
 257 477 201 421 136 421 c 3
 72 421 15 478 15 542 c 3
 15 720 171 826 387 826 c 3xf3c0
 608 826 790 674 790 412 c 3
 790 375 781 258 757 183 c 2
 757 183 728 98 728 91 c 3
 728 77 751 70 796 70 c 3
 943 70 1092 226 1092 386 c 3
 1092 534 994 688 830 688 c 3
 820 688 810 688 799 687 c 1
 817 745 874 826 939 826 c 3
 966 826 998 812 1027 779 c 2
 1097 698 l 1
 1097 687 l 1
 1075 712 951 770 929 770 c 3xebc0
 920 770 903 750 903 750 c 1
 1088 685 1182 529 1182 386 c 3
 1182 210 1050 -20 685 -20 c 3
 584 -20 471 -40 376 -73 c 0
 214 -130 88 -189 88 -382 c 3
 88 -597 340 -688 570 -688 c 3
 755 -688 1028 -625 1157 -568 c 1
 1016 -708 821 -778 570 -778 c 3
 279 -778 -2 -649 -2 -382 c 3
 -2 -169 114 -68 346 13 c 0
 540 81 700 174 700 412 c 3
 700 597 584 736 387 736 c 3xf5c0
 297 736 209 712 156 661 c 1
EndSplineSet
EndChar

StartChar: uni1A2D
Encoding: 6701 6701 11
Width: 1065
VWidth: 2260
Flags: W
HStem: -20 90<130.227 271.11 553.127 742.495> 125 90<364.152 463.218> 584 66<197.988 297.547> 760 66<200.243 297.547 628.941 776.108>
VStem: 9 90<98.8256 298.018 544.009 688.197> 104 90<340.444 500.209> 303 66<655.453 754.547> 528 100<713.5 769.593> 870 90<199.286 524.69>
LayerCount: 2
Back
SplineSet
528 718 m 3
 528 777 603 826 666 826 c 3
 700 826 754 806 829 769 c 0
 930.783964864 718.108017568 938 701.5 953 669 c 1
 950.222910492 669 913.016897514 685.53900646 837 720 c 128
 762 754 707 770 674 770 c 3
 643 770 628 762 628 745 c 3
 628 742 629.098196742 738.761273834 632 738 c 0
 849.120934312 681.039389187 960 561.00242717 960 355 c 3
 960 141.990610536 790.025390625 -20 611 -20 c 3
 493.961544781 -20 458.911132812 125 414 125 c 3
 367.729058795 125 334.00390619 -20 208 -20 c 3
 89 -20 9 92 9 209 c 3
 9 314.004882812 104 368.990234375 104 420 c 3
 104 485 9 519 9 615 c 3
 9 730.51 104 826 248 826 c 1
 248 736 l 1
 167 736 99 691 99 615 c 3
 99 563.990197021 194 529 194 420 c 3
 194 327.994565378 99 274.007691853 99 209 c 3
 99 135 148 70 208 70 c 3
 278 70 304 215 414 215 c 3
 523.004587059 215 550 70 611 70 c 3
 715 70 870 168.932807835 870 355 c 3
 870 538.010742188 760.727934904 652.46981606 540 701 c 0
 531.942453704 702.771566449 528 709 528 718 c 3
193 705 m 3x3e54
 193 674.639648438 217.639648438 650 248 650 c 3
 278.360351562 650 303 674.639648438 303 705 c 3
 303 735.360351562 278.360351562 760 248 760 c 3
 217.639648438 760 193 735.360351562 193 705 c 3x3e54
248 826 m 3
 313 826 369 770 369 705 c 3
 369 640 313 584 248 584 c 3
 184 584 127 641 127 705 c 3x3e4c
 127 770 183 826 248 826 c 3
EndSplineSet
Fore
SplineSet
193 705 m 3
 193 675 218 650 248 650 c 3
 278 650 303 675 303 705 c 3
 303 735 278 760 248 760 c 3
 218 760 193 735 193 705 c 3
248 826 m 3
 313 826 369 770 369 705 c 3
 369 640 313 584 248 584 c 3
 189 584 136 632 128 690 c 1
 110 670 99 645 99 615 c 3
 99 564 194 529 194 420 c 3
 194 328 99 274 99 209 c 3
 99 135 148 70 208 70 c 3
 278 70 304 215 414 215 c 3
 523 215 550 70 611 70 c 3
 715 70 870 169 870 355 c 3
 870 538 761 652 540 701 c 0
 532 703 528 709 528 718 c 3
 528 777 603 826 666 826 c 3
 700 826 754 806 829 769 c 0
 931 718 938 701 953 669 c 1
 950 669 913 686 837 720 c 0
 762 754 707 770 674 770 c 3
 643 770 628 762 628 745 c 3
 628 742 629 739 632 738 c 0
 849 681 960 561 960 355 c 3
 960 142 790 -20 611 -20 c 3
 494 -20 459 125 414 125 c 3
 368 125 334 -20 208 -20 c 3
 89 -20 9 92 9 209 c 3
 9 314 104 369 104 420 c 3
 104 485 9 519 9 615 c 3
 9 731 104 826 248 826 c 3
EndSplineSet
EndChar

StartChar: uni1A2E
Encoding: 6702 6702 12
Width: 1073
VWidth: 2260
Flags: W
HStem: -540 90<142.828 668.656> -153 90<151.044 580.686> -20 90<163.361 521.776> 456 90<552.593 704.009> 736 90<227.748 688.76>
VStem: -11 90<-392.96 -215.461 481.728 626.465> 13 90<126.766 269.597> 596 90<137.293 326.54> 746 90<-376.245 414.408> 895 59<330.7 502.183>
LayerCount: 2
Fore
SplineSet
393 -153 m 3xfdc0
 194 -153 79 -206 79 -299 c 3xfdc0
 79 -406 184 -450 405 -450 c 3
 653 -450 746 -403 746 -244 c 2
 746 223 l 2
 746 332 719 456 629 456 c 3
 605 456 579 447 551 428 c 1
 641 394 686 345 686 239 c 3
 686 82 551 -20 342 -20 c 3
 158 -20 13 72 13 208 c 3
 13 272 50 303 123 371 c 1
 55 408 -2 459 -2 551 c 3
 -2 721 225 826 465 826 c 3
 755 826 954 673 954 424 c 3
 954 345 934 303 895 258 c 1
 873 495 889 561 735 667 c 0
 663 716 564 736 465 736 c 3
 290 736 88 663 88 551 c 3
 88 457 226 450 226 371 c 3
 226 314 103 253 103 208 c 3xfbc0
 103 119 227 70 342 70 c 3
 483 70 596 127 596 239 c 3
 596 308 551 339 455 373 c 0
 437 380 428 384 428 386 c 3
 428 460 523 546 629 546 c 3
 749 546 836 442 836 223 c 2
 836 -244 l 2
 836 -465 695 -540 405 -540 c 3
 140 -540 -11 -473 -11 -299 c 3
 -11 -150 132 -63 393 -63 c 3
 565 -63 624 -127 711 -239 c 1
 545 -164 508 -153 393 -153 c 3xfdc0
EndSplineSet
EndChar

StartChar: uni1A2F
Encoding: 6703 6703 13
Width: 962
VWidth: 2260
Flags: W
HStem: -20 90<106.223 337.219> 70 90<368.328 656.254> 389 66<81.6678 180.547> 736 90<251.031 628.256>
VStem: 10 66<460.668 559.274> 16 90<71.2924 144.79> 186 66<460.453 559.486> 661 90<-266.674 61.1558> 741 90<413.401 640.8>
DStem2: 123 231 180 155 0.959149 0.282901<-52.2534 643.908> 255 95 280 3 0.972479 0.23299<-120.847 310.402>
LayerCount: 2
Back
SplineSet
280 3 m 2
 228 -11 175 -20 136 -20 c 3
 71 -20 16 36 16 103 c 3xf7
 16 151 48 209 123 231 c 2
 618 377 l 2
 694.807044353 399.65419894 741 422.98165292 741 532 c 3
 741 675.03146507 576 736 420 736 c 3
 266 736 100 618 100 510 c 1
 10 510 l 1
 10 686 233 826 420 826 c 3
 638 826 831 727 831 532 c 3xfa80
 831 375.971156513 769.449481002 328.866393677 597 278 c 2
 180 155 l 2
 123.220598038 138.252118846 106 122.02629759 106 103 c 3
 106 89 120 70 136 70 c 3
 151 70 190 79 255 95 c 2
 447 141 l 2
 506 155 550 160 582 160 c 3
 693 160 757 88 757 -46 c 3
 757 -81 751 -138 751 -156 c 3
 751 -219 785 -275 864 -322 c 1
 855 -325 846 -326 839 -326 c 3
 739 -326 661 -256 661 -156 c 3xf7
 661 -136 667 -66 667 -46 c 3
 667 45.0054943396 636 70 582 70 c 3
 543 70 511 61 467 50 c 2
 280 3 l 2
76 510 m 3xfa
 76 480 101 455 131 455 c 3
 161 455 186 480 186 510 c 3
 186 540 161 565 131 565 c 3
 101 565 76 540 76 510 c 3xfa
131 631 m 3
 196 631 252 575 252 510 c 3
 252 445 196 389 131 389 c 3
 67 389 10 446 10 510 c 3
 10 575 66 631 131 631 c 3
EndSplineSet
Fore
SplineSet
76 510 m 3x3a
 76 480 101 455 131 455 c 3
 161 455 186 480 186 510 c 3
 186 540 161 565 131 565 c 3
 101 565 76 540 76 510 c 3x3a
159 627 m 1
 211 614 252 565 252 510 c 3
 252 445 196 389 131 389 c 3
 67 389 10 446 10 510 c 3xba80
 10 686 233 826 420 826 c 3
 638 826 831 727 831 532 c 3
 831 376 769 329 597 278 c 2
 180 155 l 2
 123 138 106 122 106 103 c 3
 106 89 120 70 136 70 c 3xb680
 151 70 190 79 255 95 c 2
 447 141 l 2
 506 155 550 160 582 160 c 3
 693 160 757 88 757 -46 c 3
 757 -81 751 -138 751 -156 c 3
 751 -219 785 -275 864 -322 c 1
 855 -325 846 -326 839 -326 c 3
 739 -326 661 -256 661 -156 c 3
 661 -136 667 -66 667 -46 c 3
 667 45 636 70 582 70 c 3x77
 543 70 511 61 467 50 c 2
 280 3 l 2
 228 -11 175 -20 136 -20 c 3
 71 -20 16 36 16 103 c 3
 16 151 48 209 123 231 c 2
 618 377 l 2
 695 400 741 423 741 532 c 3xb680
 741 675 576 736 420 736 c 3
 323 736 221 689 159 627 c 1
EndSplineSet
EndChar

StartChar: uni1A30
Encoding: 6704 6704 14
Width: 1299
VWidth: 2260
Flags: W
HStem: -20 90<112.597 341.929 843.304 1022.95> 128 90<513.375 746.664> 467 66<67.6678 166.547> 618 90<304.621 415.995> 643 66<121 165.859> 736 90<122.101 235.554 486.368 617.081 956.5 1069.12>
VStem: -4 66<538.668 637.199> 22 90<73.8192 204.68> 172 66<538.453 637.177> 658 90<472.639 696.969> 1157 90<216.154 543.66>
DStem2: 242 342 268 255 0.955908 0.293665<-168.197 428.445> 380 129 413 45 0.933217 0.359313<-195.506 259.095>
LayerCount: 2
Back
SplineSet
62 588 m 3xeee0
 62 558 87 533 117 533 c 3
 147 533 172 558 172 588 c 3
 172 618 147 643 117 643 c 3
 87 643 62 618 62 588 c 3xeee0
117 709 m 3
 182 709 238 653 238 588 c 3
 238 523 182 467 117 467 c 3
 53 467 -4 524 -4 588 c 3
 -4 653 52 709 117 709 c 3
600 117 m 2
 413 45 l 2
 312 6 254 -20 191 -20 c 3
 78 -20 22 33 22 121 c 3xf5e0
 22 204 60 286 242 342 c 2
 560 439 l 2
 615 456 658 513 658 584 c 3
 658 652 601 736 556 736 c 3
 491 736 458 618 360 618 c 3
 254 618 233 736 175 736 c 3
 117 736 86 663 86 588 c 9xf6e0
 -4 588 l 1
 -4 702 53 826 175 826 c 3
 283 826 312 708 360 708 c 3
 405 708 440 826 556 826 c 3
 658 826 748 697 748 584 c 3
 748 489 694 386 587 353 c 2
 268 255 l 2
 137 215 112 171 112 121 c 3xf5e0
 112 86 128 70 191 70 c 3
 238 70 298 97 380 129 c 2
 567 201 l 2
 608 217 638 218 659 218 c 3
 795 218 851 70 906 70 c 3
 1040 70 1157 229 1157 381 c 3
 1157 437 1135 527 1093 570 c 0
 1074 590 1036 624 959 673 c 0
 933 690 921 695 921 718 c 3
 921 764 943 826 970 826 c 3
 1016 826 1054 792 1116 747 c 0
 1168 709 1198 680 1208 661 c 1
 1198 646 l 1
 1110 715 1053 747 1028 747 c 3
 1018 747 1013 731 1013 731 c 1
 1112 684 1247 541 1247 381 c 3
 1247 181 1092 -20 906 -20 c 3
 789 -20 757 128 659 128 c 3
 638 128 626 127 600 117 c 2
EndSplineSet
Fore
SplineSet
62 588 m 3xeee0
 62 558 87 533 117 533 c 3
 147 533 172 558 172 588 c 3
 172 618 147 643 117 643 c 3
 87 643 62 618 62 588 c 3xeee0
-4 588 m 3
 -4 702 53 826 175 826 c 3
 283 826 312 708 360 708 c 3
 405 708 440 826 556 826 c 3
 658 826 748 697 748 584 c 3
 748 489 694 386 587 353 c 2
 268 255 l 2
 137 215 112 171 112 121 c 3
 112 86 128 70 191 70 c 3
 238 70 298 97 380 129 c 2
 567 201 l 2
 608 217 638 218 659 218 c 3
 795 218 851 70 906 70 c 3
 1040 70 1157 229 1157 381 c 3
 1157 437 1135 527 1093 570 c 0
 1074 590 1036 624 959 673 c 0
 933 690 921 695 921 718 c 3
 921 764 943 826 970 826 c 3
 1016 826 1054 792 1116 747 c 0
 1168 709 1198 680 1208 661 c 1
 1198 646 l 1
 1110 715 1053 747 1028 747 c 3
 1018 747 1013 731 1013 731 c 1
 1112 684 1247 541 1247 381 c 3
 1247 181 1092 -20 906 -20 c 3
 789 -20 757 128 659 128 c 3
 638 128 626 127 600 117 c 2
 413 45 l 2
 312 6 254 -20 191 -20 c 3
 78 -20 22 33 22 121 c 3
 22 204 60 286 242 342 c 2
 560 439 l 2
 615 456 658 513 658 584 c 3
 658 652 601 736 556 736 c 3
 491 736 458 618 360 618 c 3xf5e0
 254 618 233 736 175 736 c 3
 153 736 135 726 121 709 c 1
 184 707 238 652 238 588 c 3
 238 523 182 467 117 467 c 3
 53 467 -4 524 -4 588 c 3
EndSplineSet
EndChar

StartChar: uni1A31
Encoding: 6705 6705 15
Width: 1574
VWidth: 2260
Flags: W
HStem: -20 90<676.123 901.877> -20 66<280.925 377.547> 156 66<278.692 377.547> 736 90<235.908 551.607 1019.32 1297.11>
VStem: 4 90<204.373 582.789> 383 66<51.453 150.547> 543 90<115.087 333.559> 658 90<404.58 637.795> 830 90<404.58 644.214> 945 90<115.087 333.559> 1436 90<280.015 587.105>
LayerCount: 2
Back
SplineSet
328 222 m 3
 393 222 449 166 449 101 c 3
 449 36 393 -20 328 -20 c 3
 264 -20 207 37 207 101 c 3x3e4c
 207 166 263 222 328 222 c 3
273 101 m 3x3e54
 273 71 298 46 328 46 c 3
 358 46 383 71 383 101 c 3
 383 131 358 156 328 156 c 3
 298 156 273 131 273 101 c 3x3e54
396 826 m 3
 575 826 748 701 748 520 c 3
 748 399 633 305 633 222 c 3
 633 132 703 70 789 70 c 3
 875 70 945 132 945 222 c 3
 945 305 830 399 830 520 c 3
 830 701 993 826 1168 826 c 3
 1363 826 1526 635 1526 431 c 3
 1526 307 1445 194 1286 87 c 1
 1328 93 1381 125 1444 184 c 1
 1381 48 1310 -20 1231 -20 c 3
 1165 -20 1132 -5 1132 25 c 3
 1132 41 1148 61 1180 84 c 2
 1282 158 l 2
 1388 235 1436 328 1436 431 c 3
 1436 594 1304 736 1168 736 c 3
 1053 736 920 657 920 520 c 3
 920 439 1035 331 1035 222 c 3
 1035 72 915 -20 789 -20 c 3
 663 -20 543 72 543 222 c 3
 543 331 658 439 658 520 c 3
 658 634 543 736 396 736 c 3
 206 736 94 591 94 400 c 3
 94 235 182 70 328 70 c 1
 328 -20 l 1
 135 -20 4 176 4 400 c 3
 4 651 163 826 396 826 c 3
EndSplineSet
Fore
SplineSet
273 101 m 3x7fe0
 273 71 298 46 328 46 c 3
 358 46 383 71 383 101 c 3
 383 131 358 156 328 156 c 3
 298 156 273 131 273 101 c 3x7fe0
328 222 m 3
 393 222 449 166 449 101 c 3
 449 36 393 -20 328 -20 c 3x7fe0
 135 -20 4 176 4 400 c 3
 4 651 163 826 396 826 c 3
 575 826 748 701 748 520 c 3
 748 399 633 305 633 222 c 3
 633 132 703 70 789 70 c 3xbfe0
 875 70 945 132 945 222 c 3
 945 305 830 399 830 520 c 3
 830 701 993 826 1168 826 c 3
 1363 826 1526 635 1526 431 c 3
 1526 307 1445 194 1286 87 c 1
 1328 93 1381 125 1444 184 c 1
 1381 48 1310 -20 1231 -20 c 3x7fe0
 1165 -20 1132 -5 1132 25 c 3
 1132 41 1148 61 1180 84 c 2
 1282 158 l 2
 1388 235 1436 328 1436 431 c 3
 1436 594 1304 736 1168 736 c 3
 1053 736 920 657 920 520 c 3
 920 439 1035 331 1035 222 c 3
 1035 72 915 -20 789 -20 c 3xbfe0
 663 -20 543 72 543 222 c 3
 543 331 658 439 658 520 c 3
 658 634 543 736 396 736 c 3
 206 736 94 591 94 400 c 3
 94 287 135 174 208 114 c 1
 215 173 267 222 328 222 c 3
EndSplineSet
EndChar

StartChar: uni1A32
Encoding: 6706 6706 16
Width: 1621
VWidth: 2240
Flags: W
HStem: -20 90<256.177 583.823 1202.24 1341.36> 736 90<256.177 583.165 977.717 1294.87>
VStem: 0 90<237.908 568.092> 750 90<238.609 568.793> 1174 100<70.0037 108.196> 1433 90<302.758 602.311>
LayerCount: 2
Back
SplineSet
0 403 m 3
 0 636 188 826 420 826 c 3
 652 826 840 636 840 403 c 3
 840 170 652 -20 420 -20 c 3
 188 -20 0 170 0 403 c 3
90 403 m 3
 90 219 238 70 420 70 c 3
 602 70 750 219 750 403 c 3
 750 587 602 736 420 736 c 3
 238 736 90 587 90 403 c 3
840 403 m 1
 750 403 l 17
 750 637 891 826 1136 826 c 3
 1345 826 1523 667 1523 456 c 3
 1523 286 1398 153 1274 83 c 1
 1274 75 1277 70 1284 70 c 3
 1310 70 1370 101 1465 160 c 1
 1434 91 1319 -19 1230 -20 c 0
 1192 -20 1174 -2 1174 33 c 3
 1174 70 1196 110 1241 152 c 0
 1367 270 1433 316 1433 456 c 3
 1433 612 1301 736 1136 736 c 3
 943 736 840 587 840 403 c 1
EndSplineSet
Fore
SplineSet
90 403 m 3
 90 219 238 70 420 70 c 3
 602 70 750 219 750 403 c 3
 750 587 602 736 420 736 c 3
 238 736 90 587 90 403 c 3
0 403 m 3
 0 636 188 826 420 826 c 3
 580 826 719 736 790 604 c 1
 848 736 967 826 1136 826 c 3
 1345 826 1523 667 1523 456 c 3
 1523 286 1398 153 1274 83 c 1
 1274 75 1277 70 1284 70 c 3
 1310 70 1370 101 1465 160 c 1
 1434 91 1319 -19 1230 -20 c 0
 1192 -20 1174 -2 1174 33 c 3
 1174 70 1196 110 1241 152 c 0
 1367 270 1433 316 1433 456 c 3
 1433 612 1301 736 1136 736 c 3
 943 736 840 587 840 403 c 3
 840 170 652 -20 420 -20 c 3
 188 -20 0 170 0 403 c 3
EndSplineSet
EndChar

StartChar: uni1A33
Encoding: 6707 6707 17
Width: 1020
VWidth: 2260
Flags: W
HStem: -20 66<308.379 404.547> 156 66<305.453 404.547> 736 90<218.173 618.011>
VStem: 3 90<132.656 291.271 450.297 639.749> 234 66<86.1551 150.547> 410 66<51.453 150.547> 819 90<233.55 548.102>
LayerCount: 2
Back
SplineSet
300 101 m 3x3e54
 300 71 325 46 355 46 c 3
 385 46 410 71 410 101 c 3
 410 131 385 156 355 156 c 3
 325 156 300 131 300 101 c 3x3e54
355 222 m 3
 420 222 476 166 476 101 c 3
 476 36 420 -20 355 -20 c 3
 291 -20 234 37 234 101 c 3x3e4c
 234 166 290 222 355 222 c 3
355 -20 m 1
 169 -20 3 63 3 210 c 3
 3 263 29 307 93 373 c 1
 18 435 0 463 0 551 c 3
 0 721 225 826 424 826 c 3
 674 826 909 658 909 380 c 3
 909 260 834 164 685 53 c 1
 590 53 l 1
 712 152 819 223.987180014 819 380 c 3
 819 595 641 736 424 736 c 3
 267 736 90 655 90 551 c 3
 90 469 148 438 247 373 c 1
 149 330 93 244 93 210 c 3
 93 110 253 70 355 70 c 1
 355 -20 l 1
EndSplineSet
Fore
SplineSet
355 222 m 3
 420 222 476 166 476 101 c 3
 476 36 420 -20 355 -20 c 3
 169 -20 3 63 3 210 c 3
 3 263 29 307 93 373 c 1
 18 435 0 463 0 551 c 3
 0 721 225 826 424 826 c 3
 674 826 909 658 909 380 c 3
 909 260 834 164 685 53 c 1
 590 53 l 1
 712 152 819 224 819 380 c 3
 819 595 641 736 424 736 c 3
 267 736 90 655 90 551 c 3
 90 469 148 438 247 373 c 1
 149 330 93 244 93 210 c 3
 93 145 160 106 235 86 c 1
 234 91 234 96 234 101 c 3
 234 166 290 222 355 222 c 3
300 101 m 3
 300 71 325 46 355 46 c 3
 385 46 410 71 410 101 c 3
 410 131 385 156 355 156 c 3
 325 156 300 131 300 101 c 3
EndSplineSet
EndChar

StartChar: uni1A34
Encoding: 6708 6708 18
Width: 1025
VWidth: 2260
Flags: W
HStem: -20 90<219.317 453.846> 146 66<423.502 476.184> 322 66<422.453 521.547> 736 90<275.253 652.149>
VStem: -2 90<215.015 562.355> 351 66<217.023 316.547> 527 66<220.279 316.547> 841 90<228.52 553.128>
LayerCount: 2
Back
SplineSet
417 267 m 3x3e54
 417 236.639648438 441.639648438 212 472 212 c 3
 502.360351562 212 527 236.639648438 527 267 c 3
 527 297.360351562 502.360351562 322 472 322 c 3
 441.639648438 322 417 297.360351562 417 267 c 3x3e54
472 388 m 3
 537 388 593 332 593 267 c 3
 593 202 537 146 472 146 c 3
 408 146 351 203 351 267 c 3x3e4c
 351 332 407 388 472 388 c 3
473 736 m 3
 265 736 88 615 88 392 c 3
 88 230 189 70 357 70 c 3
 461 70 503 172 503 267 c 1
 593 267 l 1
 593 110 509 -20 357 -20 c 3
 142 -20 -2 173.784179688 -2 392 c 3
 -2 657 205 826 473 826 c 3
 723.548828125 826 931 640.155273438 931 392 c 3
 931 198 824 69 610 -20 c 1
 490 -10 l 1
 658 53 841 188 841 392 c 3
 841 589 671 736 473 736 c 3
EndSplineSet
Fore
SplineSet
417 267 m 3
 417 237 442 212 472 212 c 3
 502 212 527 237 527 267 c 3
 527 297 502 322 472 322 c 3
 442 322 417 297 417 267 c 3
477 146 m 1
 410 146 351 200 351 267 c 3
 351 332 407 388 472 388 c 3
 537 388 593 332 593 267 c 3
 593 110 509 -20 357 -20 c 3
 142 -20 -2 174 -2 392 c 3
 -2 657 205 826 473 826 c 3
 724 826 931 640 931 392 c 3
 931 198 824 69 610 -20 c 1
 490 -10 l 1
 658 53 841 188 841 392 c 3
 841 589 671 736 473 736 c 3
 265 736 88 615 88 392 c 3
 88 230 189 70 357 70 c 3
 415 70 454 102 477 146 c 1
EndSplineSet
EndChar

StartChar: uni1A35
Encoding: 6709 6709 19
Width: 1056
VWidth: 2260
Flags: W
HStem: -20 21G<171 337.5 611.5 726> 135 90<390.945 540.038> 736 90<287.591 679.89>
VStem: 4 90<247.366 536.997> 40 69<590.756 696.124> 854 90<281.56 582.551>
LayerCount: 2
Fore
SplineSet
94 428 m 3xf4
 94 267 165 189 287 104 c 1
 339 175 388 225 467 225 c 3
 529 225 595 171 645 107 c 1
 775 199 854 313 854 438 c 3
 854 609 688 736 498 736 c 3
 393 736 260 702 159 615 c 0
 128 588 97 575 64 575 c 3
 48 575 40 586 40 606 c 3
 40 749 272 836 428 836 c 1
 328 818 109 717 109 659 c 0xec
 109 656 110 653 113 651 c 1
 216 768 345 826 498 826 c 3
 741 826 944 657 944 438 c 3
 944 266 835 111 617 -20 c 1
 606 29 511 135 467 135 c 3
 429 135 377 87 298 -20 c 1
 44 158 4 263 4 428 c 3
 4 515 53 563 130 563 c 1
 131 562 133 560 134 557 c 1
 107 522 94 473 94 428 c 3xf4
EndSplineSet
EndChar

StartChar: uni1A36
Encoding: 6710 6710 20
Width: 1028
VWidth: 2260
Flags: W
HStem: 74 90<98.2684 718.307> 316 66<658.668 757.908> 492 66<658.453 757.004> 736 90<225.712 732.927>
VStem: 3 90<133 598.646> 587 66<387.668 486.547> 860 90<455.086 635.618> 1162 32<-539.127 -451.314>
LayerCount: 2
Back
SplineSet
484 736 m 3
 175 736 93 649 93 330 c 2
 93 133 l 1
 171 149 259 164 399 164 c 3
 834 164 1194 -48 1194 -407 c 3
 1194 -472 1183 -540 1162 -612 c 1
 1157 -155 903 74 399 74 c 3
 284 74 192 62 3 27 c 1
 3 330 l 2
 3 686 107 826 484 826 c 3
 713 826 950 743 950 539 c 3
 950 403 845 316 708 316 c 1
 708 406 l 1
 789 406 860 450 860 539 c 3
 860 668 684 736 484 736 c 3
653 437 m 3x3e54
 653 407 678 382 708 382 c 3
 738 382 763 407 763 437 c 3
 763 467 738 492 708 492 c 3
 678 492 653 467 653 437 c 3x3e54
708 558 m 3
 773 558 829 502 829 437 c 3
 829 372 773 316 708 316 c 3
 644 316 587 373 587 437 c 3x3e4c
 587 502 643 558 708 558 c 3
EndSplineSet
Fore
SplineSet
653 437 m 3
 653 407 678 382 708 382 c 3
 738 382 763 407 763 437 c 3
 763 467 738 492 708 492 c 3
 678 492 653 467 653 437 c 3
708 316 m 3
 644 316 587 373 587 437 c 3
 587 502 643 558 708 558 c 3
 768 558 820 510 828 452 c 1
 848 473 860 502 860 539 c 3
 860 668 684 736 484 736 c 3
 175 736 93 649 93 330 c 2
 93 133 l 1
 171 149 259 164 399 164 c 3
 834 164 1194 -48 1194 -407 c 3
 1194 -472 1183 -540 1162 -612 c 1
 1157 -155 903 74 399 74 c 3
 284 74 192 62 3 27 c 1
 3 330 l 2
 3 686 107 826 484 826 c 3
 713 826 950 743 950 539 c 3
 950 403 845 316 708 316 c 3
EndSplineSet
EndChar

StartChar: uni1A37
Encoding: 6711 6711 21
Width: 984
VWidth: 2260
Flags: W
HStem: -20 90<239.425 634.864> 760 66<61.453 160.547>
VStem: -10 66<655.814 754.547> -3 90<203.679 471.358> 166 66<655.745 754.547> 714 119<626.148 816.272> 779 90<211.212 724.742>
LayerCount: 2
Back
SplineSet
56 705 m 3x3e54
 56 675 81 650 111 650 c 3
 141 650 166 675 166 705 c 3
 166 735 141 760 111 760 c 3
 81 760 56 735 56 705 c 3x3e54
111 826 m 3
 176 826 232 770 232 705 c 3
 232 640 176 584 111 584 c 3
 47 584 -10 641 -10 705 c 3x3e4c
 -10 770 46 826 111 826 c 3
433 70 m 3
 669 70 779 191 779 402 c 3
 779 586 743 695 714 798 c 1
 714 817 732 826 769 826 c 0
 792 826 813 787 833 708 c 0
 854 626 869 505 869 402 c 3
 869 130 709 -20 433 -20 c 3
 200 -20 -3 122 -3 331 c 3
 -3 494 142 628 142 705 c 1
 232 705 l 1
 232 593 87 460 87 331 c 3
 87 179 245 70 433 70 c 3
EndSplineSet
Fore
SplineSet
56 705 m 3xe8
 56 675 81 650 111 650 c 3
 141 650 166 675 166 705 c 3
 166 735 141 760 111 760 c 3
 81 760 56 735 56 705 c 3xe8
90 586 m 1
 35 597 -10 648 -10 705 c 3xe8
 -10 770 46 826 111 826 c 3
 176 826 232 770 232 705 c 3
 232 593 87 460 87 331 c 3
 87 179 245 70 433 70 c 3
 669 70 779 191 779 402 c 3xda
 779 586 743 695 714 798 c 1
 714 817 732 826 769 826 c 3
 792 826 813 787 833 708 c 0xcc
 854 626 869 505 869 402 c 3
 869 130 709 -20 433 -20 c 3
 200 -20 -3 122 -3 331 c 3xda
 -3 428 48 515 90 586 c 1
EndSplineSet
EndChar

StartChar: uni1A38
Encoding: 6712 6712 22
Width: 984
VWidth: 2260
Flags: W
HStem: -20 90<239.425 634.864> 760 66<61.453 160.547 694.5 783.051>
VStem: -10 66<655.814 754.547> -3 90<203.679 471.358> 166 66<655.745 754.547> 779 90<211.427 595.696>
LayerCount: 2
Back
SplineSet
56 705 m 3x3e54
 56 675 81 650 111 650 c 3
 141 650 166 675 166 705 c 3
 166 735 141 760 111 760 c 3
 81 760 56 735 56 705 c 3x3e54
111 826 m 3
 176 826 232 770 232 705 c 3
 232 640 176 584 111 584 c 3
 47 584 -10 641 -10 705 c 3x3e4c
 -10 770 46 826 111 826 c 3
582 778 m 0
 582 794 685 826 704 826 c 3
 756 826 797 802 828 754 c 0
 845 728 863 681 884 612 c 1
 802 715 749 766 725 766 c 3
 724 766 720 765 714 763 c 1
 793 691 869 581 869 402 c 3
 869 131 709 -20 433 -20 c 3
 200 -20 -3 122 -3 331 c 3
 -3 494 142 628 142 705 c 1
 232 705 l 1
 232 593 87 460 87 331 c 3
 87 179 245 70 433 70 c 3
 669 70 779 191 779 402 c 3
 779 570 723 627 635 717 c 0
 601 752 582 773 582 778 c 0
EndSplineSet
Fore
SplineSet
56 705 m 3xec
 56 675 81 650 111 650 c 3
 141 650 166 675 166 705 c 3
 166 735 141 760 111 760 c 3
 81 760 56 735 56 705 c 3xec
90 586 m 1
 35 597 -10 648 -10 705 c 3xec
 -10 770 46 826 111 826 c 3
 176 826 232 770 232 705 c 3
 232 593 87 460 87 331 c 3
 87 179 245 70 433 70 c 3
 669 70 779 191 779 402 c 3
 779 570 723 627 635 717 c 0
 601 752 582 773 582 778 c 3
 582 794 685 826 704 826 c 3
 756 826 797 802 828 754 c 0
 845 728 863 681 884 612 c 1
 802 715 749 766 725 766 c 3
 724 766 720 765 714 763 c 1
 793 691 869 581 869 402 c 3
 869 131 709 -20 433 -20 c 3
 200 -20 -3 122 -3 331 c 3xdc
 -3 428 48 515 90 586 c 1
EndSplineSet
EndChar

StartChar: uni1A39
Encoding: 6713 6713 23
Width: 1065
VWidth: 2260
Flags: W
HStem: -20 90<134.349 280.44 542.655 746.059> 102 90<352.197 472.457> 563 90<585.955 756.637> 584 66<197.859 297.547> 736 90<585.155 752.864> 760 66<200.259 297.547> 789 20G<869.5 885>
VStem: 14 90<97.7718 296.149 517.165 678.998> 103 90<322.184 482.976> 303 66<655.453 754.547> 495 90<653.612 734.614> 853 90<186.637 611.302>
LayerCount: 2
Back
SplineSet
193 705 m 3x3e54
 193 675 218 650 248 650 c 3
 278 650 303 675 303 705 c 3
 303 735 278 760 248 760 c 3
 218 760 193 735 193 705 c 3x3e54
248 826 m 3
 313 826 369 770 369 705 c 3
 369 640 313 584 248 584 c 3
 184 584 127 641 127 705 c 3x3e4c
 127 770 183 826 248 826 c 3
853 393 m 3
 853 571 785 736 639 736 c 3
 606 736 585 719 585 695 c 3
 585 667 604 653 639 653 c 3
 748 653 789 708 847 788 c 0
 857 802 866 809 873 809 c 3
 897 809 909 790 909 751 c 3
 909 740 902 723 888 700 c 0
 847 631 772 563 639 563 c 3
 553 563 495 617 495 695 c 3
 495 767 549 826 639 826 c 3
 842 826 943 628 943 393 c 3
 943 164 834 -20 619 -20 c 3
 499 -20 459 102 414 102 c 3
 369 102 317 -20 208 -20 c 3
 89 -20 14 97 14 198 c 3
 14 282 103 373 103 417 c 3
 103 453 10 508 10 590 c 3
 10 722 104 826 248 826 c 1
 248 736 l 1
 150 736 100 666 100 590 c 3
 100 550 193 499 193 417 c 3
 193 338 104 246 104 198 c 3
 104 141 149 70 208 70 c 3
 274 70 313 192 414 192 c 3
 520 192 541 70 619 70 c 3
 786 70 853 226 853 393 c 3
EndSplineSet
Fore
SplineSet
193 705 m 3xd4f0
 193 675 218 650 248 650 c 3
 278 650 303 675 303 705 c 3
 303 735 278 760 248 760 c 3
 218 760 193 735 193 705 c 3xd4f0
909 751 m 3
 909 737 890 700 877 682 c 1
 921 605 943 503 943 393 c 3
 943 164 834 -20 619 -20 c 3
 499 -20 459 102 414 102 c 3
 369 102 317 -20 208 -20 c 3
 89 -20 14 97 14 198 c 3xc370
 14 282 103 373 103 417 c 3
 103 453 10 508 10 590 c 3
 10 722 104 826 248 826 c 3
 313 826 369 770 369 705 c 3
 369 640 313 584 248 584 c 3
 192 584 140 628 129 682 c 1
 109 656 100 624 100 590 c 3
 100 550 193 499 193 417 c 3xd4f0
 193 338 104 246 104 198 c 3
 104 141 149 70 208 70 c 3
 274 70 313 192 414 192 c 3
 520 192 541 70 619 70 c 3
 786 70 853 226 853 393 c 3
 853 474 839 553 810 614 c 1
 768 584 712 563 639 563 c 3
 553 563 495 617 495 695 c 3
 495 767 549 826 639 826 c 3xe970
 714 826 775 800 822 754 c 1
 847 788 l 2
 857 802 866 809 873 809 c 3xc370
 897 809 909 790 909 751 c 3
758 688 m 1
 726 718 687 736 639 736 c 3
 606 736 585 719 585 695 c 3
 585 667 604 653 639 653 c 3xe870
 691 653 728 666 758 688 c 1
EndSplineSet
EndChar

StartChar: uni1A3A
Encoding: 6714 6714 24
Width: 955
VWidth: 2260
Flags: W
HStem: -20 90<119.349 265.44 527.655 703.832> 102 90<337.197 457.457> 584 66<183.076 282.547> 760 66<185.259 282.547> 1152 70<143.463 499.558>
VStem: -1 90<97.7718 296.149 517.165 678.998> 88 90<322.184 482.976> 288 66<655.453 754.547> 799 90<183.683 738.686>
LayerCount: 2
Back
SplineSet
178 705 m 3x3e54
 178 675 203 650 233 650 c 3
 263 650 288 675 288 705 c 3
 288 735 263 760 233 760 c 3
 203 760 178 735 178 705 c 3x3e54
233 826 m 3
 298 826 354 770 354 705 c 3
 354 640 298 584 233 584 c 3
 169 584 112 641 112 705 c 3x3e4c
 112 770 168 826 233 826 c 3
799 393 m 3
 799 585 782 686 745 761 c 0
 705 841 625 902 550 935 c 0
 423 991 268 1017 19 1066 c 0
 10 1068 5 1072 4 1078 c 1
 4 1173 93 1222 275 1222 c 3
 378 1222 491 1200 608 1157 c 0
 759 1101 834 1028 834 939 c 1
 794 999 709 1051 578 1094 c 0
 463 1132 362 1152 275 1152 c 3
 218 1152 174 1143 142 1126 c 1
 228 1116 442 1086 592 1015 c 0
 704 962 780 887 826 801 c 0
 868 722 889 603 889 393 c 3
 889 164 780 -20 604 -20 c 3
 484 -20 444 102 399 102 c 3
 354 102 302 -20 193 -20 c 3
 74 -20 -1 97 -1 198 c 3
 -1 282 88 373 88 417 c 3
 88 453 -5 508 -5 590 c 3
 -5 722 89 826 233 826 c 1
 233 736 l 1
 135 736 85 666 85 590 c 3
 85 550 178 499 178 417 c 3
 178 338 89 246 89 198 c 3
 89 141 134 70 193 70 c 3
 259 70 298 192 399 192 c 3
 505 192 526 70 604 70 c 3
 730 70 799 226 799 393 c 3
EndSplineSet
Fore
SplineSet
178 705 m 3xfb80
 178 675 203 650 233 650 c 3
 263 650 288 675 288 705 c 3
 288 735 263 760 233 760 c 3
 203 760 178 735 178 705 c 3xfb80
115 682 m 1
 95 656 85 624 85 590 c 3
 85 550 178 499 178 417 c 3xfb80
 178 338 89 246 89 198 c 3
 89 141 134 70 193 70 c 3
 259 70 298 192 399 192 c 3
 505 192 526 70 604 70 c 3
 730 70 799 226 799 393 c 3
 799 585 782 686 745 761 c 0
 705 841 625 902 550 935 c 0
 423 991 268 1017 19 1066 c 0
 10 1068 5 1072 4 1078 c 1
 4 1173 93 1222 275 1222 c 3
 378 1222 491 1200 608 1157 c 0
 759 1101 834 1028 834 939 c 1
 794 999 709 1051 578 1094 c 0
 463 1132 362 1152 275 1152 c 3
 218 1152 174 1143 142 1126 c 1
 228 1116 442 1086 592 1015 c 0
 704 962 780 887 826 801 c 0
 868 722 889 603 889 393 c 3
 889 164 780 -20 604 -20 c 3
 484 -20 444 102 399 102 c 3
 354 102 302 -20 193 -20 c 3
 74 -20 -1 97 -1 198 c 3xfd80
 -1 282 88 373 88 417 c 3
 88 453 -5 508 -5 590 c 3
 -5 722 89 826 233 826 c 3
 298 826 354 770 354 705 c 3
 354 640 298 584 233 584 c 3
 177 584 127 628 115 682 c 1
EndSplineSet
EndChar

StartChar: uni1A3B
Encoding: 6715 6715 25
Width: 1200
VWidth: 2260
Flags: W
HStem: -20 90<210.012 452.202> -20 59<844.5 971.795> 218 66<456.668 535.505> 394 66<456.453 554.632> 736 90<225.975 471.053 709.46 935.298>
VStem: -2 90<206.451 572.817> 385 66<289.668 388.547> 561 74<235.968 389.893> 1051 90<223.409 596.347>
LayerCount: 2
Back
SplineSet
451 339 m 3x3e54
 451 309 476 284 506 284 c 3
 536 284 561 309 561 339 c 3
 561 369 536 394 506 394 c 3
 476 394 451 369 451 339 c 3x3e54
506 460 m 3
 571 460 627 404 627 339 c 3
 627 274 571 218 506 218 c 3
 442 218 385 275 385 339 c 3x3e4c
 385 404 441 460 506 460 c 3
535 349 m 9
 620 377 l 1
 627 358 635 306 635 272 c 3
 635 133 494 -20 327 -20 c 3xbf80
 143 -20 -2 166 -2 391 c 3
 -2 611 147 826 337 826 c 3
 432 826 516 785 587 703 c 1
 662 784 746 826 837 826 c 3
 1002 826 1141 633 1141 402 c 3
 1141 208 1062 136 905 47 c 1
 913 42 921 39 929 39 c 3
 957 39 1002 67 1063 123 c 1
 1017 28 954 -20 873 -20 c 3x7f80
 816 -20 798 2 798 47 c 0
 798 60 810 82 819 85 c 0
 971 136 1051 233 1051 402 c 3
 1051 595 941 736 837 736 c 3
 750 736 666 671 587 586 c 1
 500 687 417 736 337 736 c 3
 202 736 88 561 88 391 c 3
 88 206 204 70 327 70 c 3xbf80
 438 70 545 176 545 272 c 7
 545 293 543 325 535 349 c 9
EndSplineSet
Fore
SplineSet
451 339 m 3x3f80
 451 309 476 284 506 284 c 3
 536 284 561 309 561 339 c 3
 561 369 536 394 506 394 c 3
 476 394 451 369 451 339 c 3x3f80
536 222 m 1
 526 219 516 218 506 218 c 3
 442 218 385 275 385 339 c 3
 385 404 441 460 506 460 c 3
 601 460 635 370 635 272 c 3
 635 133 494 -20 327 -20 c 3xbf80
 143 -20 -2 166 -2 391 c 3
 -2 611 147 826 337 826 c 3
 432 826 516 785 587 703 c 1
 662 784 746 826 837 826 c 3
 1002 826 1141 633 1141 402 c 3
 1141 208 1062 136 905 47 c 1
 913 42 921 39 929 39 c 3
 957 39 1002 67 1063 123 c 1
 1017 28 954 -20 873 -20 c 3x7f80
 816 -20 798 2 798 47 c 3
 798 60 810 82 819 85 c 0
 971 136 1051 233 1051 402 c 3
 1051 595 941 736 837 736 c 3
 750 736 666 671 587 586 c 1
 500 687 417 736 337 736 c 3
 202 736 88 561 88 391 c 3
 88 206 204 70 327 70 c 3xbf80
 419 70 508 142 536 222 c 1
EndSplineSet
EndChar

StartChar: uni1A3C
Encoding: 6716 6716 26
Width: 1214
VWidth: 2260
Flags: W
HStem: -20 90<204.687 461.812> -20 59<848 971.795> 197 66<457.668 534.394> 373 66<457.453 555.586> 670 90<276.946 399.023 705.363 941.46> 907 66<421.475 640.269>
VStem: -2 90<197.616 520.611> 208 66<766.78 859.481> 386 66<268.668 367.547 761.94 866.081> 562 73<216.222 369.604> 1051 90<226.692 546.382>
LayerCount: 2
Back
SplineSet
208 814 m 3
 208 880 266 934 337 934 c 3
 408 934 466 880 466 814 c 3
 466 748 408 694 337 694 c 3
 266 694 208 748 208 814 c 3
537 324 m 9
 625 343 l 1
 628 328 635 286 635 252 c 3
 635 110 494 -20 327 -20 c 3xbb90
 143 -20 -2 161 -2 360 c 3
 -2 550 147 760 337 760 c 3
 432 760 516 721 587 639 c 1
 662 720 746 760 837 760 c 3
 1002 760 1141 573 1141 385 c 27
 1141 224 1062 136 905 47 c 1
 913 42 921 39 929 39 c 3
 957 39 1002 67 1063 123 c 1
 1017 28 954 -20 873 -20 c 3x7b98
 823 -20 798 2 798 47 c 3
 798 56 806 80 819 85 c 0
 969 140 1051 246 1051 385 c 3
 1051 532 943 670 837 670 c 3
 749 670 666 607 587 522 c 1
 503 620 417 670 337 670 c 3
 206 670 88 505 88 360 c 3
 88 207 197 70 327 70 c 3xbb90
 438 70 545 156 545 252 c 3
 545 276 542 300 537 324 c 9
452 318 m 3x3e54
 452 288 477 263 507 263 c 3
 537 263 562 288 562 318 c 3
 562 348 537 373 507 373 c 3
 477 373 452 348 452 318 c 3x3e54
507 439 m 3
 572 439 628 383 628 318 c 3
 628 253 572 197 507 197 c 3
 443 197 386 254 386 318 c 3x3e4c
 386 383 442 439 507 439 c 3
274 814 m 3
 274 784 302 760 337 760 c 3x3bf0
 372 760 400 784 400 814 c 3
 400 844 372 868 337 868 c 3
 302 868 274 844 274 814 c 3
1009 726 m 1
 884 791 694 907 463 907 c 3
 409 907 274 892 274 814 c 9
 208 814 l 1
 208 926 335 973 463 973 c 3
 648 973 914 831 1009 726 c 1
EndSplineSet
Fore
SplineSet
1009 726 m 1xbfe0
 884 791 694 907 463 907 c 3
 452 907 437 907 421 905 c 1
 448 883 466 850 466 814 c 3
 466 787 457 763 441 743 c 1
 494 724 543 690 587 639 c 1
 662 720 746 760 837 760 c 3
 1002 760 1141 573 1141 385 c 3
 1141 224 1062 136 905 47 c 1
 913 42 921 39 929 39 c 3
 957 39 1002 67 1063 123 c 1
 1017 28 954 -20 873 -20 c 3x7fe0
 823 -20 798 2 798 47 c 3
 798 56 806 80 819 85 c 0
 969 140 1051 246 1051 385 c 3
 1051 532 943 670 837 670 c 3
 749 670 666 607 587 522 c 1
 503 620 417 670 337 670 c 3
 206 670 88 505 88 360 c 3
 88 207 197 70 327 70 c 3
 418 70 506 127 535 200 c 1
 526 198 516 197 507 197 c 3
 443 197 386 254 386 318 c 3
 386 383 442 439 507 439 c 3
 602 439 635 352 635 252 c 3
 635 110 494 -20 327 -20 c 3
 143 -20 -2 161 -2 360 c 3
 -2 515 97 683 236 740 c 1
 219 760 208 786 208 814 c 3
 208 926 335 973 463 973 c 3
 648 973 914 831 1009 726 c 1xbfe0
452 318 m 3
 452 288 477 263 507 263 c 3
 537 263 562 288 562 318 c 3
 562 348 537 373 507 373 c 3
 477 373 452 348 452 318 c 3
274 814 m 3
 274 784 302 760 337 760 c 3
 372 760 400 784 400 814 c 3
 400 844 372 868 337 868 c 3
 302 868 274 844 274 814 c 3
EndSplineSet
EndChar

StartChar: uni1A3D
Encoding: 6717 6717 27
Width: 1053
VWidth: 2260
Flags: W
HStem: -20 75<786 872.948> 736 90<351.209 732.211> 760 66<68.453 167.406>
VStem: -3 66<655.836 754.547> 6 90<188.757 383.684> 902 90<242.723 580.901>
LayerCount: 2
Back
SplineSet
63 705 m 3x3e54
 63 675 88 650 118 650 c 3
 148 650 173 675 173 705 c 3
 173 735 148 760 118 760 c 3
 88 760 63 735 63 705 c 3x3e54
118 826 m 3
 183 826 239 770 239 705 c 3
 239 640 183 584 118 584 c 3
 54 584 -3 641 -3 705 c 3x3e4c
 -3 770 53 826 118 826 c 3
786 56 m 1
 791 56 795 55 799 55 c 3
 880 55 877 73 960 132 c 1
 910 31 848 -20 773 -20 c 3
 716 -20 651 10 580 70 c 1
 802 106 902 240 902 435 c 3
 902 604 747 736 549 736 c 259
 364 736 185 632 185 435 c 3
 185 295 236 157 463 68 c 1
 413 9 368 -20 327 -20 c 3
 149 -20 6 138 6 361 c 3
 6 539 149 627 149 705 c 1
 239 705 l 17
 239 589 96 501 96 361 c 3
 96 229 162 114 280 69 c 1
 172 129 95 259 95 435 c 3
 95 678 305 826 549 826 c 3
 793 826 992 660 992 435 c 3
 992 256 926 127 786 56 c 1
EndSplineSet
Fore
SplineSet
63 705 m 3xb4
 63 675 88 650 118 650 c 3
 148 650 173 675 173 705 c 3
 173 735 148 760 118 760 c 3
 88 760 63 735 63 705 c 3xb4
97 384 m 1
 96 377 96 369 96 361 c 3x8c
 96 229 162 114 280 69 c 1
 183 123 110 234 97 384 c 1
89 588 m 1
 38 602 -3 651 -3 705 c 3
 -3 770 53 826 118 826 c 3xb4
 176 826 226 782 237 727 c 1
 319 791 430 826 549 826 c 3
 793 826 992 660 992 435 c 3
 992 256 926 127 786 56 c 1
 791 56 795 55 799 55 c 3
 880 55 877 73 960 132 c 1
 910 31 848 -20 773 -20 c 3
 716 -20 651 10 580 70 c 1
 802 106 902 240 902 435 c 3
 902 604 747 736 549 736 c 3xd4
 364 736 185 632 185 435 c 3
 185 295 236 157 463 68 c 1
 413 9 368 -20 327 -20 c 3
 149 -20 6 138 6 361 c 3
 6 460 50 531 89 588 c 1
EndSplineSet
EndChar

StartChar: uni1A3E
Encoding: 6718 6718 28
Width: 999
VWidth: 2260
Flags: W
HStem: -20 90<239.425 635.439> 216 66<389.668 488.547> 392 66<389.453 488.439> 760 66<61.453 160.547 694.5 783.051>
VStem: -10 66<655.814 754.547> -3 90<203.679 471.358> 166 66<655.745 754.547> 318 66<287.668 386.547> 494 66<287.453 356.216> 779 90<378.218 594.033> 913 85<-69.6746 174.819>
LayerCount: 2
Back
SplineSet
56 705 m 3x3e54
 56 675 81 650 111 650 c 3
 141 650 166 675 166 705 c 3
 166 735 141 760 111 760 c 3
 81 760 56 735 56 705 c 3x3e54
111 826 m 3
 176 826 232 770 232 705 c 3
 232 640 176 584 111 584 c 3
 47 584 -10 641 -10 705 c 3x3e4c
 -10 770 46 826 111 826 c 3
582 778 m 0
 582 794 685 826 704 826 c 3
 756 826 797 802 828 754 c 0
 845 728 863 681 884 612 c 1
 802 715 749 766 725 766 c 3
 724 766 720 765 714 763 c 1
 793 691 869 581 869 402 c 3
 869 131 709 -20 433 -20 c 3
 200 -20 -3 122 -3 331 c 3
 -3 494 142 628 142 705 c 1
 232 705 l 1
 232 593 87 460 87 331 c 3
 87 179 245 70 433 70 c 3
 669 70 779 191 779 402 c 3
 779 570 723 627 635 717 c 0
 601 752 582 773 582 778 c 0
799 259 m 0
 701.823350001 332.761092013 558 368 439 368 c 1
 439 458 l 1
 552 458 711 426 822 353 c 0
 945 272 998 204.663085938 998 77 c 27
 998 -24.8828125 963 -81 876 -154 c 1
 901 -97 913 -42 913 10 c 3
 913 109 874.168528364 201.94398153 799 259 c 0
384 337 m 3x3e54
 384 307 409 282 439 282 c 3
 469 282 494 307 494 337 c 3
 494 367 469 392 439 392 c 3
 409 392 384 367 384 337 c 3x3e54
439 458 m 3
 504 458 560 402 560 337 c 3
 560 272 504 216 439 216 c 3
 375 216 318 273 318 337 c 3x3e4c
 318 402 374 458 439 458 c 3
EndSplineSet
Fore
SplineSet
384 337 m 3xf3e0
 384 307 409 282 439 282 c 3
 469 282 494 307 494 337 c 3
 494 367 469 392 439 392 c 3
 409 392 384 367 384 337 c 3xf3e0
56 705 m 3xfbe0
 56 675 81 650 111 650 c 3
 141 650 166 675 166 705 c 3
 166 735 141 760 111 760 c 3
 81 760 56 735 56 705 c 3xfbe0
558 357 m 1
 559 350 560 344 560 337 c 3
 560 272 504 216 439 216 c 3
 375 216 318 273 318 337 c 3
 318 402 374 458 439 458 c 3
 538 458 673 433 779 378 c 1
 779 386 779 394 779 402 c 3
 779 570 723 627 635 717 c 0
 601 752 582 773 582 778 c 3
 582 794 685 826 704 826 c 3
 756 826 797 802 828 754 c 0
 845 728 863 681 884 612 c 1
 802 715 749 766 725 766 c 3
 724 766 720 765 714 763 c 1
 793 691 869 581 869 402 c 3
 869 375 867 349 864 324 c 1
 957 255 998 189 998 77 c 3
 998 -25 963 -81 876 -154 c 1
 901 -97 913 -42 913 10 c 3
 913 89 888 165 839 221 c 1
 781 65 640 -20 433 -20 c 3
 200 -20 -3 122 -3 331 c 3xf7e0
 -3 428 48 515 90 586 c 1
 35 597 -10 648 -10 705 c 3xfbe0
 -10 770 46 826 111 826 c 3
 176 826 232 770 232 705 c 3
 232 593 87 460 87 331 c 3xf7e0
 87 179 245 70 433 70 c 3
 620 70 728 146 765 282 c 1
 704 319 631 344 558 357 c 1
EndSplineSet
EndChar

StartChar: uni1A3F
Encoding: 6719 6719 29
Width: 1375
VWidth: 2260
Flags: W
HStem: -20 90<217.324 487.023 794.161 1061.24> 760 66<61.453 160.547 563.5 652.051 1060.5 1149.05>
VStem: -10 66<655.814 754.547> -3 90<196.825 471.358> 166 66<655.745 754.547> 608 90<228.171 642.943> 1185 90<203.809 564.782>
LayerCount: 2
Back
SplineSet
675 262 m 17
 711 147 838 70 925 70 c 3
 1074 70 1185 193 1185 402 c 3
 1185 570 1089 627 1001 717 c 0
 967 752 948 773 948 778 c 0
 948 794 1051 826 1070 826 c 3
 1122 826 1163 802 1194 754 c 0
 1211 728 1229 681 1250 612 c 1
 1168 715 1115 766 1091 766 c 3
 1090 766 1086 765 1080 763 c 1
 1159 691 1275 581 1275 402 c 3
 1275 131 1116 -20 925 -20 c 3
 801 -20 638 79 589 235 c 1
 675 262 l 17
56 705 m 3x3e54
 56 675 81 650 111 650 c 3
 141 650 166 675 166 705 c 3
 166 735 141 760 111 760 c 3
 81 760 56 735 56 705 c 3x3e54
111 826 m 3
 176 826 232 770 232 705 c 3
 232 640 176 584 111 584 c 3
 47 584 -10 641 -10 705 c 3x3e4c
 -10 770 46 826 111 826 c 3
451 778 m 0
 451 794 554 826 573 826 c 3
 625 826 666 802 697 754 c 0
 714 728 732 681 753 612 c 1
 671 715 618 766 594 766 c 3
 593 766 589 765 583 763 c 1
 662 691 698 581 698 402 c 3
 698 131 539 -20 348 -20 c 3
 200 -20 -3 122 -3 331 c 3
 -3 494 142 628 142 705 c 1
 232 705 l 1
 232 593 87 460 87 331 c 3
 87 179 242 70 348 70 c 3
 500 70 608 191 608 402 c 3
 608 570 592 627 504 717 c 0
 470 752 451 773 451 778 c 0
EndSplineSet
Fore
SplineSet
56 705 m 3xee
 56 675 81 650 111 650 c 3
 141 650 166 675 166 705 c 3
 166 735 141 760 111 760 c 3
 81 760 56 735 56 705 c 3xee
90 586 m 1
 35 597 -10 648 -10 705 c 3xee
 -10 770 46 826 111 826 c 3
 176 826 232 770 232 705 c 3
 232 593 87 460 87 331 c 3
 87 179 242 70 348 70 c 3
 500 70 608 191 608 402 c 3
 608 570 592 627 504 717 c 0
 470 752 451 773 451 778 c 3
 451 794 554 826 573 826 c 3
 625 826 666 802 697 754 c 0
 714 728 732 681 753 612 c 1
 671 715 618 766 594 766 c 3
 593 766 589 765 583 763 c 1
 662 691 698 581 698 402 c 3
 698 346 691 295 679 250 c 1
 720 141 841 70 925 70 c 3
 1074 70 1185 193 1185 402 c 3
 1185 570 1089 627 1001 717 c 0
 967 752 948 773 948 778 c 3
 948 794 1051 826 1070 826 c 3
 1122 826 1163 802 1194 754 c 0
 1211 728 1229 681 1250 612 c 1
 1168 715 1115 766 1091 766 c 3
 1090 766 1086 765 1080 763 c 1
 1159 691 1275 581 1275 402 c 3
 1275 131 1116 -20 925 -20 c 3
 827 -20 705 42 634 144 c 1
 570 37 465 -20 348 -20 c 3
 200 -20 -3 122 -3 331 c 3xde
 -3 428 48 515 90 586 c 1
EndSplineSet
EndChar

StartChar: uni1A40
Encoding: 6720 6720 30
Width: 987
VWidth: 2260
Flags: W
HStem: -20 90<191.832 656.217> 584 66<113.927 213.547> 760 66<114.372 213.547> 1209 70<181.011 536.908>
VStem: 2 90<153.647 348.428> 6 103<592.557 757.751> 219 66<655.453 754.547> 801 90<223.574 790.922>
LayerCount: 2
Back
SplineSet
891 510 m 3
 891 146 787 -20 419 -20 c 3
 207 -20 2 61 2 251 c 3
 2 334 41 403 129 452 c 1
 40 491 6 542 6 643 c 3
 6 729 60 826 164 826 c 1
 164 736 l 1
 119 736 96 701 96 643 c 3
 96 594 107 554 160 539 c 0
 173 536 226 518 318 518 c 3
 339 518 353 496 353 488 c 3
 353 473 341 466 309 449 c 2
 165 369 l 2
 124 346 92 307 92 251 c 3
 92 122 259 70 419 70 c 3
 711 70 801 170 801 510 c 3
 801 950 606 1042 263 1060 c 2
 29 1072 l 1
 84 1210 189 1279 345 1279 c 3
 549 1279 785 1147 860 1024 c 1
 666 1142 498 1209 355 1209 c 3
 264 1209 187 1197 128 1132 c 1
 145 1132 l 2
 638 1132 891 1018 891 510 c 3
109 705 m 3x3e54
 109 675 134 650 164 650 c 3
 194 650 219 675 219 705 c 3
 219 735 194 760 164 760 c 3
 134 760 109 735 109 705 c 3x3e54
164 826 m 3
 229 826 285 770 285 705 c 3
 285 640 229 584 164 584 c 3
 100 584 43 641 43 705 c 3x3e4c
 43 770 99 826 164 826 c 3
EndSplineSet
Fore
SplineSet
109 705 m 3xf7
 109 675 134 650 164 650 c 3
 194 650 219 675 219 705 c 3
 219 735 194 760 164 760 c 3
 134 760 109 735 109 705 c 3xf7
164 826 m 3
 229 826 285 770 285 705 c 3
 285 640 229 584 164 584 c 3
 141 584 118 591 99 604 c 1
 105 573 122 550 160 539 c 0
 173 536 226 518 318 518 c 3
 339 518 353 496 353 488 c 3
 353 473 341 466 309 449 c 2
 165 369 l 2
 124 346 92 307 92 251 c 3
 92 122 259 70 419 70 c 3
 711 70 801 170 801 510 c 3
 801 950 606 1042 263 1060 c 2
 29 1072 l 1
 84 1210 189 1279 345 1279 c 3
 549 1279 785 1147 860 1024 c 1
 666 1142 498 1209 355 1209 c 3
 264 1209 187 1197 128 1132 c 1
 145 1132 l 2
 638 1132 891 1018 891 510 c 3
 891 146 787 -20 419 -20 c 3
 207 -20 2 61 2 251 c 3xfb
 2 334 41 403 129 452 c 1
 40 491 6 542 6 643 c 3
 6 729 60 826 164 826 c 3
EndSplineSet
EndChar

StartChar: uni1A41
Encoding: 6721 6721 31
Width: 832
VWidth: 2260
Flags: W
HStem: -20 90<183.536 546.187> 277 66<89.453 188.547> 622 50<676.457 779.181> 736 90<107.139 477.411>
VStem: 1 90<603.653 715.168> 18 66<173.987 271.547> 194 66<172.035 271.547> 638 90<149.852 348.295>
LayerCount: 2
Back
SplineSet
84 222 m 3xf7
 84 192 109 167 139 167 c 3
 169 167 194 192 194 222 c 3
 194 252 169 277 139 277 c 3
 109 277 84 252 84 222 c 3xf7
139 343 m 3
 204 343 260 287 260 222 c 3
 260 157 204 101 139 101 c 3
 75 101 18 158 18 222 c 3
 18 287 74 343 139 343 c 3
794 662 m 3
 794 648 733 622 711 622 c 3
 634 622 580 647 514 676 c 0
 417 720 323 736 237 736 c 3
 135 736 91 699 91 642 c 3
 91 604 177 583 328 557 c 0
 522 524 728 440 728 251 c 3
 728 71 544 -20 363 -20 c 3
 190 -20 18 49 18 222 c 1
 108 222 l 1
 108 111 233 70 363 70 c 3
 493 70 638 129 638 251 c 3
 638 351 527 431 313 468 c 0
 218 484 1 503 1 642 c 3
 1 755 82 826 237 826 c 3
 345 826 451 801 556 750 c 0
 663 698 732 672 763 672 c 3
 784 672 794 669 794 662 c 3
EndSplineSet
Fore
SplineSet
139 343 m 3xf7
 204 343 260 287 260 222 c 3
 260 171 226 125 180 108 c 1
 228 81 294 70 363 70 c 3
 493 70 638 129 638 251 c 3
 638 351 527 431 313 468 c 0
 218 484 1 503 1 642 c 3
 1 755 82 826 237 826 c 3
 345 826 451 801 556 750 c 0
 663 698 732 672 763 672 c 3
 784 672 794 669 794 662 c 3
 794 648 733 622 711 622 c 3
 634 622 580 647 514 676 c 0
 417 720 323 736 237 736 c 3
 135 736 91 699 91 642 c 3xfb
 91 604 177 583 328 557 c 0
 522 524 728 440 728 251 c 3
 728 71 544 -20 363 -20 c 3
 190 -20 18 49 18 222 c 3
 18 287 74 343 139 343 c 3xf7
84 222 m 3xf7
 84 192 109 167 139 167 c 3
 169 167 194 192 194 222 c 3
 194 252 169 277 139 277 c 3
 109 277 84 252 84 222 c 3xf7
EndSplineSet
EndChar

StartChar: uni1A43
Encoding: 6723 6723 32
Width: 1255
VWidth: 2260
Flags: W
HStem: -20 90<668.549 980.196> -20 66<195.255 293.547> 156 66<194.271 293.547> 736 90<236.39 492.351 975.046 1071.24>
VStem: 16 90<196.624 599.266> 299 66<51.453 150.547> 499 90<142.59 313.4> 568 90<340.783 654.626> 1092 90<187.275 511.607>
LayerCount: 2
Back
SplineSet
189 101 m 3x7e40
 189 71 214 46 244 46 c 3
 274 46 299 71 299 101 c 3
 299 131 274 156 244 156 c 3
 214 156 189 131 189 101 c 3x7e40
244 222 m 3
 309 222 365 166 365 101 c 3
 365 36 309 -20 244 -20 c 3xbe40
 180 -20 123 37 123 101 c 3
 123 166 179 222 244 222 c 3
838 70 m 3
 988 70 1092 192 1092 355 c 3
 1092 472 1025 581 884 667 c 1
 907 773 950 826 1011 826 c 3
 1041 826 1075 788 1112 713 c 0
 1125 686 1148 633 1180 554 c 1
 1102 654 l 2
 1066 700 1040 736 1011 736 c 3
 1000 736 974 731 974 714 c 3
 974 697 1020 669 1031 658 c 0
 1106 583 1182 467 1182 355 c 3
 1182 154 1050 -20 838 -20 c 3
 654 -20 499 78 499 242 c 3xbf
 499 307 511 330 536 355 c 0
 565 384 568 432 568 502 c 3
 568 632 495 736 371 736 c 3
 215 736 106 589 106 445 c 3
 106 260 184 70 244 70 c 1
 244 -20 l 1
 91 -20 16 260 16 445 c 3
 16 647 168 826 371 826 c 3
 554 826 658 675 658 502 c 3xbec0
 658 378 643 333 598 290 c 0
 590 282 589 261 589 242 c 3xbf
 589 136 701 70 838 70 c 3
EndSplineSet
Fore
SplineSet
244 222 m 3xbd80
 309 222 365 166 365 101 c 3
 365 36 309 -20 244 -20 c 3
 91 -20 16 260 16 445 c 3
 16 647 168 826 371 826 c 3
 554 826 658 675 658 502 c 3x7d80
 658 378 643 333 598 290 c 0
 590 282 589 261 589 242 c 3
 589 136 701 70 838 70 c 3
 988 70 1092 192 1092 355 c 3
 1092 472 1025 581 884 667 c 1
 907 773 950 826 1011 826 c 3
 1041 826 1075 788 1112 713 c 0
 1125 686 1148 633 1180 554 c 1
 1102 654 l 2
 1066 700 1040 736 1011 736 c 3
 1000 736 974 731 974 714 c 3
 974 697 1020 669 1031 658 c 0
 1106 583 1182 467 1182 355 c 3
 1182 154 1050 -20 838 -20 c 3
 654 -20 499 78 499 242 c 3xbe80
 499 307 511 330 536 355 c 0
 565 384 568 432 568 502 c 3
 568 632 495 736 371 736 c 3
 215 736 106 589 106 445 c 3
 106 350 127 253 155 182 c 1
 177 207 209 222 244 222 c 3xbd80
189 101 m 3
 189 71 214 46 244 46 c 3
 274 46 299 71 299 101 c 3
 299 131 274 156 244 156 c 3
 214 156 189 131 189 101 c 3
EndSplineSet
EndChar

StartChar: uni1A45
Encoding: 6725 6725 33
Width: 985
VWidth: 2260
Flags: W
HStem: -20 90<294.014 627.986> 736 90<294.014 627.986>
VStem: 34 90<237.908 568.092> 798 90<237.908 568.092>
LayerCount: 2
Fore
SplineSet
124 403 m 3
 124 219 275 70 461 70 c 3
 647 70 798 219 798 403 c 3
 798 587 647 736 461 736 c 3
 275 736 124 587 124 403 c 3
34 403 m 3
 34 636 225 826 461 826 c 3
 697 826 888 636 888 403 c 3
 888 170 697 -20 461 -20 c 3
 225 -20 34 170 34 403 c 3
EndSplineSet
EndChar

StartChar: uni1A48
Encoding: 6728 6728 34
Width: 977
VWidth: 2260
Flags: W
HStem: -20 90<350.318 677.098> -20 66<51.6678 141.398> 156 66<51.453 146.32> 584 66<66.6678 146.559> 760 66<66.453 165.547 645.5 741.458>
VStem: -20 66<51.6678 150.547> -5 66<655.668 754.547> 147 90<217 588> 171 66<654.917 754.011> 797 90<192.794 541.182>
LayerCount: 2
Back
SplineSet
61 705 m 3x3e54
 61 675 86 650 116 650 c 3
 146 650 171 675 171 705 c 3
 171 735 146 760 116 760 c 3
 86 760 61 735 61 705 c 3x3e54
116 826 m 3
 181 826 237 770 237 705 c 3
 237 640 181 584 116 584 c 3
 52 584 -5 641 -5 705 c 3x3e4c
 -5 770 51 826 116 826 c 3
101 -20 m 3
 37 -20 -20 37 -20 101 c 3x3e4c
 -20 166 36 222 101 222 c 3
 149 222 184 208 215 191 c 0
 309 138 404 70 524 70 c 3
 673 70 797 176 797 349 c 3
 797 521 711 653 544 770 c 1
 587 807 627 826 664 826 c 3
 683 826 727 804 796 762 c 128
 865 720 905 690 915 673 c 1
 898 673 863 687 808 714 c 128
 753 741 715 754 693 754 c 3
 692 754 689 753 684 752 c 1
 819 653 887 527 887 349 c 3
 887 141 736 -20 524 -20 c 3
 369 -20 278 53 177 125 c 0
 153 142 127 156 101 156 c 3
 71 156 46 131 46 101 c 3x3e54
 46 71 71 46 101 46 c 3
 131 46 147 72 147 112 c 2
 147 705 l 1
 237 705 l 1
 237 142 l 2
 237 33 165 -20 101 -20 c 3
EndSplineSet
Fore
SplineSet
61 705 m 3x3ac0
 61 675 86 650 116 650 c 3
 146 650 171 675 171 705 c 3
 171 735 146 760 116 760 c 3
 86 760 61 735 61 705 c 3x3ac0
147 143 m 1x7d40
 132 151 116 156 101 156 c 3
 71 156 46 131 46 101 c 3
 46 71 71 46 101 46 c 3
 131 46 147 72 147 112 c 2
 147 143 l 1x7d40
147 217 m 1
 147 588 l 1x7d40
 137 585 127 584 116 584 c 3
 52 584 -5 641 -5 705 c 3
 -5 770 51 826 116 826 c 3
 181 826 237 770 237 705 c 2
 237 178 l 1
 324 127 413 70 524 70 c 3
 673 70 797 176 797 349 c 3
 797 521 711 653 544 770 c 1
 587 807 627 826 664 826 c 3
 683 826 727 804 796 762 c 0
 865 720 905 690 915 673 c 1
 898 673 863 687 808 714 c 0
 753 741 715 754 693 754 c 3
 692 754 689 753 684 752 c 1
 819 653 887 527 887 349 c 3
 887 141 736 -20 524 -20 c 3xbac0
 396 -20 312 29 230 87 c 1
 211 15 153 -20 101 -20 c 3
 37 -20 -20 37 -20 101 c 3
 -20 166 36 222 101 222 c 3
 118 222 133 220 147 217 c 1
EndSplineSet
EndChar

StartChar: uni1A49
Encoding: 6729 6729 35
Width: 1237
VWidth: 2260
Flags: W
HStem: -20 90<156.705 475.095 931.348 1024.87> 584 66<96.2444 150.93> 736 90<654.356 957.058> 760 66<94.453 193.547>
VStem: 6 90<127.518 363.907> 23 66<656.162 754.547> 199 66<655.537 754.547> 478 90<300.746 651.854> 536 90<126.355 408.135> 1058 90<297.19 635.51>
LayerCount: 2
Back
SplineSet
89 705 m 3x3e54
 89 675 114 650 144 650 c 3
 174 650 199 675 199 705 c 3
 199 735 174 760 144 760 c 3
 114 760 89 735 89 705 c 3x3e54
144 826 m 3
 209 826 265 770 265 705 c 3
 265 640 209 584 144 584 c 3
 80 584 23 641 23 705 c 3x3e4c
 23 770 79 826 144 826 c 3
316 -20 m 3
 150 -20 6 69 6 218 c 3
 6 405 175 520 175 705 c 1
 265 705 l 1
 265 489 96 374 96 218 c 3
 96 128 192 70 316 70 c 3
 434 70 536 129 536 218 c 3
 536 267 478 411 478 508 c 3
 478 711 614 826 813 826 c 3
 1017 826 1148 664 1148 508 c 3
 1148 299 1075 177 930 82 c 1
 935 72 944 66 957 66 c 3
 987 66 1043 105 1124 182 c 1
 1055 47 1000 -20 958 -20 c 3
 877 -20 824 38 824 119 c 1
 990 215 1058 316 1058 508 c 3
 1058 609 971 736 813 736 c 3
 671 736 568 664 568 508 c 3
 568 425 626 290 626 218 c 3
 626 76 486 -20 316 -20 c 3
EndSplineSet
Fore
SplineSet
89 705 m 3xd640
 89 675 114 650 144 650 c 3
 174 650 199 675 199 705 c 3
 199 735 174 760 144 760 c 3
 114 760 89 735 89 705 c 3xd640
151 584 m 1
 82 584 23 637 23 705 c 3xe640
 23 770 79 826 144 826 c 3
 209 826 265 770 265 705 c 3
 265 489 96 374 96 218 c 3
 96 128 192 70 316 70 c 3
 434 70 536 129 536 218 c 3xdac0
 536 267 478 411 478 508 c 3
 478 711 614 826 813 826 c 3
 1017 826 1148 664 1148 508 c 3
 1148 299 1075 177 930 82 c 1
 935 72 944 66 957 66 c 3
 987 66 1043 105 1124 182 c 1
 1055 47 1000 -20 958 -20 c 3
 877 -20 824 38 824 119 c 1
 990 215 1058 316 1058 508 c 3
 1058 609 971 736 813 736 c 3
 671 736 568 664 568 508 c 3xe340
 568 425 626 290 626 218 c 3
 626 76 486 -20 316 -20 c 3
 150 -20 6 69 6 218 c 3xeac0
 6 361 105 462 151 584 c 1
EndSplineSet
EndChar

StartChar: uni1A4A
Encoding: 6730 6730 36
Width: 965
VWidth: 2260
Flags: W
HStem: -20 90<202.381 666.52> 231 66<707.453 806.547> 400 90<170.116 722.214> 608 70<647.718 860.069> 736 90<146.785 453.442>
VStem: 0 90<154.065 329.708> 47 93<640.508 716.946> 636 66<125.9 225.547> 812 66<128.671 225.547>
LayerCount: 2
Back
SplineSet
702 176 m 3x3e54
 702 146 727 121 757 121 c 3
 787 121 812 146 812 176 c 3
 812 206 787 231 757 231 c 3
 727 231 702 206 702 176 c 3x3e54
757 297 m 3
 822 297 878 241 878 176 c 3
 878 111 822 55 757 55 c 3
 693 55 636 112 636 176 c 3x3e4c
 636 241 692 297 757 297 c 3
47 668 m 3
 47 770 168 826 274 826 c 3
 414 826 648 678 826 678 c 3
 847 678 868 680 889 683 c 1
 883 630 857 608 812 608 c 3
 650 608 390 736 274 736 c 3
 227 736 140 713 140 673 c 3
 140 642 230 617 410 604 c 0
 678 585 844 577 844 409 c 3
 844 381 840 358 832 344 c 1
 700 376 544 400 398 400 c 3
 248 400 90 360 90 237 c 3
 90 121 296 70 434 70 c 3
 555 70 788 87 788 176 c 1
 878 176 l 1
 878 4 600 -20 434 -20 c 3
 236 -20 0 59 0 237 c 3
 0 392 144 490 398 490 c 3
 491 490 601 480 728 459 c 1
 703 497 511 506 402 514 c 0
 228 526 47 552 47 668 c 3
EndSplineSet
Fore
SplineSet
702 176 m 3xf980
 702 146 727 121 757 121 c 3
 787 121 812 146 812 176 c 3
 812 206 787 231 757 231 c 3
 727 231 702 206 702 176 c 3xf980
671 93 m 1
 650 115 636 145 636 176 c 3
 636 241 692 297 757 297 c 3
 822 297 878 241 878 176 c 3
 878 4 600 -20 434 -20 c 3
 236 -20 0 59 0 237 c 3xfd80
 0 392 144 490 398 490 c 3
 491 490 601 480 728 459 c 1
 703 497 511 506 402 514 c 0
 228 526 47 552 47 668 c 3
 47 770 168 826 274 826 c 3
 414 826 648 678 826 678 c 3
 847 678 868 680 889 683 c 1
 883 630 857 608 812 608 c 3
 650 608 390 736 274 736 c 3
 227 736 140 713 140 673 c 3xfb80
 140 642 230 617 410 604 c 0
 678 585 844 577 844 409 c 3
 844 381 840 358 832 344 c 1
 700 376 544 400 398 400 c 3
 248 400 90 360 90 237 c 3xfd80
 90 121 296 70 434 70 c 3
 499 70 595 75 671 93 c 1
EndSplineSet
EndChar

StartChar: uni1A4B
Encoding: 6731 6731 37
Width: 1053
VWidth: 2260
Flags: W
HStem: -20 66<670.668 787.368> 156 66<670.453 776.512> 736 90<351.209 732.433> 760 66<68.453 167.406>
VStem: -3 66<655.836 754.547> 6 90<188.757 383.684> 599 66<51.6678 150.547> 804 56<-42.2551 -1> 902 90<186.947 561.778>
LayerCount: 2
Back
SplineSet
720 46 m 3
 814 46 902 240 902 385 c 3
 902 605 748 736 549 736 c 259
 364 736 185 632 185 435 c 3
 185 295 236 157 463 68 c 1
 413 9 368 -20 327 -20 c 3
 149 -20 6 138 6 361 c 3
 6 539 149 627 149 705 c 1
 239 705 l 17
 239 589 96 501 96 361 c 3
 96 229 162 114 280 69 c 1
 172 129 95 259 95 435 c 3
 95 678 305 826 549 826 c 3
 793 826 992 660 992 385 c 3
 992 256 912 -20 720 -20 c 3
 656 -20 599 37 599 101 c 3x3e4c
 599 166 655 222 720 222 c 3
 856 222 860 55 860 38 c 0
 860 -14 830 -104 802 -124 c 1
 804 -102 804 -63 804 -36 c 0
 804 39 800 156 720 156 c 3
 690 156 665 131 665 101 c 3x3e54
 665 71 690 46 720 46 c 3
63 705 m 3x3e54
 63 675 88 650 118 650 c 3
 148 650 173 675 173 705 c 3
 173 735 148 760 118 760 c 3
 88 760 63 735 63 705 c 3x3e54
118 826 m 3
 183 826 239 770 239 705 c 3
 239 640 183 584 118 584 c 3
 54 584 -3 641 -3 705 c 3x3e4c
 -3 770 53 826 118 826 c 3
EndSplineSet
Fore
SplineSet
63 705 m 3xdb80
 63 675 88 650 118 650 c 3
 148 650 173 675 173 705 c 3
 173 735 148 760 118 760 c 3
 88 760 63 735 63 705 c 3xdb80
89 588 m 1
 38 602 -3 651 -3 705 c 3
 -3 770 53 826 118 826 c 3xdb80
 176 826 226 782 237 727 c 1
 319 791 430 826 549 826 c 3
 793 826 992 660 992 385 c 3
 992 294 952 129 860 40 c 1
 860 -13 831 -104 802 -124 c 1
 804 -102 804 -63 804 -36 c 2
 804 -1 l 1
 779 -13 751 -20 720 -20 c 3
 656 -20 599 37 599 101 c 3
 599 166 655 222 720 222 c 3
 784 222 818 186 837 145 c 1
 876 214 902 306 902 385 c 3
 902 605 748 736 549 736 c 3
 364 736 185 632 185 435 c 3
 185 295 236 157 463 68 c 1
 413 9 368 -20 327 -20 c 3
 149 -20 6 138 6 361 c 3xe780
 6 460 50 531 89 588 c 1
793 84 m 1
 782 125 762 156 720 156 c 3
 690 156 665 131 665 101 c 3
 665 71 690 46 720 46 c 3
 745 46 770 60 793 84 c 1
97 384 m 1
 96 377 96 369 96 361 c 3xc780
 96 229 162 114 280 69 c 1
 183 123 110 234 97 384 c 1
EndSplineSet
EndChar

StartChar: uni1A4C
Encoding: 6732 6732 38
Width: 934
VWidth: 2260
Flags: W
HStem: -20 90<299.888 605.527> 283 66<204.453 303.547> 497 90<95.0705 531.894> 611 90<526.646 759.782> 736 90<124.226 412.74>
VStem: 5 90<526 705.271> 133 66<178.662 277.547> 309 66<178.51 277.547> 673 90<136.345 386.969> 930 7<904 1043.64>
LayerCount: 2
Back
SplineSet
199 228 m 3x3e54
 199 198 224 173 254 173 c 3
 284 173 309 198 309 228 c 3
 309 258 284 283 254 283 c 3
 224 283 199 258 199 228 c 3x3e54
254 349 m 3
 319 349 375 293 375 228 c 3
 375 163 319 107 254 107 c 3
 190 107 133 164 133 228 c 3x3e4c
 133 293 189 349 254 349 c 3
645 701 m 3
 790 701 902 904 930 1045 c 1
 935 1016 937 982 937 945 c 0
 937 792 797 611 645 611 c 3
 558 611 370 736 242 736 c 3
 152 736 95 688 95 609 c 3
 95 588 192 587 234 587 c 3
 507 587 763 527 763 270 c 3
 763 78 637 -20 447 -20 c 3
 311 -20 133 73 133 228 c 1
 223 228 l 1
 223 143 340 70 447 70 c 3
 591 70 673 134 673 270 c 3
 673 453 461 497 234 497 c 3
 197 497 85 494 53 494 c 3
 21 494 5 510 5 542 c 3
 5 733 78 826 242 826 c 3
 398 826 588 701 645 701 c 3
EndSplineSet
Fore
SplineSet
254 349 m 3
 319 349 375 293 375 228 c 3
 375 178 342 133 297 115 c 1
 339 87 395 70 447 70 c 3
 591 70 673 134 673 270 c 3
 673 453 461 497 234 497 c 3
 197 497 85 494 53 494 c 3
 21 494 5 510 5 542 c 3
 5 733 78 826 242 826 c 3
 398 826 588 701 645 701 c 3
 790 701 902 904 930 1045 c 1
 935 1016 937 982 937 945 c 0
 937 792 797 611 645 611 c 3
 558 611 370 736 242 736 c 3
 152 736 95 688 95 609 c 3
 95 588 192 587 234 587 c 3
 507 587 763 527 763 270 c 3
 763 78 637 -20 447 -20 c 3
 311 -20 133 73 133 228 c 3
 133 293 189 349 254 349 c 3
199 228 m 3
 199 198 224 173 254 173 c 3
 284 173 309 198 309 228 c 3
 309 258 284 283 254 283 c 3
 224 283 199 258 199 228 c 3
EndSplineSet
EndChar

StartChar: uni1A61
Encoding: 6753 6753 39
Width: 445
VWidth: 2260
Flags: HW
LayerCount: 2
Back
SplineSet
318 470 m 0
 285.333333333 438.666666667 245.666666667 423 199 423 c 0
 153 423 113.333333333 436.333333333 80 463 c 0
 43.3333333333 491.666666667 25 528.333333333 25 573 c 0
 25 617.666666667 42.3333333333 654 77 682 c 0
 109.666666667 707.333333333 149 720 195 720 c 0
 245.666666667 720 286.666666667 707 318 681 c 128
 349.333333333 655 365 620 365 576 c 0
 365 535.333333333 349.333333333 500 318 470 c 0
318 85 m 0
 285.333333333 53.6666666667 245.666666667 38 199 38 c 0
 153 38 113.333333333 51.3333333333 80 78 c 0
 43.3333333333 106.666666667 25 143.333333333 25 188 c 0
 25 232.666666667 42.3333333333 269 77 297 c 0
 109.666666667 322.333333333 149 335 195 335 c 0
 245.666666667 335 286.666666667 322 318 296 c 128
 349.333333333 270 365 235 365 191 c 0
 365 150.333333333 349.333333333 115 318 85 c 0
192 653 m 0
 128 653 96 627 96 575 c 0
 96 522.333333333 130 495.666666667 198 495 c 0
 258.666666667 495 289 521.666666667 289 575 c 0
 289 627 256.666666667 653 192 653 c 0
192 266 m 0
 129.333333333 266 98.3333333333 240.666666667 99 190 c 0
 99 138.666666667 132 113 198 113 c 0
 257.333333333 113 287 138.666666667 287 190 c 0
 287 240.666666667 255.333333333 266 192 266 c 0
EndSplineSet
Fore
SplineSet
318 470 m 0
 285.333333333 438.666666667 245.666666667 423 199 423 c 0
 153 423 113.333333333 436.333333333 80 463 c 0
 43.3333333333 491.666666667 25 528.333333333 25 573 c 0
 25 617.666666667 42.3333333333 654 77 682 c 0
 109.666666667 707.333333333 149 720 195 720 c 0
 245.666666667 720 286.666666667 707 318 681 c 128
 349.333333333 655 365 620 365 576 c 0
 365 535.333333333 349.333333333 500 318 470 c 0
318 85 m 0
 285.333333333 53.6666666667 245.666666667 38 199 38 c 0
 153 38 113.333333333 51.3333333333 80 78 c 0
 43.3333333333 106.666666667 25 143.333333333 25 188 c 0
 25 232.666666667 42.3333333333 269 77 297 c 0
 109.666666667 322.333333333 149 335 195 335 c 0
 245.666666667 335 286.666666667 322 318 296 c 128
 349.333333333 270 365 235 365 191 c 0
 365 150.333333333 349.333333333 115 318 85 c 0
192 653 m 0
 128 653 96 627 96 575 c 0
 96 522.333333333 130 495.666666667 198 495 c 0
 258.666666667 495 289 521.666666667 289 575 c 0
 289 627 256.666666667 653 192 653 c 0
192 266 m 0
 129.333333333 266 98.3333333333 240.666666667 99 190 c 0
 99 138.666666667 132 113 198 113 c 0
 257.333333333 113 287 138.666666667 287 190 c 0
 287 240.666666667 255.333333333 266 192 266 c 0
EndSplineSet
EndChar

StartChar: uni1A62
Encoding: 6754 6754 40
Width: 0
VWidth: 2260
Flags: HW
LayerCount: 2
Back
SplineSet
-9 1251 m 1
 -795 969 l 1
 -809 1023 l 1
 -39 1336 l 1
 -24 1286 l 2
 -20 1274 -15 1262.33333333 -9 1251 c 1
EndSplineSet
Fore
SplineSet
-9 1251 m 1
 -795 969 l 1
 -809 1023 l 1
 -39 1336 l 1
 -24 1286 l 2
 -20 1274 -15 1262.33333333 -9 1251 c 1
EndSplineSet
EndChar

StartChar: uni1A63
Encoding: 6755 6755 41
Width: 683
VWidth: 2260
Flags: HW
LayerCount: 2
Back
SplineSet
228 85 m 1
 230 82.3333333333 233.333333333 81 238 81 c 0
 258.666666667 81 292 89 338 105 c 0
 342.666666667 106.333333333 383 121.666666667 459 151 c 1
 421.666666667 114.333333333 372 79.6666666667 310 47 c 0
 244.666666667 13 193 -4 155 -4 c 0
 149 -4 141 -1.33333333333 131 4 c 0
 119.666666667 10.6666666667 114 17.6666666667 114 25 c 0
 114 80.3333333333 156.333333333 124.666666667 241 158 c 0
 435 235.333333333 532 353.333333333 532 512 c 0
 532 584.666666667 507.333333333 641.333333333 458 682 c 0
 412 720 350 739 272 739 c 0
 220 739 174.666666667 727 136 703 c 0
 92 675.666666667 69.6666666667 638 69 590 c 1
 78.3333333333 580 83.3333333333 568 84 554 c 0
 84 514.666666667 69.3333333333 495 40 495 c 0
 13.3333333333 495 -1.7763568394e-15 525.666666667 -0 587 c 0
 0 653.666666667 27.6666666667 711 83 759 c 0
 135.666666667 804.333333333 196 827 264 827 c 0
 361.333333333 827 443.333333333 800 510 746 c 0
 580.666666667 688.666666667 615 614 613 522 c 0
 611 389.333333333 572 294.666666667 496 238 c 1
 362 161 362 161 228 85 c 1
131 436 m 0
 97 436 67.5 448.333333333 42.5 473 c 128
 17.5 497.666666667 5 527 5 561 c 0
 5 595 17.3333333333 624.333333333 42 649 c 128
 66.6666666667 673.666666667 96.3333333333 686 131 686 c 0
 165 686 194.333333333 673.666666667 219 649 c 128
 243.666666667 624.333333333 256 595 256 561 c 0
 256 527 243.666666667 497.666666667 219 473 c 128
 194.333333333 448.333333333 165 436 131 436 c 0
133 603 m 256
 103.666666667 603 89 588 89 558 c 0
 89 528 103.666666667 513 133 513 c 256
 162.333333333 513 177 528 177 558 c 0
 177 588 162.333333333 603 133 603 c 256
EndSplineSet
Fore
SplineSet
228 85 m 1
 230 82.3333333333 233.333333333 81 238 81 c 0
 258.666666667 81 292 89 338 105 c 0
 342.666666667 106.333333333 383 121.666666667 459 151 c 1
 421.666666667 114.333333333 372 79.6666666667 310 47 c 0
 244.666666667 13 193 -4 155 -4 c 0
 149 -4 141 -1.33333333333 131 4 c 0
 119.666666667 10.6666666667 114 17.6666666667 114 25 c 0
 114 80.3333333333 156.333333333 124.666666667 241 158 c 0
 435 235.333333333 532 353.333333333 532 512 c 0
 532 584.666666667 507.333333333 641.333333333 458 682 c 0
 412 720 350 739 272 739 c 0
 220 739 174.666666667 727 136 703 c 0
 92 675.666666667 69.6666666667 638 69 590 c 1
 78.3333333333 580 83.3333333333 568 84 554 c 0
 84 514.666666667 69.3333333333 495 40 495 c 0
 13.3333333333 495 -1.7763568394e-15 525.666666667 -0 587 c 0
 0 653.666666667 27.6666666667 711 83 759 c 0
 135.666666667 804.333333333 196 827 264 827 c 0
 361.333333333 827 443.333333333 800 510 746 c 0
 580.666666667 688.666666667 615 614 613 522 c 0
 611 389.333333333 572 294.666666667 496 238 c 1
 362 161 362 161 228 85 c 1
131 436 m 0
 97 436 67.5 448.333333333 42.5 473 c 128
 17.5 497.666666667 5 527 5 561 c 0
 5 595 17.3333333333 624.333333333 42 649 c 128
 66.6666666667 673.666666667 96.3333333333 686 131 686 c 0
 165 686 194.333333333 673.666666667 219 649 c 128
 243.666666667 624.333333333 256 595 256 561 c 0
 256 527 243.666666667 497.666666667 219 473 c 128
 194.333333333 448.333333333 165 436 131 436 c 0
133 603 m 256
 103.666666667 603 89 588 89 558 c 0
 89 528 103.666666667 513 133 513 c 256
 162.333333333 513 177 528 177 558 c 0
 177 588 162.333333333 603 133 603 c 256
EndSplineSet
EndChar

StartChar: uni1A65
Encoding: 6757 6757 42
Width: 0
VWidth: 2260
Flags: HW
LayerCount: 2
Back
SplineSet
-465 952 m 1
 -486.333333333 948.666666667 -507.333333333 947 -528 947 c 0
 -598 947 -656 962.666666667 -702 994 c 0
 -752.666666667 1028.66666667 -778 1075.66666667 -778 1135 c 0
 -778 1203.66666667 -748 1259.33333333 -688 1302 c 0
 -630 1343.33333333 -558.666666667 1363.33333333 -474 1362 c 0
 -392.666666667 1360.66666667 -326.333333333 1343.66666667 -275 1311 c 0
 -215 1273 -183.666666667 1217.66666667 -181 1145 c 0
 -179 1087 -196.666666667 1039 -234 1001 c 0
 -267.333333333 967 -304.666666667 950 -346 950 c 0
 -385.333333333 950 -411.333333333 966.333333333 -424 999 c 0
 -424.666666667 1001 -425 1003.33333333 -425 1006 c 0
 -425 1028.66666667 -412.333333333 1040 -387 1040 c 0
 -379 1040 -370.333333333 1037.66666667 -361 1033 c 1
 -355 1031.66666667 -349 1031 -343 1031 c 0
 -321 1031 -302.333333333 1041 -287 1061 c 128
 -271.666666667 1081 -264 1104.66666667 -264 1132 c 0
 -264 1172 -279.666666667 1205 -311 1231 c 0
 -349 1262.33333333 -404 1278 -476 1278 c 0
 -546 1278 -601 1263.66666667 -641 1235 c 0
 -675.666666667 1210.33333333 -693 1180 -693 1144 c 0
 -693 1110 -678 1080.66666667 -648 1056 c 0
 -616 1030 -574 1016.66666667 -522 1016 c 0
 -503.333333333 1016 -484 1018 -464 1022 c 1
 -465 952 l 1
EndSplineSet
Fore
SplineSet
-465 952 m 1
 -486.333333333 948.666666667 -507.333333333 947 -528 947 c 0
 -598 947 -656 962.666666667 -702 994 c 0
 -752.666666667 1028.66666667 -778 1075.66666667 -778 1135 c 0
 -778 1203.66666667 -748 1259.33333333 -688 1302 c 0
 -630 1343.33333333 -558.666666667 1363.33333333 -474 1362 c 0
 -392.666666667 1360.66666667 -326.333333333 1343.66666667 -275 1311 c 0
 -215 1273 -183.666666667 1217.66666667 -181 1145 c 0
 -179 1087 -196.666666667 1039 -234 1001 c 0
 -267.333333333 967 -304.666666667 950 -346 950 c 0
 -385.333333333 950 -411.333333333 966.333333333 -424 999 c 0
 -424.666666667 1001 -425 1003.33333333 -425 1006 c 0
 -425 1028.66666667 -412.333333333 1040 -387 1040 c 0
 -379 1040 -370.333333333 1037.66666667 -361 1033 c 1
 -355 1031.66666667 -349 1031 -343 1031 c 0
 -321 1031 -302.333333333 1041 -287 1061 c 128
 -271.666666667 1081 -264 1104.66666667 -264 1132 c 0
 -264 1172 -279.666666667 1205 -311 1231 c 0
 -349 1262.33333333 -404 1278 -476 1278 c 0
 -546 1278 -601 1263.66666667 -641 1235 c 0
 -675.666666667 1210.33333333 -693 1180 -693 1144 c 0
 -693 1110 -678 1080.66666667 -648 1056 c 0
 -616 1030 -574 1016.66666667 -522 1016 c 0
 -503.333333333 1016 -484 1018 -464 1022 c 1
 -465 952 l 1
EndSplineSet
EndChar

StartChar: uni1A66
Encoding: 6758 6758 43
Width: 0
VWidth: 2260
Flags: W
HStem: 940 70<-529.279 -438.487> 982 53<-257.061 -205.484>
VStem: -918 91<1043.75 1209.21> -406 76<1076.47 1188.13>
LayerCount: 2
Back
SplineSet
-735 950 m 1
 -783.666666667 951.333333333 -825.666666667 966.333333333 -861 995 c 0
 -899 1025.66666667 -918 1063.33333333 -918 1108 c 0
 -918 1184.66666667 -888.333333333 1246.33333333 -829 1293 c 0
 -773.666666667 1336.33333333 -705 1357.66666667 -623 1357 c 0
 -545.666666667 1357 -477.666666667 1332.33333333 -419 1283 c 0
 -359 1231.66666667 -329.333333333 1168.66666667 -330 1094 c 0
 -330 1050.66666667 -346.166666667 1014.16666667 -378.5 984.5 c 128
 -410.833333333 954.833333333 -449.666666667 940 -495 940 c 0
 -521 940 -547.333333333 949.666666667 -574 969 c 0
 -601.333333333 989.666666667 -616.333333333 1013.66666667 -619 1041 c 1
 -623.666666667 1080.33333333 -609.666666667 1105.33333333 -577 1116 c 0
 -575 1116.66666667 -572.333333333 1117 -569 1117 c 0
 -552.333333333 1117 -520.666666667 1111.66666667 -474 1101 c 0
 -429.333333333 1091 -406.333333333 1084.66666667 -405 1082 c 1
 -532 1055 l 1
 -529.333333333 1055 -528.333333333 1054.66666667 -529 1054 c 0
 -535 1047.33333333 -537.666666667 1043 -537 1041 c 0
 -537 1033 -528.333333333 1022.66666667 -511 1010 c 1
 -483 1008.66666667 -458.5 1017 -437.5 1035 c 128
 -416.5 1053 -406 1075.66666667 -406 1103 c 0
 -406 1145 -431.333333333 1184.66666667 -482 1222 c 0
 -531.333333333 1258.66666667 -579 1275.66666667 -625 1273 c 0
 -673.666666667 1270.33333333 -718 1255.66666667 -758 1229 c 0
 -804 1198.33333333 -827 1161.66666667 -827 1119 c 0
 -827 1080.33333333 -812 1055 -782 1043 c 0
 -754 1033 -754 1033 -726 1023 c 1
 -735 950 l 1
-541 1116 m 1
 -196 1035 l 1
 -209 982 l 1
 -551 1047 l 1
 -541 1116 l 1
EndSplineSet
Fore
SplineSet
-735 950 m 1x70
 -783.666666667 951.333333333 -825.666666667 966.333333333 -861 995 c 0
 -899 1025.66666667 -918 1063.33333333 -918 1108 c 0
 -918 1184.66666667 -888.333333333 1246.33333333 -829 1293 c 0
 -773.666666667 1336.33333333 -705 1357.66666667 -623 1357 c 0
 -545.666666667 1357 -477.666666667 1332.33333333 -419 1283 c 0
 -359 1231.66666667 -329.333333333 1168.66666667 -330 1094 c 0
 -330 1050.66666667 -346.166666667 1014.16666667 -378.5 984.5 c 0
 -410.833333333 954.833333333 -449.666666667 940 -495 940 c 0
 -521 940 -547.333333333 949.666666667 -574 969 c 0
 -601.333333333 989.666666667 -616.333333333 1013.66666667 -619 1041 c 1
 -623.666666667 1080.33333333 -609.666666667 1105.33333333 -577 1116 c 0
 -575 1116.66666667 -572.333333333 1117 -569 1117 c 0
 -552.333333333 1117 -520.666666667 1111.66666667 -474 1101 c 0
 -429.333333333 1091 -406.333333333 1084.66666667 -405 1082 c 1
 -532 1055 l 1
 -529.333333333 1055 -528.333333333 1054.66666667 -529 1054 c 0
 -535 1047.33333333 -537.666666667 1043 -537 1041 c 0
 -537 1033 -528.333333333 1022.66666667 -511 1010 c 1xb0
 -483 1008.66666667 -458.5 1017 -437.5 1035 c 0
 -416.5 1053 -406 1075.66666667 -406 1103 c 0
 -406 1145 -431.333333333 1184.66666667 -482 1222 c 0
 -531.333333333 1258.66666667 -579 1275.66666667 -625 1273 c 0
 -673.666666667 1270.33333333 -718 1255.66666667 -758 1229 c 0
 -804 1198.33333333 -827 1161.66666667 -827 1119 c 0
 -827 1080.33333333 -812 1055 -782 1043 c 0
 -754 1033 -754 1033 -726 1023 c 1
 -735 950 l 1x70
-541 1116 m 1
 -196 1035 l 1
 -209 982 l 1x70
 -551 1047 l 1
 -541 1116 l 1
EndSplineSet
EndChar

StartChar: uni1A67
Encoding: 6759 6759 44
Width: 0
VWidth: 2260
Flags: HW
LayerCount: 2
Back
SplineSet
-569 955 m 1
 -616.333333333 956.333333333 -657.333333333 970.333333333 -692 997 c 0
 -730 1026.33333333 -749.666666667 1065 -751 1113 c 0
 -753.666666667 1190.33333333 -724 1252.33333333 -662 1299 c 0
 -606 1341 -537.333333333 1362 -456 1362 c 0
 -374 1362 -306 1345.33333333 -252 1312 c 0
 -188.666666667 1273.33333333 -156 1217.66666667 -154 1145 c 0
 -152 1087.66666667 -170 1041 -208 1005 c 0
 -240.666666667 973.666666667 -278 958 -320 958 c 0
 -358.666666667 958 -384.333333333 971.666666667 -397 999 c 1
 -397.666666667 1001 -398 1003.33333333 -398 1006 c 0
 -398 1032.66666667 -385 1046 -359 1046 c 0
 -351.666666667 1046 -343.666666667 1044 -335 1040 c 1
 -329 1038.66666667 -323 1038 -317 1038 c 0
 -295.666666667 1038 -278 1047.16666667 -264 1065.5 c 128
 -250 1083.83333333 -243 1105.66666667 -243 1131 c 0
 -243 1170.33333333 -259 1203.33333333 -291 1230 c 1
 -329.666666667 1262 -385.333333333 1278 -458 1278 c 0
 -502.666666667 1278 -546.666666667 1263.66666667 -590 1235 c 0
 -637.333333333 1203.66666667 -661 1166.33333333 -661 1123 c 0
 -661 1087 -651 1060 -631 1042 c 1
 -607.666666667 1021.33333333 -594.333333333 1003.66666667 -591 989 c 1
 -569 955 l 1
-474 1026 m 0
 -474 1005.33333333 -483.666666667 987.666666667 -503 973 c 0
 -520.333333333 959.666666667 -539.666666667 953 -561 953 c 0
 -581.666666667 953 -602 964 -622 986 c 128
 -642 1008 -652 1029.33333333 -652 1050 c 0
 -652 1070 -641.666666667 1087.66666667 -621 1103 c 0
 -602.333333333 1117 -582.333333333 1124 -561 1124 c 0
 -535.666666667 1124 -514.833333333 1114.16666667 -498.5 1094.5 c 128
 -482.166666667 1074.83333333 -474 1052 -474 1026 c 0
EndSplineSet
Fore
SplineSet
-569 955 m 1
 -616.333333333 956.333333333 -657.333333333 970.333333333 -692 997 c 0
 -730 1026.33333333 -749.666666667 1065 -751 1113 c 0
 -753.666666667 1190.33333333 -724 1252.33333333 -662 1299 c 0
 -606 1341 -537.333333333 1362 -456 1362 c 0
 -374 1362 -306 1345.33333333 -252 1312 c 0
 -188.666666667 1273.33333333 -156 1217.66666667 -154 1145 c 0
 -152 1087.66666667 -170 1041 -208 1005 c 0
 -240.666666667 973.666666667 -278 958 -320 958 c 0
 -358.666666667 958 -384.333333333 971.666666667 -397 999 c 1
 -397.666666667 1001 -398 1003.33333333 -398 1006 c 0
 -398 1032.66666667 -385 1046 -359 1046 c 0
 -351.666666667 1046 -343.666666667 1044 -335 1040 c 1
 -329 1038.66666667 -323 1038 -317 1038 c 0
 -295.666666667 1038 -278 1047.16666667 -264 1065.5 c 128
 -250 1083.83333333 -243 1105.66666667 -243 1131 c 0
 -243 1170.33333333 -259 1203.33333333 -291 1230 c 1
 -329.666666667 1262 -385.333333333 1278 -458 1278 c 0
 -502.666666667 1278 -546.666666667 1263.66666667 -590 1235 c 0
 -637.333333333 1203.66666667 -661 1166.33333333 -661 1123 c 0
 -661 1087 -651 1060 -631 1042 c 1
 -607.666666667 1021.33333333 -594.333333333 1003.66666667 -591 989 c 1
 -569 955 l 1
-474 1026 m 0
 -474 1005.33333333 -483.666666667 987.666666667 -503 973 c 0
 -520.333333333 959.666666667 -539.666666667 953 -561 953 c 0
 -581.666666667 953 -602 964 -622 986 c 128
 -642 1008 -652 1029.33333333 -652 1050 c 0
 -652 1070 -641.666666667 1087.66666667 -621 1103 c 0
 -602.333333333 1117 -582.333333333 1124 -561 1124 c 0
 -535.666666667 1124 -514.833333333 1114.16666667 -498.5 1094.5 c 128
 -482.166666667 1074.83333333 -474 1052 -474 1026 c 0
EndSplineSet
EndChar

StartChar: uni1A68
Encoding: 6760 6760 45
Width: 0
VWidth: 2260
Flags: HW
LayerCount: 2
Back
SplineSet
-196 1040 m 1
 -209 987 l 1
 -551 1052 l 1
 -541 1120 l 1
 -196 1040 l 1
-735 955 m 1
 -782.333333333 956.333333333 -823.666666667 970.666666667 -859 998 c 0
 -897.666666667 1028.66666667 -917.333333333 1067 -918 1113 c 0
 -918 1191 -887.333333333 1253 -826 1299 c 0
 -770.666666667 1341 -703 1362 -623 1362 c 0
 -547 1362 -479.666666667 1337.66666667 -421 1289 c 0
 -359.666666667 1237.66666667 -329.333333333 1174.33333333 -330 1099 c 0
 -330 1055 -346.5 1018.33333333 -379.5 989 c 128
 -412.5 959.666666667 -451 945 -495 945 c 0
 -524.333333333 945 -552.333333333 955.666666667 -579 977 c 0
 -606.333333333 1000.33333333 -620 1026.33333333 -620 1055 c 0
 -620 1069.66666667 -615.666666667 1084 -607 1098 c 0
 -597 1114 -584.666666667 1122 -570 1122 c 0
 -557.333333333 1122 -528.666666667 1117.66666667 -484 1109 c 0
 -438 1099.66666667 -411.666666667 1092.33333333 -405 1087 c 1
 -532 1060 l 1
 -530 1061.33333333 -529 1061 -529 1059 c 1
 -534.333333333 1053 -537 1047.66666667 -537 1043 c 0
 -537 1035.66666667 -528.333333333 1026.33333333 -511 1015 c 1
 -483 1013.66666667 -458.5 1021.83333333 -437.5 1039.5 c 128
 -416.5 1057.16666667 -406 1080 -406 1108 c 0
 -406 1152 -432 1192 -484 1228 c 0
 -532 1261.33333333 -579 1278 -625 1278 c 0
 -669.666666667 1278 -713.333333333 1263.66666667 -756 1235 c 0
 -803.333333333 1203.66666667 -827 1166.33333333 -827 1123 c 0
 -827 1087 -817 1060 -797 1042 c 1
 -773.666666667 1021.33333333 -760.666666667 1003.66666667 -758 989 c 1
 -735 955 l 1
-641 1026 m 0
 -641 1005.33333333 -650.333333333 987.666666667 -669 973 c 0
 -686.333333333 959.666666667 -705.666666667 953 -727 953 c 0
 -747.666666667 953 -768 964 -788 986 c 128
 -808 1008 -818 1029.33333333 -818 1050 c 0
 -818 1070 -807.666666667 1087.66666667 -787 1103 c 0
 -768.333333333 1117 -748.333333333 1124 -727 1124 c 0
 -701.666666667 1124 -681 1114.16666667 -665 1094.5 c 128
 -649 1074.83333333 -641 1052 -641 1026 c 0
EndSplineSet
Fore
SplineSet
-196 1040 m 1
 -209 987 l 1
 -551 1052 l 1
 -541 1120 l 1
 -196 1040 l 1
-735 955 m 1
 -782.333333333 956.333333333 -823.666666667 970.666666667 -859 998 c 0
 -897.666666667 1028.66666667 -917.333333333 1067 -918 1113 c 0
 -918 1191 -887.333333333 1253 -826 1299 c 0
 -770.666666667 1341 -703 1362 -623 1362 c 0
 -547 1362 -479.666666667 1337.66666667 -421 1289 c 0
 -359.666666667 1237.66666667 -329.333333333 1174.33333333 -330 1099 c 0
 -330 1055 -346.5 1018.33333333 -379.5 989 c 128
 -412.5 959.666666667 -451 945 -495 945 c 0
 -524.333333333 945 -552.333333333 955.666666667 -579 977 c 0
 -606.333333333 1000.33333333 -620 1026.33333333 -620 1055 c 0
 -620 1069.66666667 -615.666666667 1084 -607 1098 c 0
 -597 1114 -584.666666667 1122 -570 1122 c 0
 -557.333333333 1122 -528.666666667 1117.66666667 -484 1109 c 0
 -438 1099.66666667 -411.666666667 1092.33333333 -405 1087 c 1
 -532 1060 l 1
 -530 1061.33333333 -529 1061 -529 1059 c 1
 -534.333333333 1053 -537 1047.66666667 -537 1043 c 0
 -537 1035.66666667 -528.333333333 1026.33333333 -511 1015 c 1
 -483 1013.66666667 -458.5 1021.83333333 -437.5 1039.5 c 128
 -416.5 1057.16666667 -406 1080 -406 1108 c 0
 -406 1152 -432 1192 -484 1228 c 0
 -532 1261.33333333 -579 1278 -625 1278 c 0
 -669.666666667 1278 -713.333333333 1263.66666667 -756 1235 c 0
 -803.333333333 1203.66666667 -827 1166.33333333 -827 1123 c 0
 -827 1087 -817 1060 -797 1042 c 1
 -773.666666667 1021.33333333 -760.666666667 1003.66666667 -758 989 c 1
 -735 955 l 1
-641 1026 m 0
 -641 1005.33333333 -650.333333333 987.666666667 -669 973 c 0
 -686.333333333 959.666666667 -705.666666667 953 -727 953 c 0
 -747.666666667 953 -768 964 -788 986 c 128
 -808 1008 -818 1029.33333333 -818 1050 c 0
 -818 1070 -807.666666667 1087.66666667 -787 1103 c 0
 -768.333333333 1117 -748.333333333 1124 -727 1124 c 0
 -701.666666667 1124 -681 1114.16666667 -665 1094.5 c 128
 -649 1074.83333333 -641 1052 -641 1026 c 0
EndSplineSet
EndChar

StartChar: uni1A69
Encoding: 6761 6761 46
Width: 0
VWidth: 2260
Flags: HW
LayerCount: 2
Back
SplineSet
-247 -607 m 0
 -367.666666667 -607 -474 -584 -566 -538 c 1
 -566 -293 l 1
 -533.333333333 -269.666666667 -503 -252 -475 -240 c 1
 -475 -494 l 1
 -413 -537.333333333 -317.666666667 -554.666666667 -189 -546 c 2
 -176 -545 l 1
 -176.666666667 -545.666666667 -177 -545.666666667 -177 -545 c 0
 -168 -544 l 2
 -125 -541 l 1
 -111.666666667 -541 -91.3333333333 -540 -64 -538 c 1
 91.3333333333 -516.666666667 212 -497.666666667 298 -481 c 1
 234 -519.666666667 146 -551 34 -575 c 0
 -65.3333333333 -596.333333333 -159 -607 -247 -607 c 0
EndSplineSet
Fore
SplineSet
-247 -607 m 0
 -367.666666667 -607 -474 -584 -566 -538 c 1
 -566 -293 l 1
 -533.333333333 -269.666666667 -503 -252 -475 -240 c 1
 -475 -494 l 1
 -413 -537.333333333 -317.666666667 -554.666666667 -189 -546 c 2
 -176 -545 l 1
 -176.666666667 -545.666666667 -177 -545.666666667 -177 -545 c 0
 -168 -544 l 2
 -125 -541 l 1
 -111.666666667 -541 -91.3333333333 -540 -64 -538 c 1
 91.3333333333 -516.666666667 212 -497.666666667 298 -481 c 1
 234 -519.666666667 146 -551 34 -575 c 0
 -65.3333333333 -596.333333333 -159 -607 -247 -607 c 0
EndSplineSet
EndChar

StartChar: uni1A6A
Encoding: 6762 6762 47
Width: 0
VWidth: 2260
Flags: HW
LayerCount: 2
Back
SplineSet
-328 -450 m 1
 -344.666666667 -456.666666667 -370 -465 -404 -475 c 1
 -405 -263 l 1
 -353 -243 -327 -235.333333333 -327 -240 c 2
 -328 -450 l 1
-247 -607 m 0
 -367.666666667 -607 -474 -584 -566 -538 c 1
 -566 -293 l 1
 -533.333333333 -269.666666667 -503 -252 -475 -240 c 1
 -475 -494 l 1
 -413 -537.333333333 -317.666666667 -554.666666667 -189 -546 c 2
 -176 -545 l 1
 -176.666666667 -545.666666667 -177 -545.666666667 -177 -545 c 0
 -168 -544 l 2
 -125 -541 l 1
 -111.666666667 -541 -91.3333333333 -540 -64 -538 c 1
 91.3333333333 -516.666666667 212 -497.666666667 298 -481 c 1
 234 -519.666666667 146 -551 34 -575 c 0
 -65.3333333333 -596.333333333 -159 -607 -247 -607 c 0
EndSplineSet
Fore
SplineSet
-328 -450 m 1
 -344.666666667 -456.666666667 -370 -465 -404 -475 c 1
 -405 -263 l 1
 -353 -243 -327 -235.333333333 -327 -240 c 2
 -328 -450 l 1
-247 -607 m 0
 -367.666666667 -607 -474 -584 -566 -538 c 1
 -566 -293 l 1
 -533.333333333 -269.666666667 -503 -252 -475 -240 c 1
 -475 -494 l 1
 -413 -537.333333333 -317.666666667 -554.666666667 -189 -546 c 2
 -176 -545 l 1
 -176.666666667 -545.666666667 -177 -545.666666667 -177 -545 c 0
 -168 -544 l 2
 -125 -541 l 1
 -111.666666667 -541 -91.3333333333 -540 -64 -538 c 1
 91.3333333333 -516.666666667 212 -497.666666667 298 -481 c 1
 234 -519.666666667 146 -551 34 -575 c 0
 -65.3333333333 -596.333333333 -159 -607 -247 -607 c 0
EndSplineSet
EndChar

StartChar: uni1A6E
Encoding: 6766 6766 48
Width: 822
VWidth: 2260
Flags: HW
LayerCount: 2
Back
SplineSet
661 543 m 0
 555 673 462 738 382 738 c 0
 307.333333333 738 241.666666667 705 185 639 c 0
 131 575.666666667 104 506 104 430 c 0
 104 351.333333333 125 281 167 219 c 0
 209.666666667 155.666666667 296.333333333 110.333333333 427 83 c 1
 457 77 457 77 486 71 c 1
 516.666666667 63.6666666667 533.333333333 56 536 48 c 1
 527.333333333 36 509.666666667 25.3333333333 483 16 c 0
 458.333333333 6.66666666667 438.333333333 2 423 2 c 0
 301.666666667 2 202.166666667 40.8333333333 124.5 118.5 c 128
 46.8333333333 196.166666667 8 295.666666667 8 417 c 0
 8 530.333333333 42.3333333333 624 111 698 c 0
 181 774 272.333333333 812 385 812 c 0
 521 812 639.666666667 689.666666667 741 445 c 1
 730 459 730 459 661 543 c 0
458 16 m 0
 424.666666667 16 395.833333333 28 371.5 52 c 128
 347.166666667 76 335 105 335 139 c 0
 335 172.333333333 347.166666667 201 371.5 225 c 128
 395.833333333 249 424.666666667 261 458 261 c 0
 491.333333333 261 520.166666667 249 544.5 225 c 128
 568.833333333 201 581 172.333333333 581 139 c 0
 581 105.666666667 568.833333333 76.8333333333 544.5 52.5 c 128
 520.166666667 28.1666666667 491.333333333 16 458 16 c 0
461 182 m 256
 430.333333333 182 415 166.333333333 415 135 c 0
 415 103.666666667 430.333333333 88 461 88 c 256
 491.666666667 88 507 103.666666667 507 135 c 0
 507 166.333333333 491.666666667 182 461 182 c 256
EndSplineSet
Fore
SplineSet
661 543 m 0
 555 673 462 738 382 738 c 0
 307.333333333 738 241.666666667 705 185 639 c 0
 131 575.666666667 104 506 104 430 c 0
 104 351.333333333 125 281 167 219 c 0
 209.666666667 155.666666667 296.333333333 110.333333333 427 83 c 1
 457 77 457 77 486 71 c 1
 516.666666667 63.6666666667 533.333333333 56 536 48 c 1
 527.333333333 36 509.666666667 25.3333333333 483 16 c 0
 458.333333333 6.66666666667 438.333333333 2 423 2 c 0
 301.666666667 2 202.166666667 40.8333333333 124.5 118.5 c 128
 46.8333333333 196.166666667 8 295.666666667 8 417 c 0
 8 530.333333333 42.3333333333 624 111 698 c 0
 181 774 272.333333333 812 385 812 c 0
 521 812 639.666666667 689.666666667 741 445 c 1
 730 459 730 459 661 543 c 0
458 16 m 0
 424.666666667 16 395.833333333 28 371.5 52 c 128
 347.166666667 76 335 105 335 139 c 0
 335 172.333333333 347.166666667 201 371.5 225 c 128
 395.833333333 249 424.666666667 261 458 261 c 0
 491.333333333 261 520.166666667 249 544.5 225 c 128
 568.833333333 201 581 172.333333333 581 139 c 0
 581 105.666666667 568.833333333 76.8333333333 544.5 52.5 c 128
 520.166666667 28.1666666667 491.333333333 16 458 16 c 0
461 182 m 256
 430.333333333 182 415 166.333333333 415 135 c 0
 415 103.666666667 430.333333333 88 461 88 c 256
 491.666666667 88 507 103.666666667 507 135 c 0
 507 166.333333333 491.666666667 182 461 182 c 256
EndSplineSet
EndChar

StartChar: uni1A6F
Encoding: 6767 6767 49
Width: 1561
VWidth: 2260
Flags: HW
LayerCount: 2
Back
SplineSet
1426 548 m 1
 1320 677.333333333 1227 742 1147 742 c 0
 1073 742 1007 705 949 631 c 1
 895.666666667 561.666666667 869 488.333333333 869 411 c 0
 869 257 933.666666667 154.333333333 1063 103 c 0
 1094.33333333 90.3333333333 1142.66666667 77.3333333333 1208 64 c 0
 1259.33333333 53.3333333333 1290.33333333 42 1301 30 c 1
 1274.33333333 -1.33333333333 1236.33333333 -17 1187 -17 c 0
 1065.66666667 -17 966.333333333 21.8333333333 889 99.5 c 128
 811.666666667 177.166666667 773 276.666666667 773 398 c 0
 773 512 806.666666667 609 874 689 c 0
 945.333333333 774.333333333 1037 817 1149 817 c 0
 1287 817 1406 694.666666667 1506 450 c 1
 1500.66666667 456 1474 488.666666667 1426 548 c 1
1223 -3 m 0
 1189.66666667 -3 1160.83333333 9 1136.5 33 c 128
 1112.16666667 57 1100 86 1100 120 c 0
 1100 153.333333333 1112.16666667 182 1136.5 206 c 128
 1160.83333333 230 1189.66666667 242 1223 242 c 0
 1256.33333333 242 1285.16666667 230 1309.5 206 c 128
 1333.83333333 182 1346 153.333333333 1346 120 c 0
 1346 86.6666666667 1333.83333333 57.8333333333 1309.5 33.5 c 128
 1285.16666667 9.16666666667 1256.33333333 -3 1223 -3 c 0
656 548 m 1
 550 677.333333333 457 742 377 742 c 0
 303 742 237.333333333 705 180 631 c 1
 126.666666667 561.666666667 99.6666666667 488.333333333 99 411 c 0
 99 257 163.666666667 154.333333333 293 103 c 0
 324.333333333 90.3333333333 372.666666667 77.3333333333 438 64 c 0
 489.333333333 53.3333333333 520.666666667 42 532 30 c 1
 505.333333333 -1.33333333333 467.333333333 -17 418 -17 c 0
 296.666666667 -17 197.166666667 21.8333333333 119.5 99.5 c 128
 41.8333333333 177.166666667 3 276.666666667 3 398 c 0
 3 512 37 609 105 689 c 0
 176.333333333 774.333333333 268 817 380 817 c 0
 518 817 636.666666667 694.666666667 736 450 c 1
 730.666666667 456 704 488.666666667 656 548 c 1
454 -3 m 0
 420.666666667 -3 391.833333333 9 367.5 33 c 128
 343.166666667 57 331 86 331 120 c 0
 331 153.333333333 343 182 367 206 c 128
 391 230 420 242 454 242 c 0
 487.333333333 242 516 230 540 206 c 128
 564 182 576 153.333333333 576 120 c 0
 576 86.6666666667 564 57.8333333333 540 33.5 c 128
 516 9.16666666667 487.333333333 -3 454 -3 c 0
1225 163 m 256
 1194.33333333 163 1179 147.333333333 1179 116 c 0
 1179 84.6666666667 1194.33333333 69 1225 69 c 256
 1255.66666667 69 1271 84.6666666667 1271 116 c 0
 1271 147.333333333 1255.66666667 163 1225 163 c 256
456 163 m 256
 425.333333333 163 410 147.333333333 410 116 c 0
 410 84.6666666667 425.333333333 69 456 69 c 256
 486.666666667 69 502 84.6666666667 502 116 c 0
 502 147.333333333 486.666666667 163 456 163 c 256
EndSplineSet
Fore
SplineSet
1426 548 m 1
 1320 677.333333333 1227 742 1147 742 c 0
 1073 742 1007 705 949 631 c 1
 895.666666667 561.666666667 869 488.333333333 869 411 c 0
 869 257 933.666666667 154.333333333 1063 103 c 0
 1094.33333333 90.3333333333 1142.66666667 77.3333333333 1208 64 c 0
 1259.33333333 53.3333333333 1290.33333333 42 1301 30 c 1
 1274.33333333 -1.33333333333 1236.33333333 -17 1187 -17 c 0
 1065.66666667 -17 966.333333333 21.8333333333 889 99.5 c 128
 811.666666667 177.166666667 773 276.666666667 773 398 c 0
 773 512 806.666666667 609 874 689 c 0
 945.333333333 774.333333333 1037 817 1149 817 c 0
 1287 817 1406 694.666666667 1506 450 c 1
 1500.66666667 456 1474 488.666666667 1426 548 c 1
1223 -3 m 0
 1189.66666667 -3 1160.83333333 9 1136.5 33 c 128
 1112.16666667 57 1100 86 1100 120 c 0
 1100 153.333333333 1112.16666667 182 1136.5 206 c 128
 1160.83333333 230 1189.66666667 242 1223 242 c 0
 1256.33333333 242 1285.16666667 230 1309.5 206 c 128
 1333.83333333 182 1346 153.333333333 1346 120 c 0
 1346 86.6666666667 1333.83333333 57.8333333333 1309.5 33.5 c 128
 1285.16666667 9.16666666667 1256.33333333 -3 1223 -3 c 0
656 548 m 1
 550 677.333333333 457 742 377 742 c 0
 303 742 237.333333333 705 180 631 c 1
 126.666666667 561.666666667 99.6666666667 488.333333333 99 411 c 0
 99 257 163.666666667 154.333333333 293 103 c 0
 324.333333333 90.3333333333 372.666666667 77.3333333333 438 64 c 0
 489.333333333 53.3333333333 520.666666667 42 532 30 c 1
 505.333333333 -1.33333333333 467.333333333 -17 418 -17 c 0
 296.666666667 -17 197.166666667 21.8333333333 119.5 99.5 c 128
 41.8333333333 177.166666667 3 276.666666667 3 398 c 0
 3 512 37 609 105 689 c 0
 176.333333333 774.333333333 268 817 380 817 c 0
 518 817 636.666666667 694.666666667 736 450 c 1
 730.666666667 456 704 488.666666667 656 548 c 1
454 -3 m 0
 420.666666667 -3 391.833333333 9 367.5 33 c 128
 343.166666667 57 331 86 331 120 c 0
 331 153.333333333 343 182 367 206 c 128
 391 230 420 242 454 242 c 0
 487.333333333 242 516 230 540 206 c 128
 564 182 576 153.333333333 576 120 c 0
 576 86.6666666667 564 57.8333333333 540 33.5 c 128
 516 9.16666666667 487.333333333 -3 454 -3 c 0
1225 163 m 256
 1194.33333333 163 1179 147.333333333 1179 116 c 0
 1179 84.6666666667 1194.33333333 69 1225 69 c 256
 1255.66666667 69 1271 84.6666666667 1271 116 c 0
 1271 147.333333333 1255.66666667 163 1225 163 c 256
456 163 m 256
 425.333333333 163 410 147.333333333 410 116 c 0
 410 84.6666666667 425.333333333 69 456 69 c 256
 486.666666667 69 502 84.6666666667 502 116 c 0
 502 147.333333333 486.666666667 163 456 163 c 256
EndSplineSet
EndChar

StartChar: uni1A70
Encoding: 6768 6768 50
Width: 388
VWidth: 2260
Flags: HW
LayerCount: 2
Back
SplineSet
275 -1 m 256
 239.666666667 -1 209.5 11.6666666667 184.5 37 c 128
 159.5 62.3333333333 147 92.6666666667 147 128 c 0
 147 163.333333333 159.5 193.666666667 184.5 219 c 128
 209.5 244.333333333 239.666666667 257 275 257 c 256
 310.333333333 257 340.5 244.333333333 365.5 219 c 128
 390.5 193.666666667 403 163.333333333 403 128 c 0
 403 92.6666666667 390.5 62.3333333333 365.5 37 c 128
 340.5 11.6666666667 310.333333333 -1 275 -1 c 256
277 184 m 0
 241.666666667 184 224 165.333333333 224 128 c 256
 224 90 241.666666667 71 277 71 c 0
 312.333333333 71 330 90 330 128 c 256
 330 165.333333333 312.333333333 184 277 184 c 0
729 1247 m 1
 645.666666667 1464.33333333 493.666666667 1573 273 1573 c 0
 145.666666667 1573 41.6666666667 1534 -39 1456 c 0
 -121 1377.33333333 -162 1274.33333333 -162 1147 c 0
 -162 1064.33333333 -135 992.333333333 -81 931 c 0
 -51 897.666666667 8.33333333333 851 97 791 c 0
 181 734.333333333 240 684 274 640 c 1
 274 626 l 1
 276 586.666666667 242.333333333 523.333333333 173 436 c 0
 103 347.333333333 67.6666666667 273 67 213 c 0
 67 136.333333333 116.333333333 93.3333333333 215 84 c 0
 315.666666667 74 366 60 366 42 c 0
 366 30 346.666666667 18.6666666667 308 8 c 0
 275.333333333 -1.33333333333 249.333333333 -6 230 -6 c 0
 169.333333333 -6 114.333333333 11.6666666667 65 47 c 0
 9 85.6666666667 -19 134 -19 192 c 0
 -19 254.666666667 -3.33333333333 318.333333333 28 383 c 0
 46 420.333333333 75 467.333333333 115 524 c 0
 146.333333333 568 162 595.666666667 162 607 c 0
 162 635.666666667 127 672 57 716 c 0
 -36.3333333333 774 -101.333333333 823.666666667 -138 865 c 0
 -208 944.333333333 -243 1041 -243 1155 c 0
 -243 1303.66666667 -193.333333333 1425.33333333 -94 1520 c 0
 4 1613.33333333 127.666666667 1660 277 1660 c 0
 392.333333333 1660 493.666666667 1630.66666667 581 1572 c 0
 670.333333333 1511.33333333 733 1426.66666667 769 1318 c 1
 729 1247 l 1
EndSplineSet
Fore
SplineSet
275 -1 m 256
 239.666666667 -1 209.5 11.6666666667 184.5 37 c 128
 159.5 62.3333333333 147 92.6666666667 147 128 c 0
 147 163.333333333 159.5 193.666666667 184.5 219 c 128
 209.5 244.333333333 239.666666667 257 275 257 c 256
 310.333333333 257 340.5 244.333333333 365.5 219 c 128
 390.5 193.666666667 403 163.333333333 403 128 c 0
 403 92.6666666667 390.5 62.3333333333 365.5 37 c 128
 340.5 11.6666666667 310.333333333 -1 275 -1 c 256
277 184 m 0
 241.666666667 184 224 165.333333333 224 128 c 256
 224 90 241.666666667 71 277 71 c 0
 312.333333333 71 330 90 330 128 c 256
 330 165.333333333 312.333333333 184 277 184 c 0
729 1247 m 1
 645.666666667 1464.33333333 493.666666667 1573 273 1573 c 0
 145.666666667 1573 41.6666666667 1534 -39 1456 c 0
 -121 1377.33333333 -162 1274.33333333 -162 1147 c 0
 -162 1064.33333333 -135 992.333333333 -81 931 c 0
 -51 897.666666667 8.33333333333 851 97 791 c 0
 181 734.333333333 240 684 274 640 c 1
 274 626 l 1
 276 586.666666667 242.333333333 523.333333333 173 436 c 0
 103 347.333333333 67.6666666667 273 67 213 c 0
 67 136.333333333 116.333333333 93.3333333333 215 84 c 0
 315.666666667 74 366 60 366 42 c 0
 366 30 346.666666667 18.6666666667 308 8 c 0
 275.333333333 -1.33333333333 249.333333333 -6 230 -6 c 0
 169.333333333 -6 114.333333333 11.6666666667 65 47 c 0
 9 85.6666666667 -19 134 -19 192 c 0
 -19 254.666666667 -3.33333333333 318.333333333 28 383 c 0
 46 420.333333333 75 467.333333333 115 524 c 0
 146.333333333 568 162 595.666666667 162 607 c 0
 162 635.666666667 127 672 57 716 c 0
 -36.3333333333 774 -101.333333333 823.666666667 -138 865 c 0
 -208 944.333333333 -243 1041 -243 1155 c 0
 -243 1303.66666667 -193.333333333 1425.33333333 -94 1520 c 0
 4 1613.33333333 127.666666667 1660 277 1660 c 0
 392.333333333 1660 493.666666667 1630.66666667 581 1572 c 0
 670.333333333 1511.33333333 733 1426.66666667 769 1318 c 1
 729 1247 l 1
EndSplineSet
EndChar

StartChar: uni1A71
Encoding: 6769 6769 51
Width: 458
VWidth: 2260
Flags: HW
LayerCount: 2
Back
SplineSet
323 123 m 0
 323 89 310.833333333 59.6666666667 286.5 35 c 128
 262.166666667 10.3333333333 233 -2 199 -2 c 256
 165 -2 135.833333333 10.3333333333 111.5 35 c 128
 87.1666666667 59.6666666667 75 89 75 123 c 0
 75 157.666666667 87.1666666667 187.333333333 111.5 212 c 128
 135.833333333 236.666666667 165 249 199 249 c 256
 233 249 262.166666667 236.666666667 286.5 212 c 128
 310.833333333 187.333333333 323 157.666666667 323 123 c 0
260 122 m 0
 260 162.666666667 240.333333333 183 201 183 c 0
 163 183 144.333333333 163 145 123 c 0
 145 83 163.666666667 63 201 63 c 0
 240.333333333 63 260 82.6666666667 260 122 c 0
133 632 m 0
 133 592.666666667 158 551.666666667 208 509 c 0
 295.333333333 433.666666667 341.333333333 393.333333333 346 388 c 0
 395.333333333 331.333333333 420 266.666666667 420 194 c 0
 420 139.333333333 396 89.6666666667 348 45 c 0
 314.666666667 13.6666666667 264.333333333 -1.33333333333 197 0 c 1
 177.666666667 10 159.333333333 15.3333333333 142 16 c 1
 140.666666667 27.3333333333 134.666666667 49.3333333333 124 82 c 1
 146 63.3333333333 171.666666667 54 201 54 c 0
 238.333333333 54 269.833333333 67.3333333333 295.5 94 c 128
 321.166666667 120.666666667 334 152.666666667 334 190 c 0
 334 249.333333333 308.333333333 303 257 351 c 1
 186 408 186 408 114 465 c 1
 62.6666666667 511 37.3333333333 561.333333333 38 616 c 0
 38 676.666666667 76 751.333333333 152 840 c 0
 286.666666667 997.333333333 357.333333333 1081 364 1091 c 0
 440 1199.66666667 478 1309 478 1419 c 0
 478 1486.33333333 459.666666667 1542.33333333 423 1587 c 0
 383.666666667 1634.33333333 330.666666667 1658 264 1658 c 0
 57.3333333333 1658 -65.6666666667 1471.33333333 -105 1098 c 0
 -109 1060.66666667 -112.666666667 1033.33333333 -116 1016 c 0
 -122 986 -130.666666667 960.333333333 -142 939 c 1
 -166 993 -178 1054 -178 1122 c 0
 -178 1266.66666667 -143.666666667 1401.66666667 -75 1527 c 1
 6.33333333333 1677 113.666666667 1752 247 1752 c 0
 346.333333333 1752 424 1721.66666667 480 1661 c 0
 535.333333333 1602.33333333 563 1523 563 1423 c 0
 563 1307 526 1190.33333333 452 1073 c 0
 418 1019.66666667 349 933.666666667 245 815 c 0
 170.333333333 730.333333333 133 669.333333333 133 632 c 0
EndSplineSet
Fore
SplineSet
323 123 m 0
 323 89 310.833333333 59.6666666667 286.5 35 c 128
 262.166666667 10.3333333333 233 -2 199 -2 c 256
 165 -2 135.833333333 10.3333333333 111.5 35 c 128
 87.1666666667 59.6666666667 75 89 75 123 c 0
 75 157.666666667 87.1666666667 187.333333333 111.5 212 c 128
 135.833333333 236.666666667 165 249 199 249 c 256
 233 249 262.166666667 236.666666667 286.5 212 c 128
 310.833333333 187.333333333 323 157.666666667 323 123 c 0
260 122 m 0
 260 162.666666667 240.333333333 183 201 183 c 0
 163 183 144.333333333 163 145 123 c 0
 145 83 163.666666667 63 201 63 c 0
 240.333333333 63 260 82.6666666667 260 122 c 0
133 632 m 0
 133 592.666666667 158 551.666666667 208 509 c 0
 295.333333333 433.666666667 341.333333333 393.333333333 346 388 c 0
 395.333333333 331.333333333 420 266.666666667 420 194 c 0
 420 139.333333333 396 89.6666666667 348 45 c 0
 314.666666667 13.6666666667 264.333333333 -1.33333333333 197 0 c 1
 177.666666667 10 159.333333333 15.3333333333 142 16 c 1
 140.666666667 27.3333333333 134.666666667 49.3333333333 124 82 c 1
 146 63.3333333333 171.666666667 54 201 54 c 0
 238.333333333 54 269.833333333 67.3333333333 295.5 94 c 128
 321.166666667 120.666666667 334 152.666666667 334 190 c 0
 334 249.333333333 308.333333333 303 257 351 c 1
 186 408 186 408 114 465 c 1
 62.6666666667 511 37.3333333333 561.333333333 38 616 c 0
 38 676.666666667 76 751.333333333 152 840 c 0
 286.666666667 997.333333333 357.333333333 1081 364 1091 c 0
 440 1199.66666667 478 1309 478 1419 c 0
 478 1486.33333333 459.666666667 1542.33333333 423 1587 c 0
 383.666666667 1634.33333333 330.666666667 1658 264 1658 c 0
 57.3333333333 1658 -65.6666666667 1471.33333333 -105 1098 c 0
 -109 1060.66666667 -112.666666667 1033.33333333 -116 1016 c 0
 -122 986 -130.666666667 960.333333333 -142 939 c 1
 -166 993 -178 1054 -178 1122 c 0
 -178 1266.66666667 -143.666666667 1401.66666667 -75 1527 c 1
 6.33333333333 1677 113.666666667 1752 247 1752 c 0
 346.333333333 1752 424 1721.66666667 480 1661 c 0
 535.333333333 1602.33333333 563 1523 563 1423 c 0
 563 1307 526 1190.33333333 452 1073 c 0
 418 1019.66666667 349 933.666666667 245 815 c 0
 170.333333333 730.333333333 133 669.333333333 133 632 c 0
EndSplineSet
EndChar

StartChar: uni1A72
Encoding: 6770 6770 52
Width: 407
VWidth: 2260
Flags: HW
LayerCount: 2
Back
SplineSet
230 15 m 256
 200 15 173.833333333 26.1666666667 151.5 48.5 c 128
 129.166666667 70.8333333333 118 97 118 127 c 256
 118 157 129.166666667 183.333333333 151.5 206 c 128
 173.833333333 228.666666667 200 240 230 240 c 256
 260 240 286.333333333 228.666666667 309 206 c 128
 331.666666667 183.333333333 343 157 343 127 c 256
 343 97 331.666666667 70.8333333333 309 48.5 c 128
 286.333333333 26.1666666667 260 15 230 15 c 256
228 176 m 256
 194.666666667 176 178.333333333 159.666666667 179 127 c 0
 179 95 195.333333333 79 228 79 c 256
 261.333333333 79 278 95 278 127 c 0
 278 159.666666667 261.333333333 176 228 176 c 256
294 947 m 0
 291.333333333 865 267.333333333 750.666666667 222 604 c 0
 178 461.333333333 155.666666667 346.666666667 155 260 c 0
 155 185.333333333 170.333333333 116.666666667 201 54 c 1
 215 52 l 1
 208.333333333 32.6666666667 197.666666667 22.6666666667 183 22 c 0
 173 22 161.666666667 28 149 40 c 0
 95 90.6666666667 68 171.333333333 68 282 c 0
 68 364.666666667 89 476.666666667 131 618 c 128
 173 759.333333333 194 870.333333333 194 951 c 0
 194 1010.33333333 161.333333333 1059.66666667 96 1099 c 0
 2 1155.66666667 -60.3333333333 1204 -91 1244 c 0
 -160.333333333 1335.33333333 -198.666666667 1472.33333333 -206 1655 c 0
 -209.333333333 1736.33333333 -202 1777 -184 1777 c 0
 -177.333333333 1777 -170.333333333 1762 -163 1732 c 1
 -134 1580 -134 1580 -104 1427 c 1
 -82.6666666667 1359.66666667 -19.3333333333 1293.66666667 86 1229 c 0
 161.333333333 1183 211 1147 235 1121 c 1
 276.333333333 1075 296 1017 294 947 c 0
EndSplineSet
Fore
SplineSet
230 15 m 256
 200 15 173.833333333 26.1666666667 151.5 48.5 c 128
 129.166666667 70.8333333333 118 97 118 127 c 256
 118 157 129.166666667 183.333333333 151.5 206 c 128
 173.833333333 228.666666667 200 240 230 240 c 256
 260 240 286.333333333 228.666666667 309 206 c 128
 331.666666667 183.333333333 343 157 343 127 c 256
 343 97 331.666666667 70.8333333333 309 48.5 c 128
 286.333333333 26.1666666667 260 15 230 15 c 256
228 176 m 256
 194.666666667 176 178.333333333 159.666666667 179 127 c 0
 179 95 195.333333333 79 228 79 c 256
 261.333333333 79 278 95 278 127 c 0
 278 159.666666667 261.333333333 176 228 176 c 256
294 947 m 0
 291.333333333 865 267.333333333 750.666666667 222 604 c 0
 178 461.333333333 155.666666667 346.666666667 155 260 c 0
 155 185.333333333 170.333333333 116.666666667 201 54 c 1
 215 52 l 1
 208.333333333 32.6666666667 197.666666667 22.6666666667 183 22 c 0
 173 22 161.666666667 28 149 40 c 0
 95 90.6666666667 68 171.333333333 68 282 c 0
 68 364.666666667 89 476.666666667 131 618 c 128
 173 759.333333333 194 870.333333333 194 951 c 0
 194 1010.33333333 161.333333333 1059.66666667 96 1099 c 0
 2 1155.66666667 -60.3333333333 1204 -91 1244 c 0
 -160.333333333 1335.33333333 -198.666666667 1472.33333333 -206 1655 c 0
 -209.333333333 1736.33333333 -202 1777 -184 1777 c 0
 -177.333333333 1777 -170.333333333 1762 -163 1732 c 1
 -134 1580 -134 1580 -104 1427 c 1
 -82.6666666667 1359.66666667 -19.3333333333 1293.66666667 86 1229 c 0
 161.333333333 1183 211 1147 235 1121 c 1
 276.333333333 1075 296 1017 294 947 c 0
EndSplineSet
EndChar

StartChar: uni1A6D
Encoding: 6765 6765 53
Width: 369
VWidth: 2260
Flags: HW
LayerCount: 2
Back
SplineSet
-355 -245 m 256
 -355 -283.666666667 -368.5 -317 -395.5 -345 c 128
 -422.5 -373 -455.333333333 -387 -494 -387 c 0
 -532.666666667 -387 -565.833333333 -373 -593.5 -345 c 128
 -621.166666667 -317 -635 -283.666666667 -635 -245 c 256
 -635 -206.333333333 -621.333333333 -173 -594 -145 c 128
 -566.666666667 -117 -533.333333333 -103 -494 -103 c 0
 -455.333333333 -103 -422.5 -117 -395.5 -145 c 128
 -368.5 -173 -355 -206.333333333 -355 -245 c 256
-430 -245 m 256
 -430 -203.666666667 -451.333333333 -183 -494 -183 c 256
 -536.666666667 -183 -558 -203.666666667 -558 -245 c 256
 -558 -286.333333333 -536.666666667 -306.666666667 -494 -306 c 256
 -451.333333333 -306.666666667 -430 -286.333333333 -430 -245 c 256
-322 -438 m 0
 -371.333333333 -438 -426.666666667 -428.333333333 -488 -409 c 0
 -566.666666667 -383.666666667 -606 -352.666666667 -606 -316 c 0
 -606 -298.666666667 -590.666666667 -290.333333333 -560 -291 c 0
 -558.666666667 -291 -552 -291.666666667 -540 -293 c 1
 -473.333333333 -331 -399.333333333 -350 -318 -350 c 0
 -108 -350 26.6666666667 -286 86 -158 c 0
 121.333333333 -82 139.333333333 77 140 319 c 0
 140 335 140.5 367 141.5 415 c 128
 142.5 463 143 501.666666667 143 531 c 0
 143 781.666666667 101.333333333 942.666666667 18 1014 c 0
 -69.3333333333 1088.66666667 -205.666666667 1155 -391 1213 c 1
 -559.666666667 1266.33333333 -710.666666667 1296.66666667 -844 1304 c 0
 -850 1304 -853.333333333 1305.66666667 -854 1309 c 0
 -854 1322.33333333 -818 1354 -746 1404 c 1
 -680 1450.66666667 -635 1479 -611 1489 c 0
 -567 1507 -528 1516 -494 1516 c 0
 -466 1516 -380.833333333 1484.83333333 -238.5 1422.5 c 128
 -96.1666666667 1360.16666667 17.3333333333 1329 102 1329 c 0
 176 1329 245 1353.66666667 309 1403 c 1
 321.666666667 1414.33333333 337 1426.33333333 355 1439 c 1
 355.666666667 1433.66666667 353.666666667 1424.66666667 349 1412 c 0
 307 1299.33333333 221.666666667 1243 93 1243 c 0
 5.66666666667 1243 -114.5 1273.5 -267.5 1334.5 c 128
 -420.5 1395.5 -509 1426 -533 1426 c 0
 -539 1426 -551.666666667 1421.33333333 -571 1412 c 0
 -591 1402 -601.333333333 1394.33333333 -602 1389 c 1
 -581 1382 l 0
 -547 1369.33333333 -497.333333333 1352.66666667 -432 1332 c 0
 -312 1294.66666667 -223.666666667 1263.66666667 -167 1239 c 0
 -71.6666666667 1198.33333333 8 1150.33333333 72 1095 c 0
 134 1042.33333333 176.333333333 980.333333333 199 909 c 0
 216.333333333 855 225.666666667 780.333333333 227 685 c 1
 230 226 l 1
 230 -13.3333333333 199.333333333 -178 138 -268 c 0
 59.3333333333 -381.333333333 -94 -438 -322 -438 c 0
EndSplineSet
Fore
SplineSet
-355 -245 m 256
 -355 -283.666666667 -368.5 -317 -395.5 -345 c 128
 -422.5 -373 -455.333333333 -387 -494 -387 c 0
 -532.666666667 -387 -565.833333333 -373 -593.5 -345 c 128
 -621.166666667 -317 -635 -283.666666667 -635 -245 c 256
 -635 -206.333333333 -621.333333333 -173 -594 -145 c 128
 -566.666666667 -117 -533.333333333 -103 -494 -103 c 0
 -455.333333333 -103 -422.5 -117 -395.5 -145 c 128
 -368.5 -173 -355 -206.333333333 -355 -245 c 256
-430 -245 m 256
 -430 -203.666666667 -451.333333333 -183 -494 -183 c 256
 -536.666666667 -183 -558 -203.666666667 -558 -245 c 256
 -558 -286.333333333 -536.666666667 -306.666666667 -494 -306 c 256
 -451.333333333 -306.666666667 -430 -286.333333333 -430 -245 c 256
-322 -438 m 0
 -371.333333333 -438 -426.666666667 -428.333333333 -488 -409 c 0
 -566.666666667 -383.666666667 -606 -352.666666667 -606 -316 c 0
 -606 -298.666666667 -590.666666667 -290.333333333 -560 -291 c 0
 -558.666666667 -291 -552 -291.666666667 -540 -293 c 1
 -473.333333333 -331 -399.333333333 -350 -318 -350 c 0
 -108 -350 26.6666666667 -286 86 -158 c 0
 121.333333333 -82 139.333333333 77 140 319 c 0
 140 335 140.5 367 141.5 415 c 128
 142.5 463 143 501.666666667 143 531 c 0
 143 781.666666667 101.333333333 942.666666667 18 1014 c 0
 -69.3333333333 1088.66666667 -205.666666667 1155 -391 1213 c 1
 -559.666666667 1266.33333333 -710.666666667 1296.66666667 -844 1304 c 0
 -850 1304 -853.333333333 1305.66666667 -854 1309 c 0
 -854 1322.33333333 -818 1354 -746 1404 c 1
 -680 1450.66666667 -635 1479 -611 1489 c 0
 -567 1507 -528 1516 -494 1516 c 0
 -466 1516 -380.833333333 1484.83333333 -238.5 1422.5 c 128
 -96.1666666667 1360.16666667 17.3333333333 1329 102 1329 c 0
 176 1329 245 1353.66666667 309 1403 c 1
 321.666666667 1414.33333333 337 1426.33333333 355 1439 c 1
 355.666666667 1433.66666667 353.666666667 1424.66666667 349 1412 c 0
 307 1299.33333333 221.666666667 1243 93 1243 c 0
 5.66666666667 1243 -114.5 1273.5 -267.5 1334.5 c 128
 -420.5 1395.5 -509 1426 -533 1426 c 0
 -539 1426 -551.666666667 1421.33333333 -571 1412 c 0
 -591 1402 -601.333333333 1394.33333333 -602 1389 c 1
 -581 1382 l 0
 -547 1369.33333333 -497.333333333 1352.66666667 -432 1332 c 0
 -312 1294.66666667 -223.666666667 1263.66666667 -167 1239 c 0
 -71.6666666667 1198.33333333 8 1150.33333333 72 1095 c 0
 134 1042.33333333 176.333333333 980.333333333 199 909 c 0
 216.333333333 855 225.666666667 780.333333333 227 685 c 1
 230 226 l 1
 230 -13.3333333333 199.333333333 -178 138 -268 c 0
 59.3333333333 -381.333333333 -94 -438 -322 -438 c 0
EndSplineSet
EndChar

StartChar: uni1A54
Encoding: 6740 6740 54
Width: 1474
VWidth: 2260
Flags: HW
LayerCount: 2
Back
SplineSet
787 248 m 1
 807.666666667 234.666666667 832 217.666666667 860 197 c 1
 898 154.333333333 924.333333333 127.666666667 939 117 c 0
 971 93 1008.66666667 82 1052 84 c 0
 1122.66666667 86 1180 118 1224 180 c 0
 1265.33333333 238.666666667 1284.33333333 305.333333333 1281 380 c 0
 1275 492 1202.33333333 590.333333333 1063 675 c 1
 1039.66666667 687.666666667 1010 706.666666667 974 732 c 1
 970 736 968 739 968 741 c 0
 968 753 984 765 1016 777 c 0
 1043.33333333 787.666666667 1064.66666667 793 1080 793 c 0
 1107.33333333 793 1146.33333333 775.666666667 1197 741 c 1
 1245 709.666666667 1277.66666667 681 1295 655 c 1
 1224.33333333 687 1165.33333333 709.666666667 1118 723 c 1
 1118 720.333333333 1121.66666667 716.333333333 1129 711 c 1
 1182 677 1182 677 1234 643 c 0
 1276 615.666666667 1306.66666667 587.333333333 1326 558 c 0
 1359.33333333 506 1375.66666667 435 1375 345 c 0
 1374.33333333 255.666666667 1340.83333333 175.666666667 1274.5 105 c 128
 1208.16666667 34.3333333333 1133 -1 1049 -1 c 0
 988.333333333 -1 935.333333333 16 890 50 c 0
 871.333333333 64.6666666667 832.333333333 105.333333333 773 172 c 1
 769 169.333333333 765.666666667 168.333333333 763 169 c 0
 761.666666667 169 760.5 169.5 759.5 170.5 c 128
 758.5 171.5 758 173 758 175 c 0
 757.333333333 188.333333333 767 212.666666667 787 248 c 1
155 559 m 1
 155 582.333333333 163.666666667 605.333333333 181 628 c 0
 201 654.666666667 213 679.333333333 217 702 c 1
 222.333333333 694 229.333333333 681.333333333 238 664 c 1
 243.333333333 653.333333333 245.666666667 579 245 441 c 0
 245 197 245 197 245 191 c 1
 314.333333333 121.666666667 410.333333333 87 533 87 c 0
 606.333333333 87 669 109 721 153 c 0
 776.333333333 199.666666667 804.333333333 259 805 331 c 0
 805 476.333333333 721 607.333333333 553 724 c 1
 595.666666667 761.333333333 636 780 674 780 c 0
 692.666666667 780 729.333333333 763.333333333 784 730 c 0
 836.666666667 698 868.666666667 673 880 655 c 1
 789.333333333 690.333333333 730 708 702 708 c 0
 701.333333333 708 698.666666667 707.333333333 694 706 c 1
 829.333333333 607.333333333 897 481.666666667 897 329 c 0
 897 239 864.666666667 160.333333333 800 93 c 0
 734.666666667 24.3333333333 657.333333333 -9.66666666667 568 -9 c 0
 420 -9 308.333333333 24.6666666667 233 92 c 1
 217.666666667 91.3333333333 207.666666667 84.3333333333 203 71 c 0
 195.666666667 52.3333333333 191 42.3333333333 189 41 c 1
 166.333333333 50.3333333333 155 109.333333333 155 218 c 2
 155 559 l 1
227 110 m 0
 227 78 215 50 191 26 c 128
 167 2 139 -10 107 -10 c 0
 75 -10 46.8333333333 2 22.5 26 c 128
 -1.83333333333 50 -14 78 -14 110 c 0
 -14 142 -2 170 22 194 c 128
 46 218 74.3333333333 230 107 230 c 0
 139 230 167 218 191 194 c 128
 215 170 227 142 227 110 c 0
158 112 m 0
 158 144.666666667 141.666666667 161 109 161 c 256
 77 161 61 144.666666667 61 112 c 0
 61 78.6666666667 77 62 109 62 c 256
 141.666666667 62 158 78.6666666667 158 112 c 0
241 651 m 0
 241 619 229 591 205 567 c 128
 181 543 153 531 121 531 c 0
 89 531 60.8333333333 543 36.5 567 c 128
 12.1666666667 591 1.7763568394e-15 619 0 651 c 0
 0 683 12.1666666667 711.166666667 36.5 735.5 c 128
 60.8333333333 759.833333333 89 772 121 772 c 0
 153 772 181 759.833333333 205 735.5 c 128
 229 711.166666667 241 683 241 651 c 0
172 653 m 0
 172 686.333333333 155.666666667 702.666666667 123 702 c 256
 91 702 75 685.666666667 75 653 c 0
 75 620.333333333 91 603.666666667 123 603 c 256
 155.666666667 603.666666667 172 620.333333333 172 653 c 0
EndSplineSet
Fore
SplineSet
787 248 m 1
 807.666666667 234.666666667 832 217.666666667 860 197 c 1
 898 154.333333333 924.333333333 127.666666667 939 117 c 0
 971 93 1008.66666667 82 1052 84 c 0
 1122.66666667 86 1180 118 1224 180 c 0
 1265.33333333 238.666666667 1284.33333333 305.333333333 1281 380 c 0
 1275 492 1202.33333333 590.333333333 1063 675 c 1
 1039.66666667 687.666666667 1010 706.666666667 974 732 c 1
 970 736 968 739 968 741 c 0
 968 753 984 765 1016 777 c 0
 1043.33333333 787.666666667 1064.66666667 793 1080 793 c 0
 1107.33333333 793 1146.33333333 775.666666667 1197 741 c 1
 1245 709.666666667 1277.66666667 681 1295 655 c 1
 1224.33333333 687 1165.33333333 709.666666667 1118 723 c 1
 1118 720.333333333 1121.66666667 716.333333333 1129 711 c 1
 1182 677 1182 677 1234 643 c 0
 1276 615.666666667 1306.66666667 587.333333333 1326 558 c 0
 1359.33333333 506 1375.66666667 435 1375 345 c 0
 1374.33333333 255.666666667 1340.83333333 175.666666667 1274.5 105 c 128
 1208.16666667 34.3333333333 1133 -1 1049 -1 c 0
 988.333333333 -1 935.333333333 16 890 50 c 0
 871.333333333 64.6666666667 832.333333333 105.333333333 773 172 c 1
 769 169.333333333 765.666666667 168.333333333 763 169 c 0
 761.666666667 169 760.5 169.5 759.5 170.5 c 128
 758.5 171.5 758 173 758 175 c 0
 757.333333333 188.333333333 767 212.666666667 787 248 c 1
155 559 m 1
 155 582.333333333 163.666666667 605.333333333 181 628 c 0
 201 654.666666667 213 679.333333333 217 702 c 1
 222.333333333 694 229.333333333 681.333333333 238 664 c 1
 243.333333333 653.333333333 245.666666667 579 245 441 c 0
 245 197 245 197 245 191 c 1
 314.333333333 121.666666667 410.333333333 87 533 87 c 0
 606.333333333 87 669 109 721 153 c 0
 776.333333333 199.666666667 804.333333333 259 805 331 c 0
 805 476.333333333 721 607.333333333 553 724 c 1
 595.666666667 761.333333333 636 780 674 780 c 0
 692.666666667 780 729.333333333 763.333333333 784 730 c 0
 836.666666667 698 868.666666667 673 880 655 c 1
 789.333333333 690.333333333 730 708 702 708 c 0
 701.333333333 708 698.666666667 707.333333333 694 706 c 1
 829.333333333 607.333333333 897 481.666666667 897 329 c 0
 897 239 864.666666667 160.333333333 800 93 c 0
 734.666666667 24.3333333333 657.333333333 -9.66666666667 568 -9 c 0
 420 -9 308.333333333 24.6666666667 233 92 c 1
 217.666666667 91.3333333333 207.666666667 84.3333333333 203 71 c 0
 195.666666667 52.3333333333 191 42.3333333333 189 41 c 1
 166.333333333 50.3333333333 155 109.333333333 155 218 c 2
 155 559 l 1
227 110 m 0
 227 78 215 50 191 26 c 128
 167 2 139 -10 107 -10 c 0
 75 -10 46.8333333333 2 22.5 26 c 128
 -1.83333333333 50 -14 78 -14 110 c 0
 -14 142 -2 170 22 194 c 128
 46 218 74.3333333333 230 107 230 c 0
 139 230 167 218 191 194 c 128
 215 170 227 142 227 110 c 0
158 112 m 0
 158 144.666666667 141.666666667 161 109 161 c 256
 77 161 61 144.666666667 61 112 c 0
 61 78.6666666667 77 62 109 62 c 256
 141.666666667 62 158 78.6666666667 158 112 c 0
241 651 m 0
 241 619 229 591 205 567 c 128
 181 543 153 531 121 531 c 0
 89 531 60.8333333333 543 36.5 567 c 128
 12.1666666667 591 1.7763568394e-15 619 0 651 c 0
 0 683 12.1666666667 711.166666667 36.5 735.5 c 128
 60.8333333333 759.833333333 89 772 121 772 c 0
 153 772 181 759.833333333 205 735.5 c 128
 229 711.166666667 241 683 241 651 c 0
172 653 m 0
 172 686.333333333 155.666666667 702.666666667 123 702 c 256
 91 702 75 685.666666667 75 653 c 0
 75 620.333333333 91 603.666666667 123 603 c 256
 155.666666667 603.666666667 172 620.333333333 172 653 c 0
EndSplineSet
EndChar

StartChar: uni1A55
Encoding: 6741 6741 55
Width: 294
VWidth: 2260
Flags: HW
LayerCount: 2
Back
SplineSet
1662 1241 m 2
 1626 1249.66666667 1562.66666667 1268.66666667 1472 1298 c 0
 1365.33333333 1332.66666667 1276.33333333 1357.33333333 1205 1372 c 0
 1093 1395.33333333 1003.66666667 1407 937 1407 c 0
 833 1407 723.666666667 1392.66666667 609 1364 c 0
 472.333333333 1330 365.666666667 1279.66666667 289 1213 c 0
 192.333333333 1129.66666667 145.666666667 1032.33333333 149 921 c 2
 150 871 l 1
 149.333333333 725.666666667 150 451.333333333 152 48 c 1
 153.333333333 -53.3333333333 206.333333333 -133.666666667 311 -193 c 0
 399.666666667 -243.666666667 500.666666667 -269 614 -269 c 0
 656.666666667 -269 694.333333333 -264.666666667 727 -256 c 0
 745 -250.666666667 758 -238 766 -218 c 1
 773 -190 773 -190 780 -162 c 1
 784.666666667 -146 794.333333333 -143.666666667 809 -155 c 0
 829.666666667 -171.666666667 840 -191.333333333 840 -214 c 0
 840 -276 812.666666667 -314.333333333 758 -329 c 1
 708.666666667 -342.333333333 654 -349.333333333 594 -350 c 0
 458 -350 340 -319.333333333 240 -258 c 0
 124.666666667 -188 66 -92.6666666667 64 28 c 2
 63 110 l 1
 59 914 l 1
 55.6666666667 1086.66666667 138.666666667 1228.33333333 308 1339 c 0
 468.666666667 1444.33333333 660.333333333 1497 883 1497 c 0
 953 1497 1038 1486 1138 1464 c 0
 1227.33333333 1444.66666667 1322 1413 1422 1369 c 0
 1486.66666667 1341 1581 1294.66666667 1705 1230 c 1
 1662 1241 l 2
707 -320 m 256
 669 -320 636.833333333 -306.833333333 610.5 -280.5 c 128
 584.166666667 -254.166666667 571 -222.333333333 571 -185 c 256
 571 -147.666666667 584.333333333 -116 611 -90 c 128
 637.666666667 -64 669.666666667 -51 707 -51 c 256
 745 -51 777.333333333 -64.1666666667 804 -90.5 c 128
 830.666666667 -116.833333333 844 -148.333333333 844 -185 c 256
 844 -222.333333333 830.666666667 -254.166666667 804 -280.5 c 128
 777.333333333 -306.833333333 745 -320 707 -320 c 256
708 -129 m 256
 666 -129 645 -148.666666667 645 -188 c 256
 645 -227.333333333 666 -247 708 -247 c 256
 750 -247 771 -227.333333333 771 -188 c 256
 771 -148.666666667 750 -129 708 -129 c 256
EndSplineSet
Fore
SplineSet
1662 1241 m 2
 1626 1249.66666667 1562.66666667 1268.66666667 1472 1298 c 0
 1365.33333333 1332.66666667 1276.33333333 1357.33333333 1205 1372 c 0
 1093 1395.33333333 1003.66666667 1407 937 1407 c 0
 833 1407 723.666666667 1392.66666667 609 1364 c 0
 472.333333333 1330 365.666666667 1279.66666667 289 1213 c 0
 192.333333333 1129.66666667 145.666666667 1032.33333333 149 921 c 2
 150 871 l 1
 149.333333333 725.666666667 150 451.333333333 152 48 c 1
 153.333333333 -53.3333333333 206.333333333 -133.666666667 311 -193 c 0
 399.666666667 -243.666666667 500.666666667 -269 614 -269 c 0
 656.666666667 -269 694.333333333 -264.666666667 727 -256 c 0
 745 -250.666666667 758 -238 766 -218 c 1
 773 -190 773 -190 780 -162 c 1
 784.666666667 -146 794.333333333 -143.666666667 809 -155 c 0
 829.666666667 -171.666666667 840 -191.333333333 840 -214 c 0
 840 -276 812.666666667 -314.333333333 758 -329 c 1
 708.666666667 -342.333333333 654 -349.333333333 594 -350 c 0
 458 -350 340 -319.333333333 240 -258 c 0
 124.666666667 -188 66 -92.6666666667 64 28 c 2
 63 110 l 1
 59 914 l 1
 55.6666666667 1086.66666667 138.666666667 1228.33333333 308 1339 c 0
 468.666666667 1444.33333333 660.333333333 1497 883 1497 c 0
 953 1497 1038 1486 1138 1464 c 0
 1227.33333333 1444.66666667 1322 1413 1422 1369 c 0
 1486.66666667 1341 1581 1294.66666667 1705 1230 c 1
 1662 1241 l 2
707 -320 m 256
 669 -320 636.833333333 -306.833333333 610.5 -280.5 c 128
 584.166666667 -254.166666667 571 -222.333333333 571 -185 c 256
 571 -147.666666667 584.333333333 -116 611 -90 c 128
 637.666666667 -64 669.666666667 -51 707 -51 c 256
 745 -51 777.333333333 -64.1666666667 804 -90.5 c 128
 830.666666667 -116.833333333 844 -148.333333333 844 -185 c 256
 844 -222.333333333 830.666666667 -254.166666667 804 -280.5 c 128
 777.333333333 -306.833333333 745 -320 707 -320 c 256
708 -129 m 256
 666 -129 645 -148.666666667 645 -188 c 256
 645 -227.333333333 666 -247 708 -247 c 256
 750 -247 771 -227.333333333 771 -188 c 256
 771 -148.666666667 750 -129 708 -129 c 256
EndSplineSet
EndChar

StartChar: uni1A56
Encoding: 6742 6742 56
Width: 0
VWidth: 2260
Flags: HW
LayerCount: 2
Back
SplineSet
-131 -89 m 1
 -110 -112 -110 -112 -87 -135 c 1
 -73.6666666667 -151.666666667 -67 -171.333333333 -67 -194 c 0
 -67 -248.666666667 -90.3333333333 -294.333333333 -137 -331 c 0
 -179.666666667 -365 -228.666666667 -381.666666667 -284 -381 c 0
 -350.666666667 -381 -410.333333333 -348 -463 -282 c 128
 -515.666666667 -216 -570.333333333 -183 -627 -183 c 0
 -671 -183 -707.333333333 -195.666666667 -736 -221 c 1
 -766 -247 -781 -282.333333333 -781 -327 c 0
 -781 -338.333333333 -777 -353.833333333 -769 -373.5 c 128
 -761 -393.166666667 -757 -408.666666667 -757 -420 c 0
 -757 -436 -763.333333333 -444 -776 -444 c 0
 -785.333333333 -444 -798 -436.333333333 -814 -421 c 128
 -830 -405.666666667 -839.333333333 -393 -842 -383 c 0
 -848.666666667 -358.333333333 -852.333333333 -330.666666667 -853 -300 c 0
 -853 -166 -768.666666667 -98.6666666667 -600 -98 c 0
 -543.333333333 -98 -497.333333333 -115 -462 -149 c 1
 -425 -196 -425 -196 -388 -244 c 1
 -360 -278 -326 -295 -286 -295 c 0
 -254.666666667 -295 -224.666666667 -286.333333333 -196 -269 c 1
 -162 -249.666666667 -144.666666667 -225.333333333 -144 -196 c 0
 -144 -163.333333333 -170 -135 -222 -111 c 1
 -206 -45.6666666667 -176.333333333 -12.6666666667 -133 -12 c 0
 -90.3333333333 -12 -43 -72.3333333333 9 -193 c 1
 -21 -168.333333333 -67.6666666667 -133.666666667 -131 -89 c 1
-733 -459 m 0
 -788.333333333 -459 -816 -436.333333333 -816 -391 c 0
 -816 -369.666666667 -807.666666667 -351.333333333 -791 -336 c 128
 -774.333333333 -320.666666667 -755 -313 -733 -313 c 0
 -712.333333333 -313 -693.333333333 -320 -676 -334 c 128
 -658.666666667 -348 -650 -365.333333333 -650 -386 c 0
 -650 -406.666666667 -658.666666667 -424 -676 -438 c 128
 -693.333333333 -452 -712.333333333 -459 -733 -459 c 0
-732 -372 m 256
 -744.666666667 -372 -751 -377.333333333 -751 -388 c 256
 -751 -398.666666667 -744.666666667 -403.666666667 -732 -403 c 256
 -719.333333333 -403 -713 -398 -713 -388 c 256
 -713 -377.333333333 -719.333333333 -372 -732 -372 c 256
EndSplineSet
Fore
SplineSet
-131 -89 m 1
 -110 -112 -110 -112 -87 -135 c 1
 -73.6666666667 -151.666666667 -67 -171.333333333 -67 -194 c 0
 -67 -248.666666667 -90.3333333333 -294.333333333 -137 -331 c 0
 -179.666666667 -365 -228.666666667 -381.666666667 -284 -381 c 0
 -350.666666667 -381 -410.333333333 -348 -463 -282 c 128
 -515.666666667 -216 -570.333333333 -183 -627 -183 c 0
 -671 -183 -707.333333333 -195.666666667 -736 -221 c 1
 -766 -247 -781 -282.333333333 -781 -327 c 0
 -781 -338.333333333 -777 -353.833333333 -769 -373.5 c 128
 -761 -393.166666667 -757 -408.666666667 -757 -420 c 0
 -757 -436 -763.333333333 -444 -776 -444 c 0
 -785.333333333 -444 -798 -436.333333333 -814 -421 c 128
 -830 -405.666666667 -839.333333333 -393 -842 -383 c 0
 -848.666666667 -358.333333333 -852.333333333 -330.666666667 -853 -300 c 0
 -853 -166 -768.666666667 -98.6666666667 -600 -98 c 0
 -543.333333333 -98 -497.333333333 -115 -462 -149 c 1
 -425 -196 -425 -196 -388 -244 c 1
 -360 -278 -326 -295 -286 -295 c 0
 -254.666666667 -295 -224.666666667 -286.333333333 -196 -269 c 1
 -162 -249.666666667 -144.666666667 -225.333333333 -144 -196 c 0
 -144 -163.333333333 -170 -135 -222 -111 c 1
 -206 -45.6666666667 -176.333333333 -12.6666666667 -133 -12 c 0
 -90.3333333333 -12 -43 -72.3333333333 9 -193 c 1
 -21 -168.333333333 -67.6666666667 -133.666666667 -131 -89 c 1
-733 -459 m 0
 -788.333333333 -459 -816 -436.333333333 -816 -391 c 0
 -816 -369.666666667 -807.666666667 -351.333333333 -791 -336 c 128
 -774.333333333 -320.666666667 -755 -313 -733 -313 c 0
 -712.333333333 -313 -693.333333333 -320 -676 -334 c 128
 -658.666666667 -348 -650 -365.333333333 -650 -386 c 0
 -650 -406.666666667 -658.666666667 -424 -676 -438 c 128
 -693.333333333 -452 -712.333333333 -459 -733 -459 c 0
-732 -372 m 256
 -744.666666667 -372 -751 -377.333333333 -751 -388 c 256
 -751 -398.666666667 -744.666666667 -403.666666667 -732 -403 c 256
 -719.333333333 -403 -713 -398 -713 -388 c 256
 -713 -377.333333333 -719.333333333 -372 -732 -372 c 256
EndSplineSet
EndChar

StartChar: uni1A53
Encoding: 6739 6739 57
Width: 289
VWidth: 2260
Flags: HW
LayerCount: 2
Back
SplineSet
49 737 m 1
 115.666666667 667.666666667 149.333333333 607.333333333 150 556 c 2
 150 -28 l 2
 150 -116.666666667 126.666666667 -205.333333333 80 -294 c 0
 24.6666666667 -399.333333333 -43.6666666667 -451.666666667 -125 -451 c 0
 -188.333333333 -451 -245.666666667 -423.666666667 -297 -369 c 1
 -358 -292 -358 -292 -419 -215 c 1
 -448.333333333 -181.666666667 -477 -159.666666667 -505 -149 c 1
 -545.666666667 -153 -585.333333333 -171 -624 -203 c 0
 -666 -237.666666667 -687 -274 -687 -312 c 0
 -687 -341.333333333 -667.666666667 -385.666666667 -629 -445 c 0
 -621 -457.666666667 -616.666666667 -467.666666667 -616 -475 c 1
 -625.333333333 -486.333333333 -641 -501.666666667 -663 -521 c 1
 -667 -515.666666667 -677 -506.333333333 -693 -493 c 0
 -740.333333333 -454.333333333 -764 -394.666666667 -764 -314 c 0
 -764 -256.666666667 -734 -201.666666667 -674 -149 c 0
 -616 -97.6666666667 -558 -72 -500 -72 c 0
 -453.333333333 -72 -407 -104.333333333 -361 -169 c 0
 -304.333333333 -250.333333333 -272 -295.333333333 -264 -304 c 0
 -220.666666667 -350 -171.666666667 -372.666666667 -117 -372 c 0
 -60.3333333333 -372 -11.3333333333 -327 30 -237 c 0
 64.6666666667 -161 82.3333333333 -89 83 -21 c 2
 83 564 l 2
 83 598 37.3333333333 662.333333333 -54 757 c 1
 -10 785 31.6666666667 799 71 799 c 0
 143.666666667 799 192.666666667 738 218 616 c 1
 143.333333333 697.333333333 88.6666666667 738 54 738 c 0
 52 737.333333333 50.3333333333 737 49 737 c 1
-588 -541 m 0
 -624.666666667 -541 -656.166666667 -528.166666667 -682.5 -502.5 c 128
 -708.833333333 -476.833333333 -722 -445.333333333 -722 -408 c 0
 -722 -371.333333333 -708.833333333 -340.166666667 -682.5 -314.5 c 128
 -656.166666667 -288.833333333 -624.666666667 -276 -588 -276 c 0
 -551.333333333 -276 -519.666666667 -289 -493 -315 c 128
 -466.333333333 -341 -453 -372 -453 -408 c 0
 -453 -444.666666667 -466.333333333 -476 -493 -502 c 128
 -519.666666667 -528 -551.333333333 -541 -588 -541 c 0
-585 -361 m 0
 -619.666666667 -361 -637 -378.333333333 -637 -413 c 256
 -637 -447.666666667 -619.666666667 -465 -585 -465 c 0
 -550.333333333 -465 -533 -447.666666667 -533 -413 c 256
 -533 -378.333333333 -550.333333333 -361 -585 -361 c 0
EndSplineSet
Fore
SplineSet
49 737 m 1
 115.666666667 667.666666667 149.333333333 607.333333333 150 556 c 2
 150 -28 l 2
 150 -116.666666667 126.666666667 -205.333333333 80 -294 c 0
 24.6666666667 -399.333333333 -43.6666666667 -451.666666667 -125 -451 c 0
 -188.333333333 -451 -245.666666667 -423.666666667 -297 -369 c 1
 -358 -292 -358 -292 -419 -215 c 1
 -448.333333333 -181.666666667 -477 -159.666666667 -505 -149 c 1
 -545.666666667 -153 -585.333333333 -171 -624 -203 c 0
 -666 -237.666666667 -687 -274 -687 -312 c 0
 -687 -341.333333333 -667.666666667 -385.666666667 -629 -445 c 0
 -621 -457.666666667 -616.666666667 -467.666666667 -616 -475 c 1
 -625.333333333 -486.333333333 -641 -501.666666667 -663 -521 c 1
 -667 -515.666666667 -677 -506.333333333 -693 -493 c 0
 -740.333333333 -454.333333333 -764 -394.666666667 -764 -314 c 0
 -764 -256.666666667 -734 -201.666666667 -674 -149 c 0
 -616 -97.6666666667 -558 -72 -500 -72 c 0
 -453.333333333 -72 -407 -104.333333333 -361 -169 c 0
 -304.333333333 -250.333333333 -272 -295.333333333 -264 -304 c 0
 -220.666666667 -350 -171.666666667 -372.666666667 -117 -372 c 0
 -60.3333333333 -372 -11.3333333333 -327 30 -237 c 0
 64.6666666667 -161 82.3333333333 -89 83 -21 c 2
 83 564 l 2
 83 598 37.3333333333 662.333333333 -54 757 c 1
 -10 785 31.6666666667 799 71 799 c 0
 143.666666667 799 192.666666667 738 218 616 c 1
 143.333333333 697.333333333 88.6666666667 738 54 738 c 0
 52 737.333333333 50.3333333333 737 49 737 c 1
-588 -541 m 0
 -624.666666667 -541 -656.166666667 -528.166666667 -682.5 -502.5 c 128
 -708.833333333 -476.833333333 -722 -445.333333333 -722 -408 c 0
 -722 -371.333333333 -708.833333333 -340.166666667 -682.5 -314.5 c 128
 -656.166666667 -288.833333333 -624.666666667 -276 -588 -276 c 0
 -551.333333333 -276 -519.666666667 -289 -493 -315 c 128
 -466.333333333 -341 -453 -372 -453 -408 c 0
 -453 -444.666666667 -466.333333333 -476 -493 -502 c 128
 -519.666666667 -528 -551.333333333 -541 -588 -541 c 0
-585 -361 m 0
 -619.666666667 -361 -637 -378.333333333 -637 -413 c 256
 -637 -447.666666667 -619.666666667 -465 -585 -465 c 0
 -550.333333333 -465 -533 -447.666666667 -533 -413 c 256
 -533 -378.333333333 -550.333333333 -361 -585 -361 c 0
EndSplineSet
EndChar

StartChar: uni1A4D
Encoding: 6733 6733 58
Width: 1131
VWidth: 2260
Flags: HW
LayerCount: 2
Back
SplineSet
838 160 m 1
 843.333333333 156.666666667 849 155 855 155 c 0
 881 155 924 183 984 239 c 1
 938.666666667 144.333333333 879 97 805 97 c 0
 777 97 754.333333333 105.333333333 737 122 c 1
 735 142 734 154.666666667 734 160 c 0
 734 172 740.666666667 184.333333333 754 197 c 1
 899.333333333 249.666666667 972 331 972 441 c 0
 972 503 954.666666667 561.333333333 920 616 c 0
 879.333333333 679.333333333 828.333333333 710 767 708 c 0
 687.666666667 705.333333333 614 665.333333333 546 588 c 1
 469.333333333 676.666666667 395 721 323 721 c 0
 259.666666667 721 205.333333333 689.666666667 160 627 c 1
 118 569.666666667 97 508.333333333 97 443 c 0
 97 321.666666667 146 242.333333333 244 205 c 1
 281 194 281 194 346 175 c 1
 378 165 394.333333333 151.666666667 395 135 c 0
 395 121.666666667 376.333333333 115 339 115 c 0
 242.333333333 115 163.5 144.833333333 102.5 204.5 c 128
 41.5 264.166666667 11 341.333333333 11 436 c 0
 11 527.333333333 39.3333333333 610.333333333 96 685 c 1
 158 765.666666667 232.666666667 806 320 806 c 0
 408.666666667 806 484 771 546 701 c 1
 608.666666667 767 687.333333333 799.666666667 782 799 c 0
 860 799 926.333333333 761 981 685 c 1
 1033 612.333333333 1058 530 1056 438 c 0
 1052.66666667 332.666666667 980 240 838 160 c 1
464 56 m 1
 466.666666667 46 468 36.3333333333 468 27 c 0
 468 -22.3333333333 426.333333333 -47 343 -47 c 0
 253 -47 209 -19.6666666667 211 35 c 256
 212.333333333 89.6666666667 271 116.666666667 387 116 c 0
 697 116 871 71.3333333333 909 -18 c 1
 757 30 608.666666667 54.6666666667 464 56 c 1
326 114 m 256
 296.666666667 114 271.166666667 124.833333333 249.5 146.5 c 128
 227.833333333 168.166666667 217 193.666666667 217 223 c 256
 217 252.333333333 227.833333333 277.833333333 249.5 299.5 c 128
 271.166666667 321.166666667 296.666666667 332 326 332 c 256
 355.333333333 332 380.833333333 321.166666667 402.5 299.5 c 128
 424.166666667 277.833333333 435 252.333333333 435 223 c 256
 435 193.666666667 424.166666667 168.166666667 402.5 146.5 c 128
 380.833333333 124.833333333 355.333333333 114 326 114 c 256
328 274 m 256
 298.666666667 274 284.333333333 257 285 223 c 0
 285 194.333333333 299.333333333 180 328 180 c 256
 357.333333333 180 372 194.333333333 372 223 c 0
 372 257 357.333333333 274 328 274 c 256
335 62 m 0
 303.666666667 62 288.333333333 51.3333333333 289 30 c 0
 289 10 307.666666667 0 345 0 c 0
 376.333333333 0 392.333333333 10.6666666667 393 32 c 0
 392.333333333 52 373 62 335 62 c 0
EndSplineSet
Fore
SplineSet
838 160 m 1
 843.333333333 156.666666667 849 155 855 155 c 0
 881 155 924 183 984 239 c 1
 938.666666667 144.333333333 879 97 805 97 c 0
 777 97 754.333333333 105.333333333 737 122 c 1
 735 142 734 154.666666667 734 160 c 0
 734 172 740.666666667 184.333333333 754 197 c 1
 899.333333333 249.666666667 972 331 972 441 c 0
 972 503 954.666666667 561.333333333 920 616 c 0
 879.333333333 679.333333333 828.333333333 710 767 708 c 0
 687.666666667 705.333333333 614 665.333333333 546 588 c 1
 469.333333333 676.666666667 395 721 323 721 c 0
 259.666666667 721 205.333333333 689.666666667 160 627 c 1
 118 569.666666667 97 508.333333333 97 443 c 0
 97 321.666666667 146 242.333333333 244 205 c 1
 281 194 281 194 346 175 c 1
 378 165 394.333333333 151.666666667 395 135 c 0
 395 121.666666667 376.333333333 115 339 115 c 0
 242.333333333 115 163.5 144.833333333 102.5 204.5 c 128
 41.5 264.166666667 11 341.333333333 11 436 c 0
 11 527.333333333 39.3333333333 610.333333333 96 685 c 1
 158 765.666666667 232.666666667 806 320 806 c 0
 408.666666667 806 484 771 546 701 c 1
 608.666666667 767 687.333333333 799.666666667 782 799 c 0
 860 799 926.333333333 761 981 685 c 1
 1033 612.333333333 1058 530 1056 438 c 0
 1052.66666667 332.666666667 980 240 838 160 c 1
464 56 m 1
 466.666666667 46 468 36.3333333333 468 27 c 0
 468 -22.3333333333 426.333333333 -47 343 -47 c 0
 253 -47 209 -19.6666666667 211 35 c 256
 212.333333333 89.6666666667 271 116.666666667 387 116 c 0
 697 116 871 71.3333333333 909 -18 c 1
 757 30 608.666666667 54.6666666667 464 56 c 1
326 114 m 256
 296.666666667 114 271.166666667 124.833333333 249.5 146.5 c 128
 227.833333333 168.166666667 217 193.666666667 217 223 c 256
 217 252.333333333 227.833333333 277.833333333 249.5 299.5 c 128
 271.166666667 321.166666667 296.666666667 332 326 332 c 256
 355.333333333 332 380.833333333 321.166666667 402.5 299.5 c 128
 424.166666667 277.833333333 435 252.333333333 435 223 c 256
 435 193.666666667 424.166666667 168.166666667 402.5 146.5 c 128
 380.833333333 124.833333333 355.333333333 114 326 114 c 256
328 274 m 256
 298.666666667 274 284.333333333 257 285 223 c 0
 285 194.333333333 299.333333333 180 328 180 c 256
 357.333333333 180 372 194.333333333 372 223 c 0
 372 257 357.333333333 274 328 274 c 256
335 62 m 0
 303.666666667 62 288.333333333 51.3333333333 289 30 c 0
 289 10 307.666666667 0 345 0 c 0
 376.333333333 0 392.333333333 10.6666666667 393 32 c 0
 392.333333333 52 373 62 335 62 c 0
EndSplineSet
EndChar

StartChar: uni1A4E
Encoding: 6734 6734 59
Width: 1346
VWidth: 2260
Flags: HW
LayerCount: 2
Back
SplineSet
1300 1489 m 1
 1300 1482.33333333 1298 1473.33333333 1294 1462 c 0
 1250 1350 1164.66666667 1294 1038 1294 c 0
 952.666666667 1294 834.833333333 1324.33333333 684.5 1385 c 128
 534.166666667 1445.66666667 443.333333333 1476 412 1476 c 0
 406 1476 393.333333333 1471 374 1461 c 0
 354 1451 343.666666667 1443.66666667 343 1439 c 0
 343 1438.33333333 350 1436 364 1432 c 1
 413 1415 413 1415 513 1382 c 1
 732.333333333 1313.33333333 897.333333333 1239.66666667 1008 1161 c 0
 1117.33333333 1083.66666667 1173.33333333 987.666666667 1176 873 c 0
 1178.66666667 747 1180 577.666666667 1180 365 c 0
 1180 141.666666667 1156.33333333 -9.66666666667 1109 -89 c 0
 1045.66666667 -194.333333333 915.666666667 -248.333333333 719 -251 c 1
 706 -251 l 1
 660 -251.666666667 607 -241.666666667 547 -221 c 0
 471.666666667 -195.666666667 434 -165 434 -129 c 0
 434 -111.666666667 449.333333333 -103 480 -103 c 0
 483.333333333 -103 490 -103.666666667 500 -105 c 1
 566.666666667 -143 640.666666667 -162 722 -162 c 0
 881.333333333 -162 986.666666667 -117.666666667 1038 -29 c 1
 1075.33333333 34.3333333333 1094 151.666666667 1094 323 c 0
 1094 366.333333333 1094.5 431.166666667 1095.5 517.5 c 128
 1096.5 603.833333333 1097 668.666666667 1097 712 c 0
 1097 816 1090 889.333333333 1076 932 c 0
 1055.33333333 995.333333333 1010 1051.66666667 940 1101 c 0
 845.333333333 1167.66666667 711 1227 537 1279 c 0
 391.666666667 1323 246.333333333 1354.33333333 101 1373 c 1
 92 1364 l 1
 94 1378.66666667 130 1410 200 1458 c 0
 263.333333333 1501.33333333 308 1528 334 1538 c 0
 377.333333333 1556 416.333333333 1565 451 1565 c 0
 483.666666667 1565 570.333333333 1534 711 1472 c 128
 851.666666667 1410 963.666666667 1379 1047 1379 c 0
 1122.33333333 1379 1191.33333333 1403.33333333 1254 1452 c 1
 1264 1461.33333333 1279.33333333 1473.66666667 1300 1489 c 1
685 -57 m 256
 685 -95.6666666667 671.333333333 -129 644 -157 c 128
 616.666666667 -185 584 -199 546 -199 c 0
 507.333333333 -199 474.333333333 -185 447 -157 c 128
 419.666666667 -129 406 -95.6666666667 406 -57 c 256
 406 -18.3333333333 419.666666667 15 447 43 c 128
 474.333333333 71 507.333333333 85 546 85 c 0
 584 85 616.666666667 71 644 43 c 128
 671.333333333 15 685 -18.3333333333 685 -57 c 256
610 -57 m 0
 610 -15.6666666667 588.666666667 5 546 5 c 256
 503.333333333 5 482.333333333 -15.6666666667 483 -57 c 0
 483 -98.3333333333 504 -119 546 -119 c 256
 588.666666667 -119 610 -98.3333333333 610 -57 c 0
826 209 m 1
 829 209 l 1
 851 207.666666667 883.333333333 226.333333333 926 265 c 0
 932 271 948.333333333 286 975 310 c 1
 920.333333333 197.333333333 855 141 779 141 c 0
 749.666666667 141 725.666666667 149.666666667 707 167 c 1
 705 188.333333333 704 202 704 208 c 0
 704 221.333333333 711.333333333 235 726 249 c 1
 868 300.333333333 939 379 939 485 c 0
 939 543 922.333333333 595.666666667 889 643 c 0
 851 696.333333333 801.666666667 722.333333333 741 721 c 1
 664.333333333 718.333333333 591.666666667 677.666666667 523 599 c 1
 445.666666667 688.333333333 372 733.333333333 302 734 c 0
 240.666666667 734 188.333333333 707.666666667 145 655 c 0
 104.333333333 605 84.3333333333 549 85 487 c 0
 85 369.666666667 132.333333333 293 227 257 c 1
 251.666666667 250.333333333 285 240.666666667 327 228 c 0
 361.666666667 217.333333333 379 202.333333333 379 183 c 0
 379 166.333333333 358.666666667 158 318 158 c 0
 220.666666667 158 141.333333333 188 80 248 c 128
 18.6666666667 308 -12 385.333333333 -12 480 c 0
 -12 570 16.6666666667 649.666666667 74 719 c 1
 134.666666667 793 210 829.666666667 300 829 c 0
 386.666666667 829 461 795 523 727 c 1
 585.666666667 790.333333333 663.666666667 822 757 822 c 0
 837 822 904 787.333333333 958 718 c 0
 1010.66666667 651.333333333 1035.66666667 573 1033 483 c 1
 1030.33333333 378.333333333 961.333333333 287 826 209 c 1
449 100 m 1
 451 92 452 84 452 76 c 0
 452 24 409 -2 323 -2 c 0
 230.333333333 -2 184.666666667 27 186 85 c 0
 187.333333333 142.333333333 247.333333333 171 366 171 c 0
 675.333333333 171 850.666666667 121.666666667 892 23 c 1
 735.333333333 73 587.666666667 98.6666666667 449 100 c 1
305 157 m 0
 274.333333333 157 247.833333333 168.333333333 225.5 191 c 128
 203.166666667 213.666666667 192 240 192 270 c 0
 192 300.666666667 203.333333333 327.333333333 226 350 c 128
 248.666666667 372.666666667 275 384 305 384 c 0
 335.666666667 384 362.333333333 372.666666667 385 350 c 128
 407.666666667 327.333333333 419 300.666666667 419 270 c 0
 419 239.333333333 407.666666667 212.833333333 385 190.5 c 128
 362.333333333 168.166666667 335.666666667 157 305 157 c 0
308 314 m 0
 282.666666667 314 270 299.333333333 270 270 c 0
 270 245.333333333 282.666666667 233 308 233 c 0
 333.333333333 233 346 245.666666667 346 271 c 0
 346 299.666666667 333.333333333 314 308 314 c 0
315 105 m 0
 288.333333333 105 275 96.6666666667 275 80 c 0
 275 64 291.333333333 56 324 56 c 0
 352 56 366 64.6666666667 366 82 c 0
 366 97.3333333333 349 105 315 105 c 0
EndSplineSet
Fore
SplineSet
1300 1489 m 1
 1300 1482.33333333 1298 1473.33333333 1294 1462 c 0
 1250 1350 1164.66666667 1294 1038 1294 c 0
 952.666666667 1294 834.833333333 1324.33333333 684.5 1385 c 128
 534.166666667 1445.66666667 443.333333333 1476 412 1476 c 0
 406 1476 393.333333333 1471 374 1461 c 0
 354 1451 343.666666667 1443.66666667 343 1439 c 0
 343 1438.33333333 350 1436 364 1432 c 1
 413 1415 413 1415 513 1382 c 1
 732.333333333 1313.33333333 897.333333333 1239.66666667 1008 1161 c 0
 1117.33333333 1083.66666667 1173.33333333 987.666666667 1176 873 c 0
 1178.66666667 747 1180 577.666666667 1180 365 c 0
 1180 141.666666667 1156.33333333 -9.66666666667 1109 -89 c 0
 1045.66666667 -194.333333333 915.666666667 -248.333333333 719 -251 c 1
 706 -251 l 1
 660 -251.666666667 607 -241.666666667 547 -221 c 0
 471.666666667 -195.666666667 434 -165 434 -129 c 0
 434 -111.666666667 449.333333333 -103 480 -103 c 0
 483.333333333 -103 490 -103.666666667 500 -105 c 1
 566.666666667 -143 640.666666667 -162 722 -162 c 0
 881.333333333 -162 986.666666667 -117.666666667 1038 -29 c 1
 1075.33333333 34.3333333333 1094 151.666666667 1094 323 c 0
 1094 366.333333333 1094.5 431.166666667 1095.5 517.5 c 128
 1096.5 603.833333333 1097 668.666666667 1097 712 c 0
 1097 816 1090 889.333333333 1076 932 c 0
 1055.33333333 995.333333333 1010 1051.66666667 940 1101 c 0
 845.333333333 1167.66666667 711 1227 537 1279 c 0
 391.666666667 1323 246.333333333 1354.33333333 101 1373 c 1
 92 1364 l 1
 94 1378.66666667 130 1410 200 1458 c 0
 263.333333333 1501.33333333 308 1528 334 1538 c 0
 377.333333333 1556 416.333333333 1565 451 1565 c 0
 483.666666667 1565 570.333333333 1534 711 1472 c 128
 851.666666667 1410 963.666666667 1379 1047 1379 c 0
 1122.33333333 1379 1191.33333333 1403.33333333 1254 1452 c 1
 1264 1461.33333333 1279.33333333 1473.66666667 1300 1489 c 1
685 -57 m 256
 685 -95.6666666667 671.333333333 -129 644 -157 c 128
 616.666666667 -185 584 -199 546 -199 c 0
 507.333333333 -199 474.333333333 -185 447 -157 c 128
 419.666666667 -129 406 -95.6666666667 406 -57 c 256
 406 -18.3333333333 419.666666667 15 447 43 c 128
 474.333333333 71 507.333333333 85 546 85 c 0
 584 85 616.666666667 71 644 43 c 128
 671.333333333 15 685 -18.3333333333 685 -57 c 256
610 -57 m 0
 610 -15.6666666667 588.666666667 5 546 5 c 256
 503.333333333 5 482.333333333 -15.6666666667 483 -57 c 0
 483 -98.3333333333 504 -119 546 -119 c 256
 588.666666667 -119 610 -98.3333333333 610 -57 c 0
826 209 m 1
 829 209 l 1
 851 207.666666667 883.333333333 226.333333333 926 265 c 0
 932 271 948.333333333 286 975 310 c 1
 920.333333333 197.333333333 855 141 779 141 c 0
 749.666666667 141 725.666666667 149.666666667 707 167 c 1
 705 188.333333333 704 202 704 208 c 0
 704 221.333333333 711.333333333 235 726 249 c 1
 868 300.333333333 939 379 939 485 c 0
 939 543 922.333333333 595.666666667 889 643 c 0
 851 696.333333333 801.666666667 722.333333333 741 721 c 1
 664.333333333 718.333333333 591.666666667 677.666666667 523 599 c 1
 445.666666667 688.333333333 372 733.333333333 302 734 c 0
 240.666666667 734 188.333333333 707.666666667 145 655 c 0
 104.333333333 605 84.3333333333 549 85 487 c 0
 85 369.666666667 132.333333333 293 227 257 c 1
 251.666666667 250.333333333 285 240.666666667 327 228 c 0
 361.666666667 217.333333333 379 202.333333333 379 183 c 0
 379 166.333333333 358.666666667 158 318 158 c 0
 220.666666667 158 141.333333333 188 80 248 c 128
 18.6666666667 308 -12 385.333333333 -12 480 c 0
 -12 570 16.6666666667 649.666666667 74 719 c 1
 134.666666667 793 210 829.666666667 300 829 c 0
 386.666666667 829 461 795 523 727 c 1
 585.666666667 790.333333333 663.666666667 822 757 822 c 0
 837 822 904 787.333333333 958 718 c 0
 1010.66666667 651.333333333 1035.66666667 573 1033 483 c 1
 1030.33333333 378.333333333 961.333333333 287 826 209 c 1
449 100 m 1
 451 92 452 84 452 76 c 0
 452 24 409 -2 323 -2 c 0
 230.333333333 -2 184.666666667 27 186 85 c 0
 187.333333333 142.333333333 247.333333333 171 366 171 c 0
 675.333333333 171 850.666666667 121.666666667 892 23 c 1
 735.333333333 73 587.666666667 98.6666666667 449 100 c 1
305 157 m 0
 274.333333333 157 247.833333333 168.333333333 225.5 191 c 128
 203.166666667 213.666666667 192 240 192 270 c 0
 192 300.666666667 203.333333333 327.333333333 226 350 c 128
 248.666666667 372.666666667 275 384 305 384 c 0
 335.666666667 384 362.333333333 372.666666667 385 350 c 128
 407.666666667 327.333333333 419 300.666666667 419 270 c 0
 419 239.333333333 407.666666667 212.833333333 385 190.5 c 128
 362.333333333 168.166666667 335.666666667 157 305 157 c 0
308 314 m 0
 282.666666667 314 270 299.333333333 270 270 c 0
 270 245.333333333 282.666666667 233 308 233 c 0
 333.333333333 233 346 245.666666667 346 271 c 0
 346 299.666666667 333.333333333 314 308 314 c 0
315 105 m 0
 288.333333333 105 275 96.6666666667 275 80 c 0
 275 64 291.333333333 56 324 56 c 0
 352 56 366 64.6666666667 366 82 c 0
 366 97.3333333333 349 105 315 105 c 0
EndSplineSet
EndChar

StartChar: uni1A50
Encoding: 6736 6736 60
Width: 1017
VWidth: 2260
Flags: HW
LayerCount: 2
Back
SplineSet
429 101 m 256
 429 72.3333333333 418.833333333 48 398.5 28 c 128
 378.166666667 8 353.333333333 -2 324 -2 c 256
 294.666666667 -2 269.833333333 8 249.5 28 c 128
 229.166666667 48 219 72.3333333333 219 101 c 256
 219 129.666666667 229.333333333 153.833333333 250 173.5 c 128
 270.666666667 193.166666667 295.333333333 203 324 203 c 256
 353.333333333 203 378.166666667 193.166666667 398.5 173.5 c 128
 418.833333333 153.833333333 429 129.666666667 429 101 c 256
898 427 m 0
 901.333333333 405 903 383.666666667 903 363 c 0
 903 259 853 153.666666667 753 47 c 0
 707.666666667 -1.66666666667 616.333333333 -66.6666666667 479 -148 c 0
 380.333333333 -206.666666667 331 -260.333333333 331 -309 c 0
 331 -364.333333333 349.666666667 -406 387 -434 c 0
 387.666666667 -434 391.333333333 -416.666666667 398 -382 c 0
 405.333333333 -341.333333333 413.666666667 -313.333333333 423 -298 c 0
 442.333333333 -266.666666667 472.666666667 -239.666666667 514 -217 c 0
 558 -192.333333333 600.666666667 -180 642 -180 c 0
 662.666666667 -180 681.666666667 -183.333333333 699 -190 c 0
 699.666666667 -190 700 -190.333333333 700 -191 c 1
 700 -188.333333333 667.666666667 -203.666666667 603 -237 c 0
 534.333333333 -272.333333333 493 -312.333333333 479 -357 c 0
 472.333333333 -377.666666667 471.333333333 -402.666666667 476 -432 c 0
 480 -460.666666667 485.666666667 -475 493 -475 c 0
 495.666666667 -475 523.666666667 -477.333333333 577 -482 c 0
 620.333333333 -486 649.333333333 -486.333333333 664 -483 c 1
 635 -495 635 -495 575 -519 c 0
 547 -529.666666667 515 -535 479 -535 c 0
 415.666666667 -535 359.333333333 -514 310 -472 c 0
 258 -428 232 -375 232 -313 c 0
 232 -239 281 -175 379 -121 c 2
 652 30 l 1
 759.333333333 114 813 221.666666667 813 353 c 0
 813 371.666666667 811.666666667 391 809 411 c 0
 800.333333333 493.666666667 759.333333333 565.333333333 686 626 c 0
 622.666666667 678.666666667 541 705 441 705 c 0
 353 705 280 678.666666667 222 626 c 0
 132 544.666666667 86.6666666667 449.666666667 86 341 c 0
 86 295.666666667 96.3333333333 253.666666667 117 215 c 0
 138.333333333 173.666666667 160.5 141.666666667 183.5 119 c 128
 206.5 96.3333333333 248.333333333 74.3333333333 309 53 c 0
 364.333333333 33 392.333333333 21.3333333333 393 18 c 0
 393.666666667 16 394 14.3333333333 394 13 c 0
 394 -0.333333333333 360 -7.33333333333 292 -8 c 0
 201.333333333 -8 124 38.6666666667 60 132 c 0
 20 190.666666667 0 262.666666667 0 348 c 0
 0 465.333333333 41.6666666667 568.333333333 125 657 c 0
 213.666666667 752.333333333 316.666666667 800 434 800 c 0
 547.333333333 800 652.333333333 767 749 701 c 0
 827.666666667 646.333333333 877.333333333 555 898 427 c 0
368 96 m 256
 368 125.333333333 353 140 323 140 c 256
 293.666666667 140 279 125.333333333 279 96 c 256
 279 66.6666666667 293.666666667 52 323 52 c 256
 353 52 368 66.6666666667 368 96 c 256
EndSplineSet
Fore
SplineSet
429 101 m 256
 429 72.3333333333 418.833333333 48 398.5 28 c 128
 378.166666667 8 353.333333333 -2 324 -2 c 256
 294.666666667 -2 269.833333333 8 249.5 28 c 128
 229.166666667 48 219 72.3333333333 219 101 c 256
 219 129.666666667 229.333333333 153.833333333 250 173.5 c 128
 270.666666667 193.166666667 295.333333333 203 324 203 c 256
 353.333333333 203 378.166666667 193.166666667 398.5 173.5 c 128
 418.833333333 153.833333333 429 129.666666667 429 101 c 256
898 427 m 0
 901.333333333 405 903 383.666666667 903 363 c 0
 903 259 853 153.666666667 753 47 c 0
 707.666666667 -1.66666666667 616.333333333 -66.6666666667 479 -148 c 0
 380.333333333 -206.666666667 331 -260.333333333 331 -309 c 0
 331 -364.333333333 349.666666667 -406 387 -434 c 0
 387.666666667 -434 391.333333333 -416.666666667 398 -382 c 0
 405.333333333 -341.333333333 413.666666667 -313.333333333 423 -298 c 0
 442.333333333 -266.666666667 472.666666667 -239.666666667 514 -217 c 0
 558 -192.333333333 600.666666667 -180 642 -180 c 0
 662.666666667 -180 681.666666667 -183.333333333 699 -190 c 0
 699.666666667 -190 700 -190.333333333 700 -191 c 1
 700 -188.333333333 667.666666667 -203.666666667 603 -237 c 0
 534.333333333 -272.333333333 493 -312.333333333 479 -357 c 0
 472.333333333 -377.666666667 471.333333333 -402.666666667 476 -432 c 0
 480 -460.666666667 485.666666667 -475 493 -475 c 0
 495.666666667 -475 523.666666667 -477.333333333 577 -482 c 0
 620.333333333 -486 649.333333333 -486.333333333 664 -483 c 1
 635 -495 635 -495 575 -519 c 0
 547 -529.666666667 515 -535 479 -535 c 0
 415.666666667 -535 359.333333333 -514 310 -472 c 0
 258 -428 232 -375 232 -313 c 0
 232 -239 281 -175 379 -121 c 2
 652 30 l 1
 759.333333333 114 813 221.666666667 813 353 c 0
 813 371.666666667 811.666666667 391 809 411 c 0
 800.333333333 493.666666667 759.333333333 565.333333333 686 626 c 0
 622.666666667 678.666666667 541 705 441 705 c 0
 353 705 280 678.666666667 222 626 c 0
 132 544.666666667 86.6666666667 449.666666667 86 341 c 0
 86 295.666666667 96.3333333333 253.666666667 117 215 c 0
 138.333333333 173.666666667 160.5 141.666666667 183.5 119 c 128
 206.5 96.3333333333 248.333333333 74.3333333333 309 53 c 0
 364.333333333 33 392.333333333 21.3333333333 393 18 c 0
 393.666666667 16 394 14.3333333333 394 13 c 0
 394 -0.333333333333 360 -7.33333333333 292 -8 c 0
 201.333333333 -8 124 38.6666666667 60 132 c 0
 20 190.666666667 0 262.666666667 0 348 c 0
 0 465.333333333 41.6666666667 568.333333333 125 657 c 0
 213.666666667 752.333333333 316.666666667 800 434 800 c 0
 547.333333333 800 652.333333333 767 749 701 c 0
 827.666666667 646.333333333 877.333333333 555 898 427 c 0
368 96 m 256
 368 125.333333333 353 140 323 140 c 256
 293.666666667 140 279 125.333333333 279 96 c 256
 279 66.6666666667 293.666666667 52 323 52 c 256
 353 52 368 66.6666666667 368 96 c 256
EndSplineSet
EndChar

StartChar: uni1A4F
Encoding: 6735 6735 61
Width: 1004
VWidth: 2260
Flags: HW
LayerCount: 2
Back
SplineSet
439 101 m 256
 439 72.3333333333 428.833333333 48 408.5 28 c 128
 388.166666667 8 363.333333333 -2 334 -2 c 256
 304.666666667 -2 279.833333333 8 259.5 28 c 128
 239.166666667 48 229 72.3333333333 229 101 c 256
 229 129.666666667 239.166666667 153.833333333 259.5 173.5 c 128
 279.833333333 193.166666667 304.666666667 203 334 203 c 256
 363.333333333 203 388.166666667 193.166666667 408.5 173.5 c 128
 428.833333333 153.833333333 439 129.666666667 439 101 c 256
907 427 m 0
 910.333333333 405 912 383.666666667 912 363 c 0
 912 259 862 153.666666667 762 47 c 0
 716.666666667 -1.66666666667 625.333333333 -66.6666666667 488 -148 c 0
 389.333333333 -206.666666667 340 -260.333333333 340 -309 c 0
 340 -371.666666667 363.333333333 -419.666666667 410 -453 c 0
 450.666666667 -481.666666667 503.666666667 -495.666666667 569 -495 c 0
 601 -495 636 -491 674 -483 c 1
 645 -495 645 -495 585 -519 c 0
 557 -529.666666667 524.666666667 -535 488 -535 c 0
 424.666666667 -535 368.666666667 -514 320 -472 c 0
 268 -428 242 -375 242 -313 c 0
 242 -239 291 -175 389 -121 c 2
 662 30 l 1
 769.333333333 114 822.666666667 221.666666667 822 353 c 0
 822 371.666666667 821 391 819 411 c 0
 810.333333333 493.666666667 769 565.333333333 695 626 c 0
 631.666666667 678.666666667 550 705 450 705 c 0
 362 705 289 678.666666667 231 626 c 0
 141 544.666666667 96 449.666666667 96 341 c 0
 96 295.666666667 106 253.666666667 126 215 c 0
 147.333333333 173.666666667 169.666666667 141.666666667 193 119 c 128
 216.333333333 96.3333333333 258 74.3333333333 318 53 c 0
 373.333333333 33 401.666666667 21.3333333333 403 18 c 0
 403.666666667 16 404 14.3333333333 404 13 c 0
 404 -0.333333333333 369.666666667 -7.33333333333 301 -8 c 0
 210.333333333 -8 133.333333333 38.6666666667 70 132 c 0
 30 190.666666667 9.66666666667 262.666666667 9 348 c 0
 9 465.333333333 50.6666666667 568.333333333 134 657 c 0
 222.666666667 752.333333333 326 800 444 800 c 0
 557.333333333 800 662 767 758 701 c 0
 836.666666667 646.333333333 886.333333333 555 907 427 c 0
377 96 m 256
 377 125.333333333 362.333333333 140 333 140 c 128
 303.666666667 140 289 125.333333333 289 96 c 256
 289 66.6666666667 303.666666667 52 333 52 c 128
 362.333333333 52 377 66.6666666667 377 96 c 256
EndSplineSet
Fore
SplineSet
439 101 m 256
 439 72.3333333333 428.833333333 48 408.5 28 c 128
 388.166666667 8 363.333333333 -2 334 -2 c 256
 304.666666667 -2 279.833333333 8 259.5 28 c 128
 239.166666667 48 229 72.3333333333 229 101 c 256
 229 129.666666667 239.166666667 153.833333333 259.5 173.5 c 128
 279.833333333 193.166666667 304.666666667 203 334 203 c 256
 363.333333333 203 388.166666667 193.166666667 408.5 173.5 c 128
 428.833333333 153.833333333 439 129.666666667 439 101 c 256
907 427 m 0
 910.333333333 405 912 383.666666667 912 363 c 0
 912 259 862 153.666666667 762 47 c 0
 716.666666667 -1.66666666667 625.333333333 -66.6666666667 488 -148 c 0
 389.333333333 -206.666666667 340 -260.333333333 340 -309 c 0
 340 -371.666666667 363.333333333 -419.666666667 410 -453 c 0
 450.666666667 -481.666666667 503.666666667 -495.666666667 569 -495 c 0
 601 -495 636 -491 674 -483 c 1
 645 -495 645 -495 585 -519 c 0
 557 -529.666666667 524.666666667 -535 488 -535 c 0
 424.666666667 -535 368.666666667 -514 320 -472 c 0
 268 -428 242 -375 242 -313 c 0
 242 -239 291 -175 389 -121 c 2
 662 30 l 1
 769.333333333 114 822.666666667 221.666666667 822 353 c 0
 822 371.666666667 821 391 819 411 c 0
 810.333333333 493.666666667 769 565.333333333 695 626 c 0
 631.666666667 678.666666667 550 705 450 705 c 0
 362 705 289 678.666666667 231 626 c 0
 141 544.666666667 96 449.666666667 96 341 c 0
 96 295.666666667 106 253.666666667 126 215 c 0
 147.333333333 173.666666667 169.666666667 141.666666667 193 119 c 128
 216.333333333 96.3333333333 258 74.3333333333 318 53 c 0
 373.333333333 33 401.666666667 21.3333333333 403 18 c 0
 403.666666667 16 404 14.3333333333 404 13 c 0
 404 -0.333333333333 369.666666667 -7.33333333333 301 -8 c 0
 210.333333333 -8 133.333333333 38.6666666667 70 132 c 0
 30 190.666666667 9.66666666667 262.666666667 9 348 c 0
 9 465.333333333 50.6666666667 568.333333333 134 657 c 0
 222.666666667 752.333333333 326 800 444 800 c 0
 557.333333333 800 662 767 758 701 c 0
 836.666666667 646.333333333 886.333333333 555 907 427 c 0
377 96 m 256
 377 125.333333333 362.333333333 140 333 140 c 128
 303.666666667 140 289 125.333333333 289 96 c 256
 289 66.6666666667 303.666666667 52 333 52 c 128
 362.333333333 52 377 66.6666666667 377 96 c 256
EndSplineSet
EndChar

StartChar: uni1A51
Encoding: 6737 6737 62
Width: 796
VWidth: 2260
Flags: HW
LayerCount: 2
Back
SplineSet
379 -498 m 0
 291.666666667 -489.333333333 223.333333333 -471.333333333 174 -444 c 0
 54.6666666667 -377.333333333 -10.3333333333 -229.333333333 -21 0 c 0
 -27 127.333333333 -30.3333333333 215 -31 263 c 0
 -31 667 97 869 353 869 c 0
 467 869 556 824.666666667 620 736 c 0
 676 657.333333333 704 558.666666667 704 440 c 0
 704 320 676.666666667 216.666666667 622 130 c 0
 562 35.3333333333 484.666666667 -12 390 -12 c 0
 336.666666667 -12 289.166666667 6.83333333333 247.5 44.5 c 128
 205.833333333 82.1666666667 183.333333333 127.333333333 180 180 c 0
 178.666666667 207.333333333 184.666666667 233.666666667 198 259 c 0
 212 286.333333333 230 302.333333333 252 307 c 0
 263.333333333 309 269 304.333333333 269 293 c 0
 269 286.333333333 260 271 242 247 c 0
 237.333333333 241 237.333333333 226 242 202 c 128
 246.666666667 178 253.333333333 161.333333333 262 152 c 0
 305.333333333 104 349 80.3333333333 393 81 c 0
 453.666666667 81 506.333333333 122 551 204 c 0
 593 281.333333333 614 365.666666667 614 457 c 0
 614 549.666666667 586.333333333 627 531 689 c 0
 478.333333333 747.666666667 416.666666667 777 346 777 c 0
 267.333333333 777 202.333333333 739.333333333 151 664 c 0
 91.6666666667 576 62 450.333333333 62 287 c 1
 59.3333333333 225.666666667 59.3333333333 130.333333333 62 1 c 1
 80.6666666667 -239.666666667 150.666666667 -381 272 -423 c 0
 293.333333333 -430.333333333 352.666666667 -441 450 -455 c 0
 512.666666667 -463.666666667 580.666666667 -482 654 -510 c 1
 520 -507.333333333 428.333333333 -503.333333333 379 -498 c 0
301 96 m 256
 270.333333333 96 244.166666667 106.833333333 222.5 128.5 c 128
 200.833333333 150.166666667 190 176.666666667 190 208 c 0
 190 238.666666667 200.833333333 265 222.5 287 c 128
 244.166666667 309 270.333333333 320 301 320 c 256
 331.666666667 320 357.833333333 309 379.5 287 c 128
 401.166666667 265 412 238.666666667 412 208 c 0
 412 176.666666667 401.166666667 150.166666667 379.5 128.5 c 128
 357.833333333 106.833333333 331.666666667 96 301 96 c 256
301 251 m 0
 273 251 259 236.666666667 259 208 c 256
 259 179.333333333 273 165 301 165 c 0
 328.333333333 165 342 179.333333333 342 208 c 256
 342 236.666666667 328.333333333 251 301 251 c 0
EndSplineSet
Fore
SplineSet
379 -498 m 0
 291.666666667 -489.333333333 223.333333333 -471.333333333 174 -444 c 0
 54.6666666667 -377.333333333 -10.3333333333 -229.333333333 -21 0 c 0
 -27 127.333333333 -30.3333333333 215 -31 263 c 0
 -31 667 97 869 353 869 c 0
 467 869 556 824.666666667 620 736 c 0
 676 657.333333333 704 558.666666667 704 440 c 0
 704 320 676.666666667 216.666666667 622 130 c 0
 562 35.3333333333 484.666666667 -12 390 -12 c 0
 336.666666667 -12 289.166666667 6.83333333333 247.5 44.5 c 128
 205.833333333 82.1666666667 183.333333333 127.333333333 180 180 c 0
 178.666666667 207.333333333 184.666666667 233.666666667 198 259 c 0
 212 286.333333333 230 302.333333333 252 307 c 0
 263.333333333 309 269 304.333333333 269 293 c 0
 269 286.333333333 260 271 242 247 c 0
 237.333333333 241 237.333333333 226 242 202 c 128
 246.666666667 178 253.333333333 161.333333333 262 152 c 0
 305.333333333 104 349 80.3333333333 393 81 c 0
 453.666666667 81 506.333333333 122 551 204 c 0
 593 281.333333333 614 365.666666667 614 457 c 0
 614 549.666666667 586.333333333 627 531 689 c 0
 478.333333333 747.666666667 416.666666667 777 346 777 c 0
 267.333333333 777 202.333333333 739.333333333 151 664 c 0
 91.6666666667 576 62 450.333333333 62 287 c 1
 59.3333333333 225.666666667 59.3333333333 130.333333333 62 1 c 1
 80.6666666667 -239.666666667 150.666666667 -381 272 -423 c 0
 293.333333333 -430.333333333 352.666666667 -441 450 -455 c 0
 512.666666667 -463.666666667 580.666666667 -482 654 -510 c 1
 520 -507.333333333 428.333333333 -503.333333333 379 -498 c 0
301 96 m 256
 270.333333333 96 244.166666667 106.833333333 222.5 128.5 c 128
 200.833333333 150.166666667 190 176.666666667 190 208 c 0
 190 238.666666667 200.833333333 265 222.5 287 c 128
 244.166666667 309 270.333333333 320 301 320 c 256
 331.666666667 320 357.833333333 309 379.5 287 c 128
 401.166666667 265 412 238.666666667 412 208 c 0
 412 176.666666667 401.166666667 150.166666667 379.5 128.5 c 128
 357.833333333 106.833333333 331.666666667 96 301 96 c 256
301 251 m 0
 273 251 259 236.666666667 259 208 c 256
 259 179.333333333 273 165 301 165 c 0
 328.333333333 165 342 179.333333333 342 208 c 256
 342 236.666666667 328.333333333 251 301 251 c 0
EndSplineSet
EndChar

StartChar: uni1A52
Encoding: 6738 6738 63
Width: 1577
VWidth: 2260
Flags: HW
LayerCount: 2
Back
SplineSet
1456 423 m 0
 1456 299 1421.66666667 198.333333333 1353 121 c 0
 1282.33333333 41.6666666667 1187.66666667 2 1069 2 c 0
 1024.33333333 2 986.666666667 17.3333333333 956 48 c 1
 1029 64 1029 64 1101 80 c 0
 1183.66666667 98 1247.33333333 128 1292 170 c 0
 1355.33333333 229.333333333 1387 316 1387 430 c 0
 1387 510 1362.66666667 581 1314 643 c 0
 1260 711 1192 742.666666667 1110 738 c 0
 1056.66666667 734.666666667 996.333333333 696 929 622 c 1
 858 534 858 534 788 445 c 1
 839.333333333 570.333333333 876 649.666666667 898 683 c 0
 954.666666667 769.666666667 1024.33333333 812.666666667 1107 812 c 0
 1217.66666667 812 1304.33333333 775 1367 701 c 0
 1426.33333333 630.333333333 1456 537.666666667 1456 423 c 0
1156 138 m 0
 1156 105.333333333 1143.83333333 76.8333333333 1119.5 52.5 c 128
 1095.16666667 28.1666666667 1066.33333333 16 1033 16 c 0
 1000.33333333 16 971.833333333 28.1666666667 947.5 52.5 c 128
 923.166666667 76.8333333333 911 105.333333333 911 138 c 0
 911 171.333333333 923.166666667 200.166666667 947.5 224.5 c 128
 971.833333333 248.833333333 1000.33333333 261 1033 261 c 0
 1066.33333333 261 1095.16666667 248.833333333 1119.5 224.5 c 128
 1143.83333333 200.166666667 1156 171.333333333 1156 138 c 0
1077 135 m 128
 1077 166.333333333 1061.66666667 182 1031 182 c 256
 1000.33333333 182 985 166.333333333 985 135 c 128
 985 103.666666667 1000.33333333 88 1031 88 c 256
 1061.66666667 88 1077 103.666666667 1077 135 c 128
504 1017 m 1
 514 1010.33333333 524 997.833333333 534 979.5 c 128
 544 961.166666667 549 946.333333333 549 935 c 0
 549 897 532.333333333 867 499 845 c 0
 469.666666667 825.666666667 435 816 395 816 c 0
 353.666666667 816 319 827 291 849 c 0
 261.666666667 871.666666667 247 901.666666667 247 939 c 0
 247 945 247.666666667 950.666666667 249 956 c 0
 259.666666667 1040.66666667 340.333333333 1083 491 1083 c 0
 591.666666667 1083 701.333333333 1056.66666667 820 1004 c 0
 938 952 1031.66666667 888.666666667 1101 814 c 1
 865.666666667 930.666666667 666.666666667 998.333333333 504 1017 c 1
397 979 m 256
 361.666666667 979 344 964.666666667 344 936 c 0
 344 906.666666667 361.666666667 892 397 892 c 256
 432.333333333 892 450 906.666666667 450 936 c 0
 450 964.666666667 432.333333333 979 397 979 c 256
429 101 m 256
 429 72.3333333333 418.833333333 48 398.5 28 c 128
 378.166666667 8 353.333333333 -2 324 -2 c 256
 294.666666667 -2 269.833333333 8 249.5 28 c 128
 229.166666667 48 219 72.3333333333 219 101 c 256
 219 129.666666667 229.333333333 153.833333333 250 173.5 c 128
 270.666666667 193.166666667 295.333333333 203 324 203 c 256
 353.333333333 203 378.166666667 193.166666667 398.5 173.5 c 128
 418.833333333 153.833333333 429 129.666666667 429 101 c 256
898 427 m 0
 901.333333333 405 903 383.666666667 903 363 c 0
 903 259 853 153.666666667 753 47 c 0
 707.666666667 -1.66666666667 616.333333333 -66.6666666667 479 -148 c 0
 380.333333333 -206.666666667 331 -260.333333333 331 -309 c 0
 331 -371.666666667 354 -419.666666667 400 -453 c 0
 440.666666667 -481.666666667 493.666666667 -495.666666667 559 -495 c 0
 591 -495 626 -491 664 -483 c 1
 635 -495 635 -495 575 -519 c 0
 547 -529.666666667 515 -535 479 -535 c 0
 415.666666667 -535 359.333333333 -514 310 -472 c 0
 258 -428 232 -375 232 -313 c 0
 232 -239 281 -175 379 -121 c 2
 652 30 l 1
 759.333333333 114 813 221.666666667 813 353 c 0
 813 371.666666667 811.666666667 391 809 411 c 0
 800.333333333 493.666666667 759.333333333 565.333333333 686 626 c 0
 622.666666667 678.666666667 541 705 441 705 c 0
 353 705 280 678.666666667 222 626 c 0
 132 544.666666667 86.6666666667 449.666666667 86 341 c 0
 86 295.666666667 96.3333333333 253.666666667 117 215 c 0
 138.333333333 173.666666667 160.5 141.666666667 183.5 119 c 128
 206.5 96.3333333333 248.333333333 74.3333333333 309 53 c 0
 364.333333333 33 392.333333333 21.3333333333 393 18 c 0
 393.666666667 16 394 14.3333333333 394 13 c 0
 394 -0.333333333333 360 -7.33333333333 292 -8 c 0
 201.333333333 -8 124 38.6666666667 60 132 c 0
 20 190.666666667 0 262.666666667 0 348 c 0
 0 465.333333333 41.6666666667 568.333333333 125 657 c 0
 213.666666667 752.333333333 316.666666667 800 434 800 c 0
 547.333333333 800 652.333333333 767 749 701 c 0
 827.666666667 646.333333333 877.333333333 555 898 427 c 0
368 96 m 256
 368 125.333333333 353 140 323 140 c 256
 293.666666667 140 279 125.333333333 279 96 c 256
 279 66.6666666667 293.666666667 52 323 52 c 256
 353 52 368 66.6666666667 368 96 c 256
EndSplineSet
Fore
SplineSet
1456 423 m 0
 1456 299 1421.66666667 198.333333333 1353 121 c 0
 1282.33333333 41.6666666667 1187.66666667 2 1069 2 c 0
 1024.33333333 2 986.666666667 17.3333333333 956 48 c 1
 1029 64 1029 64 1101 80 c 0
 1183.66666667 98 1247.33333333 128 1292 170 c 0
 1355.33333333 229.333333333 1387 316 1387 430 c 0
 1387 510 1362.66666667 581 1314 643 c 0
 1260 711 1192 742.666666667 1110 738 c 0
 1056.66666667 734.666666667 996.333333333 696 929 622 c 1
 858 534 858 534 788 445 c 1
 839.333333333 570.333333333 876 649.666666667 898 683 c 0
 954.666666667 769.666666667 1024.33333333 812.666666667 1107 812 c 0
 1217.66666667 812 1304.33333333 775 1367 701 c 0
 1426.33333333 630.333333333 1456 537.666666667 1456 423 c 0
1156 138 m 0
 1156 105.333333333 1143.83333333 76.8333333333 1119.5 52.5 c 128
 1095.16666667 28.1666666667 1066.33333333 16 1033 16 c 0
 1000.33333333 16 971.833333333 28.1666666667 947.5 52.5 c 128
 923.166666667 76.8333333333 911 105.333333333 911 138 c 0
 911 171.333333333 923.166666667 200.166666667 947.5 224.5 c 128
 971.833333333 248.833333333 1000.33333333 261 1033 261 c 0
 1066.33333333 261 1095.16666667 248.833333333 1119.5 224.5 c 128
 1143.83333333 200.166666667 1156 171.333333333 1156 138 c 0
1077 135 m 128
 1077 166.333333333 1061.66666667 182 1031 182 c 256
 1000.33333333 182 985 166.333333333 985 135 c 128
 985 103.666666667 1000.33333333 88 1031 88 c 256
 1061.66666667 88 1077 103.666666667 1077 135 c 128
504 1017 m 1
 514 1010.33333333 524 997.833333333 534 979.5 c 128
 544 961.166666667 549 946.333333333 549 935 c 0
 549 897 532.333333333 867 499 845 c 0
 469.666666667 825.666666667 435 816 395 816 c 0
 353.666666667 816 319 827 291 849 c 0
 261.666666667 871.666666667 247 901.666666667 247 939 c 0
 247 945 247.666666667 950.666666667 249 956 c 0
 259.666666667 1040.66666667 340.333333333 1083 491 1083 c 0
 591.666666667 1083 701.333333333 1056.66666667 820 1004 c 0
 938 952 1031.66666667 888.666666667 1101 814 c 1
 865.666666667 930.666666667 666.666666667 998.333333333 504 1017 c 1
397 979 m 256
 361.666666667 979 344 964.666666667 344 936 c 0
 344 906.666666667 361.666666667 892 397 892 c 256
 432.333333333 892 450 906.666666667 450 936 c 0
 450 964.666666667 432.333333333 979 397 979 c 256
429 101 m 256
 429 72.3333333333 418.833333333 48 398.5 28 c 128
 378.166666667 8 353.333333333 -2 324 -2 c 256
 294.666666667 -2 269.833333333 8 249.5 28 c 128
 229.166666667 48 219 72.3333333333 219 101 c 256
 219 129.666666667 229.333333333 153.833333333 250 173.5 c 128
 270.666666667 193.166666667 295.333333333 203 324 203 c 256
 353.333333333 203 378.166666667 193.166666667 398.5 173.5 c 128
 418.833333333 153.833333333 429 129.666666667 429 101 c 256
898 427 m 0
 901.333333333 405 903 383.666666667 903 363 c 0
 903 259 853 153.666666667 753 47 c 0
 707.666666667 -1.66666666667 616.333333333 -66.6666666667 479 -148 c 0
 380.333333333 -206.666666667 331 -260.333333333 331 -309 c 0
 331 -371.666666667 354 -419.666666667 400 -453 c 0
 440.666666667 -481.666666667 493.666666667 -495.666666667 559 -495 c 0
 591 -495 626 -491 664 -483 c 1
 635 -495 635 -495 575 -519 c 0
 547 -529.666666667 515 -535 479 -535 c 0
 415.666666667 -535 359.333333333 -514 310 -472 c 0
 258 -428 232 -375 232 -313 c 0
 232 -239 281 -175 379 -121 c 2
 652 30 l 1
 759.333333333 114 813 221.666666667 813 353 c 0
 813 371.666666667 811.666666667 391 809 411 c 0
 800.333333333 493.666666667 759.333333333 565.333333333 686 626 c 0
 622.666666667 678.666666667 541 705 441 705 c 0
 353 705 280 678.666666667 222 626 c 0
 132 544.666666667 86.6666666667 449.666666667 86 341 c 0
 86 295.666666667 96.3333333333 253.666666667 117 215 c 0
 138.333333333 173.666666667 160.5 141.666666667 183.5 119 c 128
 206.5 96.3333333333 248.333333333 74.3333333333 309 53 c 0
 364.333333333 33 392.333333333 21.3333333333 393 18 c 0
 393.666666667 16 394 14.3333333333 394 13 c 0
 394 -0.333333333333 360 -7.33333333333 292 -8 c 0
 201.333333333 -8 124 38.6666666667 60 132 c 0
 20 190.666666667 0 262.666666667 0 348 c 0
 0 465.333333333 41.6666666667 568.333333333 125 657 c 0
 213.666666667 752.333333333 316.666666667 800 434 800 c 0
 547.333333333 800 652.333333333 767 749 701 c 0
 827.666666667 646.333333333 877.333333333 555 898 427 c 0
368 96 m 256
 368 125.333333333 353 140 323 140 c 256
 293.666666667 140 279 125.333333333 279 96 c 256
 279 66.6666666667 293.666666667 52 323 52 c 256
 353 52 368 66.6666666667 368 96 c 256
EndSplineSet
EndChar

StartChar: uni1A42
Encoding: 6722 6722 64
Width: 985
VWidth: 2260
Flags: W
HStem: -548 90<279.701 724.724> -344 90<380.684 477.316> -156 90<381.063 476.946> -20 90<211.754 523.332> 355 66<64.453 163.547> 670 90<464.603 735.698> 736 90<231.43 515.973>
VStem: -7 66<253.757 349.547> 111 90<-391.803 -209.203> 169 66<250.996 349.547> 290 90<-253.316 -179.497> 478 90<-253.316 -183.556> 650 90<182.164 404.726> 811 90<-372.124 736>
LayerCount: 2
Back
SplineSet
290 -205 m 3
 290 -128 352 -66 429 -66 c 3
 506 -66 568 -128 568 -205 c 3
 568 -282 506 -344 429 -344 c 3
 352 -344 290 -282 290 -205 c 3
380 -205 m 3
 380 -232 402 -254 429 -254 c 3
 456 -254 478 -232 478 -205 c 3
 478 -178 456 -156 429 -156 c 3
 402 -156 380 -178 380 -205 c 3
59 300 m 3x3e54
 59 270 84 245 114 245 c 3
 144 245 169 270 169 300 c 3
 169 330 144 355 114 355 c 3
 84 355 59 330 59 300 c 3x3e54
114 421 m 3
 179 421 235 365 235 300 c 3
 235 235 179 179 114 179 c 3
 50 179 -7 236 -7 300 c 3x3e4c
 -7 365 49 421 114 421 c 3
429 -66 m 3
 559 -66 655 -124 712 -258 c 1
 712 -261 711 -262 709 -263 c 1
 699 -263 668 -245 616 -210 c 128
 584 -188 518 -156 429 -156 c 3
 298 -156 201 -202 201 -307 c 3
 201 -426 377 -458 513 -458 c 3
 736 -458 811 -396 811 -175 c 2
 811 736 l 1
 704 695 650 670 613 670 c 3
 550 670 418 736 345 736 c 3
 277 736 223 686 181 653 c 1
 188 648 261 638 396 607 c 0
 583 563 740 465 740 296 c 3
 740 116 556 -20 369 -20 c 3
 192 -20 -7 115 -7 300 c 1
 83 300 l 1
 83 163 246 70 369 70 c 3
 508 70 650 172 650 296 c 3
 650 391 568 469 388 516 c 0
 260 549 135 565 14 565 c 1
 117 739 228 826 345 826 c 3
 441 826 569 760 613 760 c 3
 640 760 777 826 804 826 c 3
 865 826 883 806 901 772 c 1
 901 -175 l 2
 901 -451 783 -548 513 -548 c 3
 310 -548 111 -485 111 -307 c 3
 111 -140 259 -66 429 -66 c 3
EndSplineSet
Fore
SplineSet
114 421 m 3xfbbc
 179 421 235 365 235 300 c 3
 235 240 187 188 129 180 c 1
 186 112 287 70 369 70 c 3
 508 70 650 172 650 296 c 3
 650 391 568 469 388 516 c 0
 260 549 135 565 14 565 c 1
 117 739 228 826 345 826 c 3xfb7c
 441 826 569 760 613 760 c 3xfd7c
 640 760 777 826 804 826 c 3
 865 826 883 806 901 772 c 1
 901 -175 l 2
 901 -451 783 -548 513 -548 c 3
 310 -548 111 -485 111 -307 c 3
 111 -140 259 -66 429 -66 c 3
 559 -66 655 -124 712 -258 c 1
 712 -261 711 -262 709 -263 c 1
 699 -263 668 -245 616 -210 c 0
 604 -202 587 -192 566 -183 c 1
 567 -190 568 -198 568 -205 c 3
 568 -282 506 -344 429 -344 c 3
 352 -344 290 -282 290 -205 c 3
 290 -196 290 -187 292 -179 c 1
 236 -202 201 -244 201 -307 c 3
 201 -426 377 -458 513 -458 c 3
 736 -458 811 -396 811 -175 c 2
 811 736 l 1xfbbc
 704 695 650 670 613 670 c 3xfdbc
 550 670 418 736 345 736 c 3
 277 736 223 686 181 653 c 1
 188 648 261 638 396 607 c 0
 583 563 740 465 740 296 c 3
 740 116 556 -20 369 -20 c 3
 192 -20 -7 115 -7 300 c 3
 -7 365 49 421 114 421 c 3xfbbc
59 300 m 3
 59 270 84 245 114 245 c 3
 144 245 169 270 169 300 c 3
 169 330 144 355 114 355 c 3
 84 355 59 330 59 300 c 3
380 -205 m 3
 380 -232 402 -254 429 -254 c 3
 456 -254 478 -232 478 -205 c 3
 478 -178 456 -156 429 -156 c 3
 402 -156 380 -178 380 -205 c 3
EndSplineSet
EndChar

StartChar: uni1A59
Encoding: 6745 6745 65
Width: 0
VWidth: 2260
Flags: HW
LayerCount: 2
Back
SplineSet
-176 1038 m 1
 -242 988 l 1
 -253.333333333 986 -265 985 -277 985 c 0
 -336.333333333 985 -403 1010.33333333 -477 1061 c 0
 -496.333333333 1074.33333333 -555 1121.66666667 -653 1203 c 0
 -714.333333333 1253.66666667 -758.666666667 1279 -786 1279 c 0
 -808 1279 -835.333333333 1273.33333333 -868 1262 c 1
 -816.666666667 1262 -739 1223.33333333 -635 1146 c 0
 -527.666666667 1066.66666667 -474 1003.66666667 -474 957 c 0
 -474 931.666666667 -486 909.666666667 -510 891 c 0
 -532 873.666666667 -556 864.666666667 -582 864 c 0
 -591.333333333 864 -601 865.333333333 -611 868 c 1
 -557 890.666666667 -530.333333333 917.666666667 -531 949 c 0
 -531 962.333333333 -541.666666667 979 -563 999 c 0
 -730.333333333 1153 -878 1230 -1006 1230 c 0
 -1018.66666667 1230 -1031 1229.33333333 -1043 1228 c 1
 -926.333333333 1306.66666667 -831.666666667 1346 -759 1346 c 0
 -723 1346 -678.333333333 1319.33333333 -625 1266 c 0
 -545 1184.66666667 -492 1134.66666667 -466 1116 c 0
 -391.333333333 1062 -310 1035 -222 1035 c 0
 -206.666666667 1035.66666667 -191.333333333 1036.66666667 -176 1038 c 1
-526 916 m 0
 -526 879.333333333 -553 861.333333333 -607 862 c 0
 -649 862 -669.666666667 880 -669 916 c 0
 -669 952.666666667 -648.333333333 970.666666667 -607 970 c 0
 -553 970 -526 952 -526 916 c 0
-568 914 m 0
 -568 929.333333333 -580 937 -604 937 c 0
 -620.666666667 937 -628.666666667 930 -628 916 c 0
 -628 898.666666667 -620 890 -604 890 c 0
 -580 890 -568 898 -568 914 c 0
EndSplineSet
Fore
SplineSet
-176 1038 m 1
 -242 988 l 1
 -253.333333333 986 -265 985 -277 985 c 0
 -336.333333333 985 -403 1010.33333333 -477 1061 c 0
 -496.333333333 1074.33333333 -555 1121.66666667 -653 1203 c 0
 -714.333333333 1253.66666667 -758.666666667 1279 -786 1279 c 0
 -808 1279 -835.333333333 1273.33333333 -868 1262 c 1
 -816.666666667 1262 -739 1223.33333333 -635 1146 c 0
 -527.666666667 1066.66666667 -474 1003.66666667 -474 957 c 0
 -474 931.666666667 -486 909.666666667 -510 891 c 0
 -532 873.666666667 -556 864.666666667 -582 864 c 0
 -591.333333333 864 -601 865.333333333 -611 868 c 1
 -557 890.666666667 -530.333333333 917.666666667 -531 949 c 0
 -531 962.333333333 -541.666666667 979 -563 999 c 0
 -730.333333333 1153 -878 1230 -1006 1230 c 0
 -1018.66666667 1230 -1031 1229.33333333 -1043 1228 c 1
 -926.333333333 1306.66666667 -831.666666667 1346 -759 1346 c 0
 -723 1346 -678.333333333 1319.33333333 -625 1266 c 0
 -545 1184.66666667 -492 1134.66666667 -466 1116 c 0
 -391.333333333 1062 -310 1035 -222 1035 c 0
 -206.666666667 1035.66666667 -191.333333333 1036.66666667 -176 1038 c 1
-526 916 m 0
 -526 879.333333333 -553 861.333333333 -607 862 c 0
 -649 862 -669.666666667 880 -669 916 c 0
 -669 952.666666667 -648.333333333 970.666666667 -607 970 c 0
 -553 970 -526 952 -526 916 c 0
-568 914 m 0
 -568 929.333333333 -580 937 -604 937 c 0
 -620.666666667 937 -628.666666667 930 -628 916 c 0
 -628 898.666666667 -620 890 -604 890 c 0
 -580 890 -568 898 -568 914 c 0
EndSplineSet
EndChar

StartChar: uni1A90
Encoding: 6800 6800 66
Width: 958
VWidth: 2260
Flags: HW
LayerCount: 2
Back
SplineSet
863 409 m 0
 863 287 817.666666667 187 727 109 c 0
 643 37 541.666666667 0.666666666667 423 0 c 0
 305 0 205 43 123 129 c 0
 44.3333333333 211.666666667 5 308 5 418 c 0
 5 575.333333333 79.3333333333 693.666666667 228 773 c 0
 294.666666667 809 363.333333333 826.666666667 434 826 c 0
 588 826 708 764.333333333 794 641 c 0
 840 575 863 497.666666667 863 409 c 0
771 375 m 0
 771 481 733.333333333 570.333333333 658 643 c 0
 583.333333333 715 493 751 387 751 c 0
 311 751 242.666666667 723 182 667 c 0
 118.666666667 608.333333333 87 537 87 453 c 0
 87 398.333333333 104 342.333333333 138 285 c 0
 174 224.333333333 219.666666667 175.333333333 275 138 c 0
 337 96 404.333333333 75.3333333333 477 76 c 0
 549.666666667 76 616 103.333333333 676 158 c 0
 739.333333333 217.333333333 771 289.666666667 771 375 c 0
EndSplineSet
Fore
SplineSet
863 409 m 0
 863 287 817.666666667 187 727 109 c 0
 643 37 541.666666667 0.666666666667 423 0 c 0
 305 0 205 43 123 129 c 0
 44.3333333333 211.666666667 5 308 5 418 c 0
 5 575.333333333 79.3333333333 693.666666667 228 773 c 0
 294.666666667 809 363.333333333 826.666666667 434 826 c 0
 588 826 708 764.333333333 794 641 c 0
 840 575 863 497.666666667 863 409 c 0
771 375 m 0
 771 481 733.333333333 570.333333333 658 643 c 0
 583.333333333 715 493 751 387 751 c 0
 311 751 242.666666667 723 182 667 c 0
 118.666666667 608.333333333 87 537 87 453 c 0
 87 398.333333333 104 342.333333333 138 285 c 0
 174 224.333333333 219.666666667 175.333333333 275 138 c 0
 337 96 404.333333333 75.3333333333 477 76 c 0
 549.666666667 76 616 103.333333333 676 158 c 0
 739.333333333 217.333333333 771 289.666666667 771 375 c 0
EndSplineSet
EndChar

